<svg baseProfile="tiny-ps" version="1.2" viewBox="0 0 1000 625" xmlns="http://www.w3.org/2000/svg"><style>.shp0{fill:#ebf3fa}.shp1{fill:#2c3a64}.shp2{fill:#ed975d}.shp3{fill:#ffa412}.shp5{fill:#ffb27d}.shp7{fill:#ffb93e}.shp8{fill:#82b378}.shp9{fill:#a8d29f}.shp10{fill:#ed7d2b}.shp11{fill:#f99746}.shp14{fill:#e8c6a7}.shp15{fill:#c69d7b}</style><path class="shp0" d="M132.07 578.17C69.23 510.7 63.92 440.45 116.13 367.4c69.49-97.21 142.27-57.64 210.13-35.64 49.21 15.96 98.12-13.4 160.24-112.32 84.72-134.9 378.39-53.08 324.84 154.46-25.91 100.44 78.86 104.09 25.48 204.48l-704.75-.21z"/><path class="shp1" d="M592.32 576.84c.08.04.16.07.26.11h52.37c-.49-1.87-2.2-5.26-8.19-6.23-8.13-1.32-22.21-6.04-25.35-16.44-.1-.33-.19-.68-.27-1.02-1.66-7.41-8.54-6.27-20.63 3.4-.04.29-.09.69-.14 1.2-.42 4.07-1.49 17.26 1.95 18.98z"/><path class="shp1" d="M661.58 388.76c-22.7 80.65-37.48 136.57-44.32 167.76-16.85 3.38-26.58 2.42-29.2-2.87 5.43-87.83 13.13-137.32 23.12-148.47 12.43-13.88 29.23-19.35 50.4-16.42z"/><path class="shp2" d="M664.39 266.15c-.59-3.61-.42-6.92.5-9.92 1.4-4.51 7.23-16.39 5.38-20.52-1.84-4.13-8.52-15.25-12.64-15.21-4.12.03 4.33 11.89 3.17 15.59-1.16 3.71-1.54 4.01-2.97 3.68-1.44-.32-3.62-7.42-4.34-5.76-.72 1.65-.3 12.63 1.06 15.37.91 1.83.43 7.89-1.43 18.19l11.27-1.42z"/><path class="shp3" d="M667.69 263.74c-6.08-3.45-11.47-4.45-16.17-3-9.33 26.88-16.57 50.19-21.71 69.95-9.86-24.33-17.83-48.64-23.89-72.91-11.96 16.51-20.1 30.26-24.42 41.24-6.47 16.47 32.23 74.27 47.24 78.8 15.68 4.73 12.82-.01 21.67-5.07 2.84-3.69 11.94-22.06 17.28-109.01z"/><path class="shp1" d="M708.94 578.73c.08.03.16.07.26.11h52.37c-.49-1.87-2.2-5.26-8.19-6.24-8.13-1.32-22.21-6.04-25.36-16.43-.09-.34-.18-.68-.26-1.03-1.67-7.4-8.54-6.27-20.63 3.41-.04.29-.09.69-.14 1.19-.42 4.08-1.49 17.26 1.95 18.99z"/><path d="M671.74 385.83c-3.4 1.51-7.2 3.81-11.4 6.91-.47-2.43-1.06-4.44-1.74-6.02-29.96-7.8-85.04-11.38-165.23-10.75-17.25 4.32-23.33 19.03-18.27 44.13 6.99 34.64 122.48 18.6 159.79 8.2.87-.24 1.72-.49 2.54-.76-2.97 22.07 17.81 53.56 36.01 82.54 10 15.93 19.26 31.95 27.77 48.07 5.02 3.12 15.96 3.77 32.82 1.97-10.65-30.1-31.42-88.2-62.29-174.29z" fill="#35488b"/><path class="shp5" d="M572.57 245.55c8.6 27.53 19.36 44.38 32.28 50.54 1.22-8.36.78-15.71-1.31-22.06 2.56-1.96 4.83-3.78 6.81-5.42 4.38-3.64 7.68-6.63 9.89-8.97l-2.88-20.14-1.96-13.66c-3.15 3.61-6.4 6.56-9.64 8.99-11.16 8.32-22.22 11.89-33.19 10.72z"/><path class="shp2" d="M605.76 234.83c-4.34 11.92-2.81 23.18 4.59 33.78 4.38-3.64 7.68-6.63 9.89-8.97l-2.88-20.14c-4.63-2.58-8.49-4.14-11.6-4.67z"/><path class="shp5" d="M625.15 263.55c-19.04-12.63-24.54-24.82-16.49-36.56 12.08-17.61 16.53-31.92 35.28-20.56s17.65 20.48 15.05 27.34-26.09 34.26-33.84 29.78z"/><path d="M611.99 190.12c-.13-.48-.66-1.08-2.11-1.89 1.04-.11 2.09.07 3.17.57 1.34-1.95 4.26-5.13 8.26-4.29-1.61.07-2.87.8-3.76 2.21 6.23-2.28 16.59-1.08 40.1 12.87 30.97 18.38 10.07 34.13 4.68 34.59-5.4.45-12.55-11.55-20.64-14.73-8.08-3.18-15.15 7.5-18.56 7.78-3.4.27-1.01-1.99-3.77-5.38-2.77-3.39-6.05 2.46-6.94 6.87-.58 2.94-3.35 5.32-8.31 7.16 0 0-.76-2.62-2.3-7.85-2.3-7.85 4.28-33.1 8.93-36.89.41-.34.83-.68 1.25-1.02z" fill="#2b478b"/><path class="shp7" d="M607.33 314.36c-8.58 20.33-16.43 33.31-17.45 35-3.7 6.11-7.67 11.73-11.3 16.62-.12.16-.23.31-.34.47-7.16 9.62-18.09 12.27-17.75 14.68.68 4.84-11.54 16.45-31.7 21.6-23.38 5.98-50.48 8.85-57.33.95-2.29-2.66-3.06-7.54-2.8-13.61.33-8.52 5.86-29.94 16.59-64.26 18.35-55.54 53.8-83.31 106.35-83.31-1.03 13.31 4.91 22.27 17.81 26.89.02.04 4.54 29.29-2.08 44.97z"/><path class="shp5" d="M653.63 373.64c7.89 2.79 12.91 4.86 15.08 6.21 3.25 2.04 10.72 12.26 11.56 15.85s1.83 14.12 1.21 15.89c-.61 1.76-9.67-5-11.68-11.36-2.02-6.37-7.19-8.08-6.99-7.74.19.35 2.84 8.49 2.28 8.84-.55.35-2.97.96-5.15-3.58-2.19-4.55-6.52-7.87-5.7-12.57.55-3.14.34-6.98-.61-11.54z"/><path class="shp3" d="M560.88 381.8c.68 4.84-11.93 15.78-32.09 20.93-11.2-22.3-6.15-58.97 15.16-110.01l34.63 73.26c-7.31 9.87-18.04 13.37-17.7 15.82z"/><path class="shp3" d="M589.88 349.36c-3.7 6.11-7.67 11.73-11.3 16.62-.12.16-.23.31-.34.47-4.76-1.83-9.47-5.48-11.85-8.84-3.63-5.14-5.6-23.14-5.9-54.01 14.89 18.39 24.68 33.65 29.39 45.76z"/><path class="shp7" d="M658.17 374.68c-36.01-10.08-63.26-17.33-81.74-21.74 2.45-32.71 10.45-131.6-39.92-92.01-2.54 70.65 4.33 113.13 20.6 127.44 52.24 1.11 83.33 1.36 93.27.75 2.92-1.51 4.75-2.77 5.47-3.78 2.33-3.23 3.1-6.78 2.32-10.66z"/><path class="shp8" d="M345.36 533.35l2-.18c-.51-9.67-4.42-17.21-11.74-22.62-5.13-4.55-8.52-9.31-10.19-14.3 8.65-10.09 8.92-18.34.8-24.74-5.93-3.59-11.31-5.24-16.14-4.95 6.85 11.48 9.17 17.8 6.95 18.94s-5.57-5.53-10.06-20.02c-13.49-1.31-22.41-.92-26.74 1.17 11.53 9.43 16.08 14.43 13.65 14.99-2.43.57-9.87-3.78-22.33-13.05-12.55 2.14-18.49 7.04-17.82 14.7 1 11.48 7.49 15.03 10.34 14.72 2.85-.3 19.54-6.67 19.9-4.33.36 2.33-9.68 9.97-16.71 10.33 8.85 9.76 16.22 13.23 22.1 10.41 8.82-4.22 9.58-10.92 15.08-13.43s10.19-2.51 7.92.05c-2.27 2.57-12.23 5.06-15.37 10.62-3.15 5.56-5.97 9.32 3.16 7.94 9.13-1.37 23.97-8.05 24.62-15.7.03-.33.06-.65.08-.96.01.41-.02.73-.08.96 1.9.34 5.86 3.84 8.72 6.59.44.48 1.09 1.13 2.02 1.99.35.35.64.65.85.87 3.87 4.24 6.87 10.9 8.99 20z"/><path class="shp9" d="M370.79 477.22c-13.76-7.7-17.43-16.78-11.01-27.24 5.14-6.42 10.46-10.45 15.96-12.1-2.94 15.59-2.94 23.57 0 23.93 2.93.37 3.94-8.44 3.03-26.41 14.49-6.97 24.57-10.18 30.26-9.63-8.99 15.22-12.01 22.65-9.08 22.29 2.94-.37 9.45-8.26 19.54-23.67 14.85-2.75 23.47.28 25.86 9.08 3.57 13.21-2.2 19.81-5.5 20.64-3.31.82-24.49.55-23.94 3.3s14.86 7.15 22.83 4.68c-5.86 14.49-12.65 21.37-20.36 20.63-11.55-1.1-15.13-8.25-22.28-8.8s-12.38 1.37-8.81 3.3c3.58 1.93 15.69.63 21.47 5.54 5.77 4.91 10.45 7.94-.28 10.14s-29.99.83-33.84-7.43c-2.57-5.5-3.85-8.25-3.85-8.25z"/><path class="shp8" d="M435.17 437.6c-38.52 12.47-59.98 25.68-64.38 39.62.18 6.24-1.65 12.93-5.51 20.08-5.94 9.02-7.21 19.03-3.83 30.01l2.3-.62c-1.34-10.89-.75-19.5 1.77-25.8.16-.35.38-.86.66-1.47.69-1.34 1.15-2.33 1.44-3.04 2.06-4.23 5.04-9.75 7.02-10.91-8.62-12.1 11.55-28.06 60.53-47.87z"/><path class="shp9" d="M337.96 461.28c18.13-10.15 22.97-22.12 14.5-35.9-6.77-8.47-13.78-13.78-21.03-15.96 3.87 20.55 3.87 31.07 0 31.55-3.87.49-5.2-11.12-3.99-34.81-19.1-9.19-32.4-13.42-39.89-12.7 11.84 20.07 15.83 29.86 11.96 29.38s-12.45-10.88-25.75-31.19c-19.58-3.63-30.95.36-34.09 11.97-4.71 17.41 2.9 26.11 7.25 27.2 4.36 1.09 32.28.72 31.56 4.35-.73 3.63-19.59 9.43-30.1 6.17 7.73 19.1 16.68 28.16 26.83 27.2 15.24-1.45 19.95-10.88 29.38-11.61 9.43-.72 16.32 1.81 11.61 4.35-4.72 2.54-20.68.83-28.29 7.31-7.62 6.47-13.78 10.46.36 13.37 14.14 2.9 39.53 1.08 44.61-9.8 3.38-7.25 5.08-10.88 5.08-10.88z"/><path class="shp8" d="M345.21 487.76c-5.08-9.43-7.49-18.26-7.25-26.48-5.81-18.37-34.09-35.78-84.87-52.22 64.56 26.11 91.15 47.15 79.79 63.1 2.61 1.53 6.52 8.78 9.24 14.35.38.95 1 2.26 1.91 4.04.37.81.66 1.47.86 1.93 3.33 8.31 4.11 19.65 2.35 34.01l3.02.82c4.46-14.48 2.78-27.66-5.05-39.55z"/><path class="shp10" d="M285.59 521.11c0 29.42 23.86 53.28 53.28 53.28 6.15 0 12.05-1.04 17.54-2.96 20.81-7.25 35.75-27.04 35.75-50.32H285.59z"/><path class="shp11" d="M320.66 521.11c0 19.96 4.79 40.29 21.04 49.42 2.7 1.51 11.74-.13 14.71.9 20.81-7.25 35.75-27.04 35.75-50.32h-71.5z"/><path d="M338.87 574.39c2.17.27-8.73 0-6.49 0 29.43 0 53.28-23.86 53.28-53.28h-13.23c0 27.18-7.25 50.02-33.56 53.28z" fill="#ffb176"/><path class="shp10" d="M284.86 577.1h108.03c0-1.81-.73-3.46-1.92-4.65s-2.84-1.92-4.65-1.92h-94.89c-3.63 0-6.57 2.94-6.57 6.57z"/><path class="shp11" d="M335.48 577.1h57.41c0-1.81-.73-3.46-1.92-4.65s-2.84-1.92-4.65-1.92h-44.27c-3.63 0-6.57 2.94-6.57 6.57z"/><path d="M284.38 522.74h109.53v-1.63H284.38v1.63z" fill="#db6a1f"/><path class="shp11" d="M612.04 439.74v20.83c0 4.31-3.52 7.82-7.82 7.82H481.05c-4.3 0-7.82-3.51-7.82-7.82v-20.83c0-4.3 3.52-7.82 7.82-7.82h123.17c4.3 0 7.82 3.52 7.82 7.82z"/><path class="shp10" d="M612.04 456.78v3.79c0 4.31-3.52 7.82-7.82 7.82H481.05c-4.3 0-7.82-3.51-7.82-7.82v-4.1h136.56c.78 0 1.54.11 2.25.31z"/><path class="shp14" d="M502.88 468.39l-5.55 21.03s0 .01-.01.01l-23.11 87.53h-2.43l13.35-72.62c.02-.07.04-.14.05-.22l6.61-35.91 11.09.18z"/><path class="shp15" d="M502.88 468.39l-5.55 21.03s0 .01-.01.01c-.32.16-10.43 5.38-12.14 14.69l6.61-35.91 11.09.18z"/><path class="shp14" d="M612.04 576.96h-2.43l-18.84-71.3v-.02l-4.28-16.21-.01-.01-5.55-21.03 11.09-.18 3.78 20.53 2.83 15.38c.01.08.03.15.05.22l13.36 72.62zM574.49 495.93c-.01.01-.02 0-.04-.02-.05-.09-.04-.07.04.02z"/><path class="shp15" d="M595.8 488.74c-2.04 2.98-4.87 8.58-5.03 16.9l-4.28-16.21-.01-.01-5.55-21.03 11.09-.18 3.78 20.53z"/><path class="shp0" d="M468.03 170.02c-3.51 16.55-8.46 31.67-14.87 45.21-.29.63-.58 1.24-.89 1.86l-.45.93c-.39.78-.78 1.55-1.18 2.31-.21.42-.42.83-.64 1.24-.38.73-.77 1.46-1.17 2.19s-.81 1.46-1.22 2.18c-.71 1.25-1.43 2.49-2.17 3.71-.14.23-.28.47-.43.7-.38.63-.77 1.25-1.17 1.88-.15.24-.3.48-.46.71-.38.61-.77 1.21-1.17 1.8-.21.32-.42.64-.64.96-.38.57-.77 1.14-1.17 1.71-.22.31-.43.62-.65.92-.02.04-.04.06-.07.09-.38.55-.77 1.09-1.17 1.63-.14.21-.3.42-.45.62-.39.53-.78 1.05-1.18 1.56-.21.28-.42.56-.64.83-.38.51-.77 1-1.17 1.5-.41.51-.82 1.02-1.24 1.53a51 51 0 01-1.17 1.4c-.29.35-.58.69-.88 1.03-.01.02-.04.05-.06.08-.06.06-.11.12-.17.18-.38.45-.77.89-1.17 1.33-.85.96-1.72 1.91-2.61 2.83-.38.41-.77.82-1.17 1.22-.91.95-1.84 1.87-2.79 2.78-.39.38-.78.75-1.18 1.12-.68.64-1.37 1.28-2.07 1.9 0 .01-.01.01-.02.02-.4.36-.8.71-1.2 1.06-.39.34-.78.68-1.17 1.01-2.12 1.81-4.3 3.53-6.54 5.18-.39.3-.78.58-1.18.86-1.6 1.15-3.23 2.27-4.9 3.34-.82.54-1.65 1.06-2.49 1.57-1.81 1.12-3.66 2.18-5.54 3.2-1.45.79-2.91 1.54-4.39 2.27a118.23 118.23 0 01-6.87 3.12c-.39.17-.78.33-1.18.49-.68.28-1.36.55-2.05.82-1 .38-2 .76-3.01 1.12a137.24 137.24 0 01-9.33 2.98c-3.2.9-6.47 1.69-9.82 2.38-2.56.53-5.16 1-7.81 1.4a172.097 172.097 0 01-22.15 1.91c-1.57.04-3.16.06-4.76.06-1.92 0-3.85-.02-5.79-.06-16.32-.37-33.2-2.27-49.5-5.74-1.24-.26-2.46-.53-3.69-.81-14.47-3.32-28.41-7.88-41.03-13.74l-.96-.45c-3.17-1.49-6.26-3.08-9.25-4.74-33.23-18.48-54.2-47.17-45.04-86.71 14.22-61.44 100.09-127.21 176.76-143.34 112.08-23.59 137.63 51.51 120.38 132.86z"/><path class="shp7" d="M405.55 271.43c-.82.54-1.65 1.06-2.49 1.57-1.81 1.12-3.66 2.18-5.54 3.2-1.45.79-2.91 1.54-4.39 2.27a118.23 118.23 0 01-6.87 3.12c-.39.17-.78.33-1.18.49-.68.28-1.36.55-2.05.82h-43.24c-.41 0-.8-.1-1.15-.28a2.516 2.516 0 01-1.33-1.98l-.01-.11v-6.73a2.508 2.508 0 012.49-2.37h65.76z"/><path class="shp3" d="M386.26 271.43v10.16c-.39.17-.78.33-1.18.49v-10.65h1.18zM376.37 282.9h-1.17v-11.47h1.17v11.47z"/><path class="shp7" d="M420.56 259.96c0 .01-.01.01-.02.02-.4.36-.8.71-1.2 1.06-.39.34-.78.68-1.17 1.01-2.12 1.81-4.3 3.53-6.54 5.18-.39.3-.78.58-1.18.86-1.6 1.15-3.23 2.27-4.9 3.34h-63.28c-1.34 0-2.43-1.05-2.5-2.37V262.33c.06-1.21 1-2.21 2.2-2.35.1-.01.2-.02.3-.02h78.29z"/><path class="shp3" d="M419.34 259.96v1.08c-.39.34-.78.68-1.17 1.01v-2.09h1.17zM411.63 259.96v7.27c-.39.3-.78.58-1.18.86v-8.13h1.18zM399.8 271.43h-1.17v-11.47h1.17v11.47zM388.73 271.43h-1.17v-11.47h1.17v11.47zM378.84 271.43h-1.17v-11.47h1.17v11.47z"/><path class="shp7" d="M426.6 254.16c-.91.95-1.84 1.87-2.79 2.78-.39.38-.78.75-1.18 1.12-.68.64-1.37 1.28-2.07 1.9 0 .01-.01.01-.02.02h-85.86a2.5 2.5 0 01-2.41-1.86c-.03-.11-.05-.22-.07-.34-.01-.05-.01-.11-.01-.17 0-.04-.01-.08-.01-.13v-6.47c0-.04.01-.08.01-.13 0-.03 0-.07.01-.1 0-.07.01-.14.02-.2.17-.97.91-1.75 1.85-1.99.02-.01.05-.01.07-.02.18-.04.36-.05.54-.05h93.09v4.42c-.38.41-.77.82-1.17 1.22z" fill-rule="evenodd"/><path class="shp3" d="M389.68 259.98h-55.27c-1.18 0-2.16-1.05-2.22-2.37v-6.73c0-.03 0-.07.01-.1.08-1.08.8-1.97 1.72-2.2.04-.01.07-.02.1-.03.13-.02.26-.04.39-.04h48.48c0 .03.01.06.02.09.78 3.36 2.59 7.97 6.74 11.36.01.01.02.02.03.02zM427.77 248.52v4.42c-.38.41-.77.82-1.17 1.22v-5.64h1.17zM423.81 248.52v8.42c-.39.38-.78.75-1.18 1.12v-9.54h1.18zM419.05 259.98h-1.17v-11.47h1.17v11.47zM411.75 259.98h-1.17v-11.47h1.17v11.47zM404.04 259.98h-1.17v-11.47h1.17v11.47zM392.22 259.98h-1.18v-11.47h1.18v11.47z"/><path class="shp3" d="M381.14 259.98h-1.17v-11.47h1.17v11.47zM371.26 259.98h-1.17v-11.47h1.17v11.47zM431.55 248.52v.26c-.38.45-.77.89-1.17 1.33v-1.59h1.17z"/><path class="shp7" d="M439.75 238.33c-.02.04-.04.06-.07.09-.38.55-.77 1.09-1.17 1.63-.14.21-.3.42-.45.62-.39.53-.78 1.05-1.18 1.56-.21.28-.42.56-.64.83-.38.51-.77 1-1.17 1.5-.41.51-.82 1.02-1.24 1.53v-8.68h-2.11v-.28h5.9c.06 0 .12 0 .19.01h.09c.01 0 .03.01.04.01.02 0 .04.01.05.01h.03c.01.01.02.01.04.01.15.03.31.07.45.13.02.01.05.01.07.02l.18.09h.01c.08.05.17.1.25.15.06.05.12.09.18.14a.5.5 0 01.08.07c.03.02.05.05.08.07l.06.06c.01.01.01.02.02.02 0 .01.01.02.02.03.08.09.16.18.22.28.03.03.05.07.07.1zm-8.03 10.27h-97.25c-.11 0-.22-.01-.33-.03-.04 0-.08-.01-.12-.02a2.518 2.518 0 01-2.03-2.1c-.01-.07-.02-.15-.02-.22v-6.73a2.503 2.503 0 012.5-2.37h96.87v11.39h.44c.3-.34.59-.68.88-1.03a51 51 0 001.17-1.4v-8.68h-2.11v-.28h-.38v11.39h.44c-.01.02-.04.05-.06.08z" fill-rule="evenodd"/><path class="shp3" d="M389.46 248.6H334.2c-.05 0-.09-.01-.13-.01-.05 0-.1-.01-.15-.01-1.06-.15-1.89-1.14-1.95-2.35v-6.73c.06-1.32 1.04-2.37 2.23-2.37h48.47c.02.09.05.19.07.28.8 3.32 2.6 7.78 6.62 11.1.03.03.07.06.1.09zM427.56 248.6h-1.17v-11.47h1.17v11.47zM423.59 248.6h-1.17v-11.47h1.17v11.47zM418.83 248.6h-1.17v-11.47h1.17v11.47zM411.54 248.6h-1.17v-11.47h1.17v11.47zM403.82 248.6h-1.17v-11.47h1.17v11.47zM392 248.6h-1.17v-11.47H392v11.47z"/><path class="shp3" d="M380.93 248.6h-1.18v-11.47h1.18v11.47zM371.04 248.6h-1.17v-11.47h1.17v11.47zM431.34 248.6h-1.18v-11.47h1.18v11.47zM433.83 237.13v8.96a51 51 0 01-1.17 1.4v-10.36h1.17zM436.24 237.13v5.93c-.38.51-.77 1-1.17 1.5v-7.43h1.17zM438.06 237.17v3.5c-.39.53-.78 1.05-1.18 1.56v-5.1h.74c.06 0 .12 0 .19.01h.09c.01 0 .03.01.04.01.02 0 .04.01.05.01h.03c.01.01.02.01.04.01z"/><path class="shp7" d="M445.44 228.44v1.21c-.14.23-.28.47-.43.7-.38.63-.77 1.25-1.17 1.88-.15.24-.3.48-.46.71-.38.61-.77 1.21-1.17 1.8-.21.32-.42.64-.64.96-.38.57-.77 1.14-1.17 1.71H339.79c-.41 0-.8-.1-1.15-.28-.51-.27-.92-.72-1.15-1.26-.1-.22-.16-.46-.18-.71l-.01-.12v-6.73a2.51 2.51 0 012.49-2.37h103.15c.16 0 .3.02.44.04a2.522 2.522 0 011.63 1.07c.27.39.43.87.43 1.39z"/><path class="shp3" d="M394.79 237.41h-55.26c-.37 0-.72-.1-1.03-.28-.65-.38-1.12-1.12-1.19-1.97 0-.04-.01-.08-.01-.12v-6.73c.06-1.31 1.04-2.37 2.23-2.37H388c.76 3.29 2.48 7.79 6.45 11.19.11.09.22.19.34.28zM432.89 237.41h-1.17v-11.47h1.17v11.47zM428.92 237.41h-1.17v-11.47h1.17v11.47zM424.16 237.41h-1.17v-11.47h1.17v11.47zM416.87 237.41h-1.17v-11.47h1.17v11.47zM409.15 237.41h-1.17v-11.47h1.17v11.47zM397.33 237.41h-1.17v-11.47h1.17v11.47z"/><path class="shp3" d="M386.26 237.41h-1.18v-11.47h1.18v11.47zM376.37 237.41h-1.17v-11.47h1.17v11.47zM436.67 237.41h-1.18v-11.47h1.18v11.47zM439.16 237.41h-1.17v-11.47h1.17v11.47zM441.57 225.94v9.76c-.38.57-.77 1.14-1.17 1.71v-11.47h1.17zM443.38 225.98v6.96c-.38.61-.77 1.21-1.17 1.8v-8.8h.73c.16 0 .3.02.44.04zM445.01 227.05v3.3c-.38.63-.77 1.25-1.17 1.88v-6.12c.48.19.89.52 1.17.94z"/><path class="shp7" d="M453.16 215.23c-.29.63-.58 1.24-.89 1.86l-.45.93c-.39.78-.78 1.55-1.18 2.31-.21.42-.42.83-.64 1.24-.38.73-.77 1.46-1.17 2.19s-.81 1.46-1.22 2.18h-99.39a2.5 2.5 0 01-2.49-2.37v-6.73c.06-1.21 1-2.2 2.2-2.35.1-.01.2-.02.29-.02h89.9c0 .01.01 0 .01 0h13.24c.15 0 .3.02.45.05.15.02.3.07.45.12.05.02.09.04.13.06.03.01.07.03.1.05.08.04.17.09.25.14.03.03.07.05.1.08.02 0 .03.01.04.02.03.02.05.04.08.06.06.06.13.12.19.18z"/><path class="shp3" d="M403.22 225.94h-55.26c-1.19 0-2.17-1.05-2.23-2.36v-6.74c.06-1.21.9-2.2 1.96-2.35.09-.01.18-.01.27-.01h48.47s0 .01.01.01c.77 3.38 2.58 8.04 6.78 11.45zM441.32 225.94h-1.17v-11.46h1.17v11.46zM437.35 225.94h-1.17v-11.46h1.17v11.46zM432.59 225.94h-1.17v-11.46h1.17v11.46zM425.3 225.94h-1.18v-11.46h1.18v11.46zM417.58 225.94h-1.17v-11.46h1.17v11.46zM405.76 225.94h-1.17v-11.46h1.17v11.46z"/><path class="shp3" d="M394.69 225.94h-1.18v-11.46h1.18v11.46zM384.8 225.94h-1.17v-11.46h1.17v11.46zM445.1 225.94h-1.18v-11.46h1.18v11.46zM447.59 225.94h-1.17v-11.46h1.17v11.46zM450 214.48v7.09c-.38.73-.77 1.46-1.17 2.19v-9.28H450zM451.82 214.52v3.5c-.39.78-.78 1.55-1.18 2.31v-5.86h.73c.15 0 .3.02.45.05zM453.16 215.23c-.29.63-.58 1.24-.89 1.86v-2.45c.05.02.09.04.13.06.03.01.07.03.1.05.08.04.17.09.25.14.03.03.07.05.1.08.02 0 .03.01.04.02.03.02.05.04.08.06.06.06.13.12.19.18z"/><path class="shp7" d="M440.33 205.52V212c0 .51-.16.99-.43 1.39-.28.42-.69.75-1.17.94-.15.05-.3.1-.46.12l-.14.03c-.04 0-.08 0-.12.01H334.68a2.5 2.5 0 01-2.49-2.36v-6.74a2.5 2.5 0 012.49-2.36h103.28c.11.01.21.02.31.04.16.02.31.07.46.13.07.02.15.06.22.09.04.02.08.05.12.07.01 0 .01.01.02.01.04.02.08.05.12.08.01 0 .02.01.02.01.04.03.08.05.12.08.08.07.17.14.24.22.03.02.05.05.07.07l.06.06c0 .01.01.01.01.01.02.03.05.06.07.09.04.05.07.09.1.14.27.4.43.88.43 1.39z"/><path class="shp3" d="M389.68 214.49h-55.27c-1.18 0-2.16-1.05-2.22-2.36v-6.74c.06-1.31 1.04-2.36 2.22-2.36h48.48c.02.08.04.17.06.26.81 3.35 2.62 7.85 6.7 11.19.01 0 .02.01.03.01zM427.78 214.49h-1.18v-11.46h1.18v11.46zM423.81 214.49h-1.17v-11.46h1.17v11.46zM419.05 214.49h-1.17v-11.46h1.17v11.46zM411.75 214.49h-1.17v-11.46h1.17v11.46zM404.04 214.49h-1.17v-11.46h1.17v11.46zM392.22 214.49h-1.18v-11.46h1.18v11.46z"/><path class="shp3" d="M381.14 214.49h-1.17v-11.46h1.17v11.46zM371.26 214.49h-1.17v-11.46h1.17v11.46zM431.55 214.49h-1.17v-11.46h1.17v11.46zM434.05 214.49h-1.17v-11.46h1.17v11.46zM436.46 214.49h-1.17v-11.46h1.17v11.46zM438.27 203.07v11.38c-.14.03-.29.04-.44.04h-.73v-11.46h.73c.15 0 .3.01.44.04zM439.9 204.13v9.26c-.28.42-.69.75-1.17.94V203.2c.48.18.89.51 1.17.93z"/><path class="shp7" d="M447.91 194.32v6.48c0 .51-.16.99-.43 1.39-.28.42-.69.75-1.17.93-.14.06-.3.1-.45.13s-.29.04-.44.04H342.27c-.4 0-.78-.09-1.12-.26a2.517 2.517 0 01-1.37-2c0-.04-.01-.07-.01-.11v-6.73a2.511 2.511 0 012.2-2.35c.1-.01.19-.02.3-.02h103.15c.15 0 .29.02.44.04a2.522 2.522 0 011.62 1.07c.27.4.43.87.43 1.39z"/><path class="shp3" d="M397.26 203.29H342c-.36 0-.7-.09-1-.26-.67-.38-1.15-1.13-1.22-2 0-.04-.01-.07-.01-.11v-6.73c.06-1.21.9-2.21 1.96-2.35.09-.01.18-.02.27-.02h48.47c0 .01.01.02.01.02.75 3.29 2.49 7.8 6.46 11.19l.32.26zM435.36 203.29h-1.17v-11.47h1.17v11.47zM431.39 203.29h-1.17v-11.47h1.17v11.47zM426.63 203.29h-1.17v-11.47h1.17v11.47zM419.34 203.29h-1.17v-11.47h1.17v11.47zM411.62 203.29h-1.17v-11.47h1.17v11.47zM399.8 203.29h-1.17v-11.47h1.17v11.47z"/><path class="shp3" d="M388.73 203.29h-1.17v-11.47h1.17v11.47zM378.84 203.29h-1.17v-11.47h1.17v11.47zM439.14 203.29h-1.17v-11.47h1.17v11.47zM441.63 203.29h-1.17v-11.47h1.17v11.47zM444.04 203.29h-1.17v-11.47h1.17v11.47zM445.86 191.86v11.39c-.15.03-.29.04-.44.04h-.74v-11.47h.74c.15 0 .29.02.44.04zM447.48 192.93v9.26c-.28.42-.69.75-1.17.93v-11.13c.48.19.89.52 1.17.94z"/><path class="shp7" d="M440.33 182.87v6.48c0 .51-.16.99-.43 1.39-.28.42-.69.75-1.17.93-.15.06-.3.1-.46.13-.05.01-.09.02-.14.02-.03.01-.06.01-.08.01-.03.01-.06.01-.09.01H334.68a2.5 2.5 0 01-2.49-2.36v-6.74a2.5 2.5 0 012.49-2.36h103.15c.15 0 .3.01.44.04.16.02.31.07.46.12.48.19.89.52 1.17.94.27.4.43.87.43 1.39z"/><path class="shp3" d="M389.68 191.84h-55.27c-1.18 0-2.16-1.05-2.22-2.36v-6.74c.06-1.31 1.04-2.36 2.22-2.36h48.48c.77 3.37 2.57 8.02 6.76 11.44.01.01.02.02.03.02zM427.78 191.84h-1.18v-11.46h1.18v11.46zM423.81 191.84h-1.17v-11.46h1.17v11.46zM419.05 191.84h-1.17v-11.46h1.17v11.46zM411.75 191.84h-1.17v-11.46h1.17v11.46zM404.04 191.84h-1.17v-11.46h1.17v11.46zM392.22 191.84h-1.18v-11.46h1.18v11.46z"/><path class="shp3" d="M381.14 191.84h-1.17v-11.46h1.17v11.46zM371.26 180.38v11.46h-1.18v-11.46h1.18zM431.55 191.84h-1.17v-11.46h1.17v11.46zM434.05 191.84h-1.17v-11.46h1.17v11.46zM436.46 191.84h-1.17v-11.46h1.17v11.46zM438.27 180.41v11.39c-.14.03-.29.04-.44.04h-.73v-11.47h.73c.15 0 .3.02.44.04zM439.9 181.48v9.26c-.28.42-.69.75-1.17.93v-11.13c.48.19.89.52 1.17.94z"/><path class="shp10" d="M403.06 159.03l-50.17-55.99c-5.4-6.03-15.4-2.21-15.4 5.89v141.09c43.72 6.06 65.57 6.06 65.57 0v-90.99z"/><path class="shp8" d="M315.15 248.06l21.97-2.81c-1.22-9.03-.79-19.64 1.29-31.83 2.31-13.52 7.33-29.62 17.8-44.77 11.89-17.23 36.35-31.29 73.35-42.19l-.13-3.24-2.02-.13c.56-.43 1.22-.78 1.97-1.05l-.31-7.67c-1.66.05-4.03.25-6.35.89 1.3-.38 4.07-1.14 6.32-1.41l-.16-4.03c-81.17 5.53-105.64 55.71-112.37 94.03-2.88 16.36-3.33 31.09-1.36 44.21z"/><path class="shp9" d="M218.35 244.91l96.8 3.15c-.12-14.89 3.13-30.42 6.4-42.23 2.18-7.87 4.37-14.5 6.57-19.89 17.5-42.97 51.09-68.34 100.76-76.12l-84.49-30.59c-40.01 4.68-67.38 25.12-86.07 50.14-24.41 32.66-37.73 71.18-39.97 115.54z"/><path d="M218.35 244.91l96.8 3.15 21.97-2.81c-1.22-9.03-.79-19.64 1.29-31.83-4.71-2.58-10.29-5.12-16.86-7.59-1.73-.65-3.41-1.31-5.04-1.98-62.62-25.82-58.72-70.23-58.19-74.48-24.41 32.66-37.73 71.18-39.97 115.54z" opacity=".502" fill="#82b378"/><path class="shp8" d="M412.26 108.12l-4.18 1.27c-12.44 3.8-23.78 8.44-33.98 13.88 0 .01-.01.01-.02.01l-.01.01c-.69.37-1.37.73-2.04 1.11-7.98 4.42-15.23 9.35-21.73 14.77l-.03.03c-2.58 2.16-5.05 4.39-7.39 6.71-1.87 1.86-3.67 3.76-5.39 5.72-1.04 1.17-2.04 2.36-3.02 3.57-2.7 3.35-5.19 6.83-7.45 10.43l-.6.96c-3.71 6.03-6.81 12.42-9.27 19.13-.07.18-.14.37-.2.55-.54 1.49-1.05 3-1.53 4.52-.45 1.42-.86 2.84-1.24 4.24-.49 1.81-.92 3.61-1.31 5.38-.13.58-.25 1.15-.36 1.73-4.86 23.97-.75 42.81-.7 43.03l.37 1.64-12.32.75h-.02l-3.31.2-3.32.2-.58.04-5.06.3-61.32 3.73-.11-1.13-.09-.87-.25-2.46-.4-4.05-.76-7.6v-.02c-.12-1.47-.17-3-.14-4.58.03-3.01.3-6.21.74-9.5.18-1.28.37-2.57.59-3.87.33-1.92.69-3.85 1.1-5.78 3.86-18.22 10.95-36.1 11.38-37.17 1.12-2.87 2.28-5.67 3.49-8.42.14-.31.28-.63.42-.95 1.6-3.58 3.29-7.06 5.06-10.43 3.35-6.39 7-12.4 10.93-18.03 3.5-4.99 7.22-9.68 11.16-14.03 10.18-11.26 21.82-20.36 34.59-27.06 21.79-11.43 39.08-11.88 39.81-11.9h.26l68.23 23.94zm-16.66-2.81l-47.29-16.59a22.222 22.222 0 00-10.82-.99c-6.92 1.08-18.83 3.85-32.34 10.96-12.45 6.55-23.8 15.45-33.73 26.45-4.54 5.03-8.79 10.51-12.74 16.42-2.88 4.32-5.61 8.87-8.16 13.64-1.82 3.41-3.56 6.92-5.2 10.54-.14.28-.26.57-.39.85-1.38 3.07-2.7 6.23-3.95 9.46-.04.09-3.86 9.66-7.41 21.79-1.49 5.08-2.72 9.88-3.68 14.33-1.6 7.38-2.45 13.84-2.52 19.15-.03 1.54.01 2.99.12 4.33l.96 9.59.38 3.76 40.25-2.44h.02l18.06-1.1 4.96-.3.7-.04 3.31-.2 12.56-.77c-.44-2.51-1.21-7.78-1.4-14.96a124.03 124.03 0 012.54-28.27v-.01a115.768 115.768 0 012.82-10.85c.06-.2.12-.41.19-.61l.42-1.29c3.98-11.99 9.86-23.03 17.56-32.96 2.09-2.69 4.31-5.31 6.67-7.84 1.08-1.16 2.19-2.3 3.32-3.43 8.29-8.21 18.07-15.46 29.26-21.72 7.84-4.38 16.37-8.27 25.56-11.66 2.45-.9 2.44-4.38-.03-5.24z" fill-rule="evenodd"/><path class="shp8" d="M268.44 151.3c.58 14.17 9.24 22.39 23.41 21.8 14.16-.59 28.48-9.75 27.89-23.92-.58-14.17-8.78-22.32-22.95-21.73-14.16.58-28.94 9.68-28.35 23.85z"/><path class="shp11" d="M403.06 159.03V273c-1.81 1.12-3.66 2.18-5.54 3.2-1.45.79-2.91 1.54-4.39 2.27a118.23 118.23 0 01-6.87 3.12c-.39.17-.78.33-1.18.49-.68.28-1.36.55-2.05.82-1 .38-2 .76-3.01 1.12a137.24 137.24 0 01-9.33 2.98c-3.2.9-6.47 1.69-9.82 2.38-2.57.67-5.18 1.14-7.81 1.4a172.097 172.097 0 01-22.15 1.91c-1.57.04-3.16.06-4.76.06-1.92 0-3.85-.02-5.79-.06-16.32-.37-33.2-2.27-49.5-5.74-1.24-.26-2.46-.53-3.69-.81-14.47-3.32-28.41-7.88-41.03-13.74l-.96-.45c-3.17-1.49-6.26-3.08-9.25-4.74V159.03c0-2.1 1.72-3.83 3.82-3.83h179.48c.15 0 .29.01.42.03 1.91.21 3.41 1.84 3.41 3.8z"/><path class="shp10" d="M232.24 165.63h-3.19a.48.48 0 00-.48.48c0 .26.22.48.48.48h3.19c.27 0 .48-.22.48-.48 0-.27-.21-.48-.48-.48zm6.39 0h-3.2c-.26 0-.47.21-.47.48 0 .26.21.48.47.48h3.2c.26 0 .48-.22.48-.48a.48.48 0 00-.48-.48zm6.69.11a.51.51 0 00-.31-.11h-3.19c-.27 0-.48.21-.48.48 0 .26.2.47.46.47.01.01.01.01.02.01h3.19c.26 0 .48-.22.48-.48 0-.15-.07-.28-.17-.37zm6.07-.11h-3.19c-.27 0-.48.21-.48.48 0 .26.21.48.48.48h3.19c.26 0 .48-.22.48-.48a.48.48 0 00-.48-.48zm6.38 0h-3.19a.48.48 0 00-.48.48c0 .26.22.48.48.48h3.19c.27 0 .48-.22.48-.48 0-.27-.21-.48-.48-.48zm6.38 0h-3.19a.48.48 0 00-.48.48c0 .26.22.48.48.48h3.19c.27 0 .48-.22.48-.48 0-.27-.21-.48-.48-.48zm6.38 0h-3.19c-.26 0-.47.21-.47.48 0 .26.21.48.47.48h3.19c.27 0 .49-.22.49-.48 0-.27-.22-.48-.49-.48zm6.39 0h-3.2c-.17 0-.32.09-.4.23a.43.43 0 00-.07.25c0 .26.21.48.47.48h3.2c.26 0 .48-.22.48-.48a.48.48 0 00-.48-.48zm6.38 0h-3.19c-.27 0-.48.21-.48.48 0 .26.21.48.48.48h3.19c.26 0 .48-.22.48-.48a.48.48 0 00-.48-.48zm6.38 0h-3.19c-.27 0-.48.21-.48.48 0 .26.21.48.48.48h3.19c.27 0 .48-.22.48-.48 0-.27-.21-.48-.48-.48zm6.38 0h-3.19a.48.48 0 00-.48.48c0 .26.22.48.48.48h3.19c.27 0 .48-.22.48-.48 0-.27-.21-.48-.48-.48zm6.38 0h-3.19c-.26 0-.47.21-.47.48 0 .26.21.48.47.48h3.19c.27 0 .48-.22.48-.48 0-.27-.21-.48-.48-.48zm6.39 0h-3.2c-.26 0-.47.21-.47.48 0 .26.21.48.47.48h3.2c.26 0 .48-.22.48-.48a.48.48 0 00-.48-.48zm6.38 0h-3.19c-.25 0-.46.19-.48.43v.05c0 .26.21.48.48.48h3.19c.26 0 .48-.22.48-.48a.48.48 0 00-.48-.48zm6.38 0h-3.19c-.27 0-.48.21-.48.48 0 .26.21.48.48.48h3.19c.26 0 .48-.22.48-.48a.48.48 0 00-.48-.48zm6.38 0h-3.19a.48.48 0 00-.48.48c0 .26.22.48.48.48h3.19c.27 0 .48-.22.48-.48 0-.27-.21-.48-.48-.48zm6.38 0h-3.19a.48.48 0 00-.48.48c0 .26.22.48.48.48h3.19c.27 0 .48-.22.48-.48 0-.27-.21-.48-.48-.48zm6.38 0H337.49c-.24.03-.42.23-.42.48 0 .24.18.45.42.47.02.01.04.01.05.01h3.19c.27 0 .49-.22.49-.48 0-.27-.22-.48-.49-.48zm6.39 0h-3.19c-.27 0-.48.21-.48.48 0 .26.21.48.48.48h3.19c.26 0 .48-.22.48-.48a.48.48 0 00-.48-.48zm6.38 0h-3.19c-.27 0-.48.21-.48.48 0 .26.21.48.48.48h3.19c.26 0 .48-.22.48-.48a.48.48 0 00-.48-.48zm6.38 0h-3.19a.48.48 0 00-.48.48c0 .26.22.48.48.48h3.19c.27 0 .48-.22.48-.48 0-.27-.21-.48-.48-.48zm6.38 0h-3.19a.48.48 0 00-.48.48c0 .26.22.48.48.48h3.19c.27 0 .48-.22.48-.48 0-.27-.21-.48-.48-.48zm6.38 0h-3.19a.48.48 0 00-.48.48c0 .26.22.48.48.48h3.19c.27 0 .49-.22.49-.48 0-.27-.22-.48-.49-.48zm6.39 0h-3.19c-.27 0-.48.21-.48.48 0 .26.21.48.48.48h3.19c.26 0 .48-.22.48-.48a.48.48 0 00-.48-.48zm6.38 0h-3.19c-.27 0-.48.21-.48.48 0 .26.21.48.48.48h3.19c.26 0 .48-.22.48-.48a.48.48 0 00-.48-.48zm3.15 1.51a.478.478 0 10-.76.58c.38.5.58 1.1.58 1.73v1.02c0 .27.21.48.48.48s.48-.21.48-.48v-1.02c0-.84-.27-1.64-.78-2.31zm-161.97-.05a.478.478 0 00-.67.1 3.82 3.82 0 00-.74 2.26v1.08c0 .26.21.48.48.48.26 0 .48-.22.48-.48v-1.08c0-.61.19-1.2.55-1.69a.48.48 0 00-.1-.67zm162.27 6.09c-.27 0-.48.22-.48.49v3.19c0 .26.21.47.48.47s.48-.21.48-.47v-3.19c0-.27-.21-.49-.48-.49zm-163.2.06a.48.48 0 00-.48.48v3.19c0 .27.21.48.48.48.26 0 .48-.21.48-.48v-3.19c0-.26-.22-.48-.48-.48zm163.2 6.33c-.27 0-.48.21-.48.48v3.19a.48.48 0 00.96 0v-3.19c0-.27-.21-.48-.48-.48zm-163.2.05a.48.48 0 00-.48.48v3.19c0 .27.21.48.48.48.26 0 .48-.21.48-.48v-3.19c0-.26-.22-.48-.48-.48zm163.2 6.33c-.27 0-.48.21-.48.48v3.19a.48.48 0 00.96 0v-3.19c0-.27-.21-.48-.48-.48zm-163.2.06c-.27 0-.48.21-.48.47v3.2c0 .26.21.47.48.47.26 0 .48-.21.48-.47v-3.2c0-.26-.22-.47-.48-.47zm163.2 6.32c-.05 0-.09.01-.13.02-.2.06-.35.24-.35.46V196a.483.483 0 00.48.48c.27 0 .48-.21.48-.48v-3.19a.48.48 0 00-.48-.48zm-163.2.06c-.27 0-.48.21-.48.48v3.19c0 .26.21.47.48.47.26 0 .48-.21.48-.47v-3.19a.48.48 0 00-.48-.48zm163.2 6.32c-.05 0-.09.01-.13.02-.2.06-.35.24-.35.46v3.19c0 .22.15.41.35.46.04.02.08.02.13.02.27 0 .48-.21.48-.48v-3.19a.48.48 0 00-.48-.48zm-163.2.06c-.27 0-.48.21-.48.48v3.19a.484.484 0 00.48.48c.26 0 .48-.22.48-.48v-3.19a.48.48 0 00-.48-.48zm163.2 6.32a.48.48 0 00-.48.48v3.2c0 .26.21.47.48.47s.48-.21.48-.47v-3.2a.48.48 0 00-.48-.48zm-163.2.06a.48.48 0 00-.48.48v3.19c0 .26.21.48.48.48.26 0 .48-.22.48-.48v-3.19c0-.26-.22-.48-.48-.48zm163.2 6.33c-.27 0-.48.21-.48.48v3.19a.48.48 0 00.96 0v-3.19c0-.27-.21-.48-.48-.48zm-163.2.05a.48.48 0 00-.48.48v3.19c0 .27.21.48.48.48.26 0 .48-.21.48-.48v-3.19c0-.26-.22-.48-.48-.48zm163.2 6.33c-.27 0-.48.21-.48.48v3.19a.48.48 0 00.96 0v-3.19c0-.27-.21-.48-.48-.48zm-163.03.09a.467.467 0 00-.17-.03c-.27 0-.48.21-.48.47v3.19a.467.467 0 00.48.48c.26 0 .48-.21.48-.48v-3.19c0-.2-.13-.37-.31-.44zm163.03 6.29c-.27 0-.48.21-.48.48v3.19c0 .21.13.37.3.44h.01c.05.02.11.04.17.04.27 0 .48-.21.48-.48v-3.19c0-.27-.21-.48-.48-.48zm-163.2.06c-.27 0-.48.21-.48.47v3.2c0 .26.21.47.48.47.26 0 .48-.21.48-.47v-3.2c0-.26-.22-.47-.48-.47zm163.2 6.32a.48.48 0 00-.48.48v3.19c0 .27.21.48.48.48s.48-.21.48-.48v-3.19a.48.48 0 00-.48-.48zm-163.2.06c-.27 0-.48.21-.48.48v3.19c0 .26.21.48.48.48.26 0 .48-.22.48-.48v-3.19a.48.48 0 00-.48-.48zm163.67 6.73a.432.432 0 00-.15-.28c-.09-.08-.2-.13-.32-.13s-.23.05-.32.13c-.08.07-.14.17-.15.28-.01.02-.01.05-.01.07v3.2c0 .26.21.47.48.47s.48-.21.48-.47v-3.2c0-.02-.01-.05-.01-.07zm-163.67-.35c-.27 0-.48.21-.48.48v3.19c0 .26.21.48.48.48.26 0 .48-.22.48-.48v-3.19a.48.48 0 00-.48-.48zm163.2 6.32c-.27 0-.48.22-.48.49v3.19c0 .26.21.47.48.47s.48-.21.48-.47v-3.19c0-.27-.21-.49-.48-.49zm-163.2.06c-.1 0-.19.03-.26.08a.47.47 0 00-.22.4v3.19c0 .27.21.48.48.48a.483.483 0 00.48-.48v-3.19c0-.26-.22-.48-.48-.48zm163.2 6.33c-.27 0-.48.21-.48.48v3.19a.48.48 0 00.96 0v-3.19c0-.27-.21-.48-.48-.48zm-162.81.26a.497.497 0 00-.39-.21.48.48 0 00-.48.48v3.19c0 .27.21.48.48.48.26 0 .48-.21.48-.48v-3.19c0-.1-.03-.19-.09-.27zm162.81 6.12c-.27 0-.48.21-.48.48v3.19c0 .05.01.1.03.14v.02a.48.48 0 00.45.32c.21 0 .38-.13.45-.32v-.02a.32.32 0 00.03-.14v-3.19c0-.27-.21-.48-.48-.48zm-163.2.06c-.27 0-.48.21-.48.47v3.2c0 .26.21.47.48.47.26 0 .48-.21.48-.47v-3.2c0-.26-.22-.47-.48-.47zm163.2 6.32c-.05 0-.09.01-.13.02-.2.06-.35.24-.35.46v3.19a.483.483 0 00.48.48c.27 0 .48-.21.48-.48v-3.19a.48.48 0 00-.48-.48zm-163.2.06c-.27 0-.48.21-.48.48v3.19c0 .26.21.47.48.47.26 0 .48-.21.48-.47v-3.19a.48.48 0 00-.48-.48zm163.2 6.32c-.05 0-.09.01-.13.02-.2.06-.35.24-.35.46v3.19c0 .27.21.48.48.48s.48-.21.48-.48v-3.19a.48.48 0 00-.48-.48zm-163.2.06c-.27 0-.48.21-.48.48v2.5l.96.45v-2.95a.48.48 0 00-.48-.48zm163.66 6.7a.463.463 0 00-.46-.38.48.48 0 00-.48.48v3.2c0 .26.21.47.48.47s.48-.21.48-.47v-3.2c0-.03-.01-.07-.02-.1zm-118.67 10.37h-3.19c-.11 0-.21.04-.29.1 1.23.28 2.45.55 3.69.81.16-.07.27-.24.27-.43 0-.26-.22-.48-.48-.48zm6.38 0h-3.19a.48.48 0 00-.48.48c0 .27.21.48.48.48h3.19c.26 0 .48-.21.48-.48 0-.26-.22-.48-.48-.48zm6.38 0h-3.19c-.26 0-.48.22-.48.48 0 .27.22.48.48.48h3.19c.26 0 .48-.21.48-.48 0-.26-.22-.48-.48-.48zm6.38 0h-3.19c-.26 0-.48.22-.48.48 0 .27.22.48.48.48h3.19c.27 0 .48-.21.48-.48a.48.48 0 00-.48-.48zm6.38 0h-3.19c-.26 0-.48.22-.48.48 0 .27.22.48.48.48h3.19c.27 0 .48-.21.48-.48a.48.48 0 00-.48-.48zm6.39 0h-3.19a.48.48 0 00-.48.48c0 .27.21.48.48.48h3.19c.26 0 .47-.21.47-.48 0-.26-.21-.48-.47-.48zm6.38 0h-3.19a.48.48 0 00-.48.48c0 .27.21.48.48.48h3.19c.26 0 .48-.21.48-.48 0-.26-.22-.48-.48-.48zm6.38 0h-3.19c-.26 0-.48.22-.48.48 0 .27.22.48.48.48h3.19c.26 0 .48-.21.48-.48 0-.26-.22-.48-.48-.48zm6.38 0h-3.19c-.12 0-.23.05-.32.13-.1.08-.16.21-.16.35 0 .27.22.48.48.48h3.19c.27 0 .48-.21.48-.48a.48.48 0 00-.48-.48zm6.38 0h-3.19c-.26 0-.48.22-.48.48 0 .27.22.48.48.48h3.19c.27 0 .48-.21.48-.48a.48.48 0 00-.48-.48zm6.39 0h-3.19a.48.48 0 00-.48.48c0 .27.21.48.48.48h3.19c.26 0 .47-.21.47-.48 0-.26-.21-.48-.47-.48zm6.38 0h-3.19a.48.48 0 00-.48.48c0 .27.21.48.48.48h3.19c.26 0 .48-.21.48-.48 0-.26-.22-.48-.48-.48zm6.38 0h-3.19c-.26 0-.48.22-.48.48 0 .27.22.48.48.48h3.19c.26 0 .48-.21.48-.48 0-.26-.22-.48-.48-.48zm6.38 0h-3.19c-.26 0-.48.22-.48.48 0 .27.22.48.48.48h3.19c.26 0 .48-.21.48-.48 0-.26-.22-.48-.48-.48zm6.38 0h-3.19c-.26 0-.48.22-.48.48 0 .27.22.48.48.48h3.19c.27 0 .48-.21.48-.48a.48.48 0 00-.48-.48zm6.38 0h-3.19c-.26 0-.47.22-.47.48 0 .27.21.48.47.48h3.19c.27 0 .48-.21.48-.48a.48.48 0 00-.48-.48zm6.39 0h-3.19c-.26 0-.46.2-.48.45v.03c0 .27.21.48.48.48h1.12c.83-.23 1.66-.47 2.48-.72a.484.484 0 00-.41-.24z"/><path class="shp10" d="M232.17 231.32h-28.69c-4.04 0-7.35-3.31-7.35-7.36v-4.43c0-4.05 3.31-7.36 7.35-7.36h28.69c4.04 0 7.35 3.31 7.35 7.36v4.43c0 4.05-3.31 7.36-7.35 7.36z"/><path d="M412.89 237.13v.28c-.11 3.75-.56 7.47-1.34 11.11 0 .02-.01.04-.01.06 0 .01-.01.01-.01.02-.27 1.28-.59 2.54-.95 3.8-.73 2.57-1.63 5.1-2.7 7.56 0 .01 0 .01-.01.02a59.428 59.428 0 01-4.81 8.96c-.54.85-1.11 1.68-1.71 2.49a57.928 57.928 0 01-3.83 4.77c-1.45.79-2.91 1.54-4.39 2.27a118.23 118.23 0 01-6.87 3.12c-.39.17-.78.33-1.18.49-.68.28-1.36.55-2.05.82-1 .38-2 .76-3.01 1.12a137.24 137.24 0 01-9.33 2.98c-3.2.9-6.47 1.69-9.82 2.38-2.57.67-5.18 1.14-7.81 1.4a172.097 172.097 0 01-22.15 1.91 60.4 60.4 0 01-11.44-5.69c-.43-.27-.85-.55-1.28-.83-7.75-5.22-14.41-12.31-19.24-21.06a60.787 60.787 0 01-6.32-17.11c-.05-.23-.1-.45-.14-.68-.14-.72-.26-1.44-.37-2.16-2.61-16.67 1.89-33.74 12.27-46.94a60.3 60.3 0 018.45-8.77 60.77 60.77 0 014.11-3.18 58.21 58.21 0 013.58-2.36c.01-.01.01-.01.02-.01.42-.26.84-.51 1.26-.75.34-.19.67-.38 1.01-.57 2.8-1.54 5.66-2.84 8.56-3.9a60.515 60.515 0 0120.77-3.66c8.61.01 17.11 1.85 24.92 5.36.98.43 1.95.9 2.9 1.39.4.2.79.41 1.17.62.99.53 1.96 1.09 2.91 1.68 1.48.91 2.93 1.89 4.33 2.93.32.23.64.48.96.72.57.45 1.14.91 1.7 1.37.4.33.79.66 1.18 1 .64.57 1.27 1.14 1.89 1.73.01.01.01.02.02.02 1.57 1.51 3.08 3.11 4.5 4.8.4.48.79.96 1.17 1.45 1.15 1.45 2.24 2.97 3.26 4.54.09.14.17.27.25.4.06.09.12.17.17.26a63.216 63.216 0 011.87 3.16 60.81 60.81 0 013.7 8.02c0 .01.01.02.01.02 1.41 3.76 2.42 7.59 3.06 11.45.6 3.73.86 7.47.77 11.19z" fill="#e2810e"/><path class="shp7" d="M407.4 248.52c0 .02-.01.05-.01.08-.67 3.88-1.71 7.68-3.12 11.36v.02c-.38.99-.78 1.97-1.21 2.94-.96 2.18-2.04 4.3-3.26 6.35-.38.65-.77 1.28-1.17 1.9-.06.09-.11.18-.17.26a59.17 59.17 0 01-5.33 7.04 118.23 118.23 0 01-6.87 3.12c-.39.17-.78.33-1.18.49-.68.28-1.36.55-2.05.82-1 .38-2 .76-3.01 1.12a137.24 137.24 0 01-9.33 2.98c-3.2.9-6.47 1.69-9.82 2.38-2.57.67-5.18 1.14-7.81 1.4a172.097 172.097 0 01-22.15 1.91c-1.57.04-3.16.06-4.76.06-1.92 0-3.85-.02-5.79-.06-10.66-5.31-19.87-13.81-26.05-25.02a60.224 60.224 0 01-6.74-19.37c-.07-.38-.13-.76-.18-1.15-.09-.56-.16-1.13-.23-1.69-2.05-17.45 3.6-35.12 15.53-48.15 2.77-3.02 5.87-5.79 9.29-8.26.43-.3.85-.6 1.28-.89 1.26-.86 2.55-1.67 3.89-2.44a66.178 66.178 0 013.38-1.81c.01-.01.01-.01.02-.01.4-.2.8-.39 1.2-.58.37-.17.73-.34 1.1-.5 2.38-1.06 4.79-1.96 7.23-2.69.24-.07.47-.14.7-.2 2.22-.64 4.46-1.15 6.71-1.52 1.2-.21 2.39-.37 3.59-.49 3.2-.34 6.39-.42 9.57-.26 5.12.27 10.17 1.19 15.04 2.72 1.48.46 2.95.98 4.39 1.56.4.16.79.32 1.18.48 1.01.43 2 .89 2.99 1.37 1.96.95 3.87 2.02 5.72 3.19.4.25.79.5 1.17.76 1.89 1.25 3.72 2.61 5.47 4.08l.02.02c.31.26.62.53.93.8l.82.73.35.32c.2.19.4.38.61.57 1.14 1.08 2.24 2.22 3.3 3.4 1.53 1.69 2.97 3.48 4.31 5.37.01 0 .01.01.01.01v.01h.01c.05.08.11.16.16.24 1.29 1.82 2.48 3.73 3.58 5.72.78 1.42 1.5 2.86 2.16 4.31.06.14.13.29.19.43.11.24.21.48.32.72 0 .01 0 .02.01.02.43 1.01.83 2.02 1.2 3.03.43 1.17.82 2.35 1.17 3.53.48 1.63.9 3.26 1.24 4.89.44 2.15.77 4.3.98 6.46.16 1.58.25 3.16.28 4.73v.28c.06 3.74-.24 7.45-.86 11.11z"/><path class="shp3" d="M403.21 237.41c0-.09 0-.19-.01-.28-.02-.85-.07-1.71-.14-2.55-.23-2.91-.69-5.8-1.38-8.64a55.549 55.549 0 00-4.18-11.45s-.01-.01-.01-.02a57.174 57.174 0 00-5.27-8.62c-.39-.51-.78-1.02-1.18-1.52-.28-.35-.56-.7-.85-1.04-.07-.09-.15-.17-.22-.26-.21-.25-.42-.49-.63-.73-.2-.23-.41-.46-.61-.68-.11-.13-.23-.26-.35-.38-.27-.29-.54-.58-.82-.87a54.807 54.807 0 00-8.72-7.3c-.39-.26-.78-.52-1.17-.77-.25-.15-.49-.3-.73-.46-.01 0-.02-.01-.03-.02a55.55 55.55 0 00-5.65-3.02c-.39-.18-.78-.36-1.18-.53-2.2-.96-4.49-1.79-6.84-2.47a55.68 55.68 0 00-15.6-2.21c-3.41.01-6.81.34-10.15.98-1.78.34-3.56.77-5.31 1.3-1.57.46-3.13 1-4.66 1.61h-.01c-2.17.87-4.29 1.87-6.37 3.02-.65.35-1.29.72-1.92 1.1-1.75 1.06-3.43 2.2-5.04 3.43-1.29.99-2.54 2.03-3.74 3.12-.72.66-1.43 1.34-2.11 2.04-6.36 6.47-11.05 14.44-13.64 23.4-2.06 7.1-2.67 14.39-1.87 21.53.08.74.18 1.48.3 2.22l.09.62a55.57 55.57 0 006.17 17.73c4.67 8.46 11.31 15.41 19.32 20.35.53.33 1.07.65 1.62.96 3.78 2.17 7.86 3.89 12.15 5.14.56.16 1.11.31 1.66.45 6.54-.27 12.85-.88 18.93-1.81-6.53.66-13.18.06-19.67-1.81-1.91-.56-3.78-1.21-5.59-1.97-.73-.3-1.46-.62-2.17-.96-9.86-4.63-17.99-12.22-23.36-21.95-2.84-5.17-4.77-10.68-5.74-16.33-.02-.1-.03-.21-.05-.31-.14-.84-.26-1.69-.35-2.53-.79-6.77-.22-13.68 1.73-20.42 2.23-7.71 6.12-14.66 11.36-20.44.74-.82 1.5-1.61 2.29-2.37.44-.44.9-.86 1.36-1.28 1.63-1.47 3.35-2.84 5.17-4.11 1.5-1.05 3.07-2.02 4.69-2.91 1.06-.59 2.14-1.13 3.23-1.64 2.03-.95 4.11-1.76 6.22-2.43 1.75-.56 3.53-1.02 5.31-1.38 2.85-.59 5.75-.92 8.66-1.02 5.39-.17 10.84.51 16.17 2.05 2.63.76 5.18 1.72 7.62 2.85.01.01.03.02.04.02 2.7 1.26 5.27 2.74 7.69 4.43l1.17.84c2.39 1.77 4.63 3.75 6.69 5.92.09.09.17.17.25.26.9.96 1.77 1.96 2.6 2.99.33.41.64.82.96 1.23.59.78 1.16 1.58 1.7 2.4.41.6.8 1.21 1.18 1.83.42.69.83 1.39 1.22 2.1.11.21.23.42.34.63v.01l.01.01c.31.59.61 1.17.9 1.77a52.23 52.23 0 013.58 9.68c.95 3.67 1.5 7.42 1.62 11.19.01.09.01.19.01.28.11 3.7-.18 7.41-.88 11.11 0 .02 0 .05-.01.08a50.167 50.167 0 01-1.16 4.83 52.76 52.76 0 01-2.36 6.53c0 .01-.01.01-.01.02a51.7 51.7 0 01-6.14 10.47c-.2.26-.41.53-.61.78-.05.07-.1.14-.16.2-.06.08-.12.16-.19.24a54.949 54.949 0 01-3.3 3.71 52.3 52.3 0 01-8.71 7.13c-.2.13-.4.26-.61.39a50.856 50.856 0 01-5.7 3.14c-.32.16-.64.3-.97.45a51.12 51.12 0 01-8.22 2.89 142.18 142.18 0 0012.3-3.1c2.32-.7 4.6-1.45 6.85-2.26.51-.36 1.02-.74 1.52-1.12a53.18 53.18 0 003.54-2.95c.4-.36.79-.72 1.18-1.09.72-.7 1.43-1.42 2.12-2.15.32-.34.64-.69.94-1.04a54.644 54.644 0 009.31-14.65c.15-.34.3-.69.44-1.04v-.02c.75-1.82 1.4-3.69 1.96-5.61.22-.78.43-1.57.62-2.35.27-1.13.51-2.27.72-3.4 0-.03.01-.06.01-.08.1-.57.19-1.14.27-1.7.18-1.22.32-2.44.41-3.67.15-1.91.2-3.83.15-5.74z"/><path class="shp3" d="M375.82 248.6c0-.03 0-.06-.01-.08-.2-1.4-.59-2.82-1.19-4.26-.11-.3-.24-.59-.37-.88-.88-1.93-1.95-3.53-3.21-4.81-.16-.15-.31-.3-.47-.45-.23-.21-.46-.41-.7-.6-.05-.04-.09-.07-.13-.11l-.37-.28a16.698 16.698 0 00-4.6-2.42c-2.21-.76-4.67-1.23-7.38-1.39-2.71-.17-5.66-.2-8.85-.11-1.97.06-3.65.02-5.05-.11s-2.59-.38-3.56-.78c-.97-.39-1.76-.92-2.37-1.6-.03-.03-.05-.06-.07-.08-.07-.08-.13-.16-.19-.23-.22-.27-.42-.56-.6-.87-.24-.4-.46-.84-.65-1.32-.4-.97-.63-1.95-.69-2.91-.06-.97.09-1.88.43-2.75.34-.85.89-1.63 1.65-2.35.01-.02.03-.03.05-.05.78-.74 1.81-1.36 3.09-1.88 1.81-.74 3.53-.9 5.15-.49.5.13 1 .31 1.49.55 2.06 1 3.73 3.09 5.02 6.28l12.38-5.03c-.78-1.91-1.7-3.61-2.77-5.1 0 0-.01-.01-.01-.02-.41-.56-.83-1.1-1.28-1.59-1.62-1.83-3.45-3.25-5.48-4.24-2.04-1-4.25-1.58-6.65-1.75-2.39-.17-4.89.08-7.47.76l-.91-2.24-.97-2.38-1.59-3.93-.03-.08-6.85 2.78 1.57 3.89 1.88 4.62c-.28.15-.56.3-.83.46-.36.19-.7.4-1.05.6-1.67 1.03-3.14 2.16-4.41 3.42-1.72 1.7-3.04 3.54-3.96 5.53a15.34 15.34 0 00-1.46 6.24c-.04 2.18.39 4.4 1.31 6.65 1.05 2.6 2.41 4.66 4.07 6.17 1.26 1.15 2.68 2.08 4.24 2.79.5.22 1.02.43 1.56.61 1.07.36 2.22.66 3.42.88l.54.09c1.09.18 2.23.3 3.41.37 2.72.14 5.68.14 8.87-.01 1.86-.11 3.47-.1 4.83.03 1.37.12 2.55.39 3.54.78.99.4 1.82.96 2.48 1.69.48.52.91 1.16 1.29 1.91.01.02.02.05.04.08.12.24.23.49.33.76.4.98.6 1.96.6 2.93 0 .18-.01.37-.03.55a6.31 6.31 0 01-.63 2.24c-.44.89-1.1 1.72-1.97 2.47-.87.76-1.98 1.41-3.32 1.95-.44.18-.87.33-1.32.46-.02.01-.04.01-.06.02-.74.22-1.49.37-2.26.47-1.25.15-2.47.03-3.66-.37-.09-.03-.18-.06-.27-.1-.02-.01-.04-.01-.05-.02-1.08-.41-2.08-1.09-3.03-2.04-1.04-1.04-1.94-2.51-2.71-4.4l-11.3 4.6h-.01l-1.06.43c1.29 3.18 2.92 5.71 4.87 7.57 1.16 1.11 2.4 2.04 3.7 2.77.87.49 1.78.9 2.71 1.23 2.32.8 4.75 1.15 7.29 1.05 2.53-.11 5.03-.52 7.5-1.25l.61 1.51 2.59 6.37 6.81-2.76-1.47-3.61-1.75-4.31c2.47-1.28 4.59-2.76 6.36-4.43.91-.87 1.71-1.77 2.4-2.71 0-.01.01-.01.01-.02.54-.73 1.01-1.49 1.42-2.28.07-.14.15-.29.22-.44.53-1.12.93-2.28 1.17-3.49.19-.88.29-1.79.32-2.72.02-.8-.03-1.61-.14-2.43z"/><path class="shp7" d="M199.75 221.51c0-2.5 2.03-4.52 4.52-4.52 2.5 0 4.52 2.02 4.52 4.52s-2.02 4.52-4.52 4.52c-2.49 0-4.52-2.02-4.52-4.52z"/><path d="M928.7 579.24H70.72a.98.98 0 01-.97-.98v-.33c0-.53.44-.97.97-.97H928.7c.54 0 .98.44.98.97v.33c0 .54-.44.98-.98.98z" fill="#2e3552"/></svg>