<svg baseProfile="tiny-ps" version="1.2" viewBox="0 0 1000 594" xmlns="http://www.w3.org/2000/svg"><style>.shp1{fill:#c3dafb}.shp2{fill:#bbd9fa}.shp4{fill:#a5c9f8}.shp6{fill:#3c8f7c}.shp7{fill:#96d9c9}.shp8{fill:#50bfa5}.shp9{fill:#0e2e35}.shp10{fill:#e59f39}.shp11{fill:#eab054}.shp12{fill:#f7cc7f}.shp13{fill:#f7a491}.shp14{fill:#f47458}.shp17{fill:#fbfefe}</style><path d="M275.44 44.28c129.94-7.51 266.18 31.61 246.16 88.31-11.59 32.81 26.07 20.91 69.68 9.02 31.78-8.67 66.72-17.33 88.1-8.72 36.1 14.56 21.67 58.87 39.14 76.72 21.17 21.64 42.6 17.44 65.62 13.23 20.53-3.75 42.34-7.49 66.37 7.09 50.97 30.93 29.78 320.16 9.02 320.12l-786.09-1.43-9.41.3s-57.65-83.08-5.46-131.6 16.36-70.7 10.01-89.45c-7.28-21.53-24.27-59.13 49.77-86.72 74.03-27.6 54.92-87.64 53.09-100.07-1.82-12.43-25.94-89.29 104-96.8" fill="#eafcfc"/><path class="shp1" d="M735.53 194.23h-24.88c-5.67-20.86-3.27-50.05-31.27-61.34-1.1-.44-2.23-.84-3.4-1.19V88.07h59.55v106.16"/><path class="shp2" d="M675.98 548.7v-417c1.17.35 2.3.75 3.4 1.19 28 11.29 25.6 40.48 31.27 61.34h-34.67V548.7zM592.82 548.7V228.58h59.54v73.77h-59.54V548.7z"/><path class="shp1" d="M760.34 226.16v-38.29h59.55v31.89c-2.36-.21-4.7-.31-7.02-.31-9.9 0-19.44 1.7-28.73 3.39-8.11 1.48-16.03 2.96-23.8 3.32z"/><path class="shp2" d="M760.34 548.7V226.16c7.77-.36 15.69-1.84 23.8-3.32 9.29-1.69 18.83-3.39 28.73-3.39 2.32 0 4.66.1 7.02.31v51.27h-59.55V548.7zM509.65 548.7V173.68h59.55v86.43h-59.55V548.7zM426.49 548.7V284.87h59.55v60.81h-59.55V548.7z"/><path d="M735.53 221.89c-5.71-2.58-11.37-6.51-17.01-12.28-3.92-4-6.23-9.34-7.87-15.38h24.88v27.66" fill="#accaf9"/><path class="shp4" d="M735.53 548.7h-59.55V194.23h34.67c1.64 6.04 3.95 11.38 7.87 15.38 5.64 5.77 11.3 9.7 17.01 12.28V548.7M592.82 548.7h59.54V302.35h-59.54V548.7zM760.34 548.7h59.55V271.03h-59.55V548.7zM509.65 548.7h59.55V260.11h-59.55V548.7zM426.49 548.7h59.55V345.68h-59.55V548.7z"/><path d="M848.83 91.6l-47.45 35.86 18.1 1.15-113.27 199.23-62.72-93.97-88.71 206.81-57.07-81-71.13 100.48 4.48 17.98 66.62-93.66L558 470.11l88.39-206.05 60.86 91.17 125.4-220.57 11.64 12.52 4.54-55.58" fill="#5183bf"/><path class="shp6" d="M372.33 415.51c-68.09-54.19-125.3-124.28-168.62-206.58-31.22 25.06-62.44 50.13-93.66 75.19 50.09 95.15 116.24 176.19 194.97 238.84 22.44-35.82 44.87-71.63 67.31-107.45"/><path class="shp7" d="M189.04 228.58c-19.39 15.82-38.78 31.64-58.18 47.45 4.62 8.61 2.95 20.21-3.93 26.1 44.03 77.81 99.21 145.41 163.47 200.26 5.25-7.88 15.15-9.41 22.27-3.64 14.15-22.24 28.3-44.48 42.44-66.72-6.54-5.31-7.48-16.16-2.23-24.04C296.45 359.82 248 300.46 209.33 232.13c-6.88 5.89-16.04 4.37-20.29-3.55"/><path class="shp8" d="M267.41 406.44c14.54-18.75 14.4-46.41.69-62.96-13.76-16.5-37.25-17.28-53.5-.59-16.23 16.65-17.78 46.25-2.32 64.83 15.44 18.61 40.62 17.44 55.13-1.28z"/><path class="shp6" d="M266.45 353.23l-5.48 6.08c4.37 8.01 3.44 16.28-1.27 21.69-4.76 5.44-10.08 5.95-18.2 1.14-5.9-3.33-8.74-4.31-10.53-2.37-1.52 1.64-2.03 4.62 1.2 8.7 1.75 2.21 3.5 3.68 5.04 4.72 2.07 1.39 2.72 4.52 1.45 6.93-1.23 2.33-3.83 3.1-5.82 1.69-1.62-1.16-3.4-2.74-5.32-4.94-1.58 1.75-3.16 3.49-4.74 5.23-1.65-2.07-3.3-4.16-4.94-6.25l5.17-5.59c-4.18-8.06-3.35-16.07 1.5-21.15 5.34-5.62 11.53-3.89 18.62.55 4.91 3.07 7.76 3.55 9.8 1.29 2.15-2.39 1.45-6.04-1.26-9.48-1.85-2.37-4.01-4.17-6.13-5.51-2.09-1.31-2.65-4.52-1.25-6.92l.15-.27c1.28-2.18 3.71-2.91 5.56-1.7 2.23 1.45 4.62 3.52 6.73 5.98 1.72-1.87 3.43-3.74 5.15-5.61 1.51 1.94 3.04 3.87 4.57 5.79"/><path class="shp8" d="M321.06 454.69a659.199 659.199 0 01-44.83-42.17c-2.46 3.2-4.92 6.4-7.38 9.59 14.56 15.03 29.72 29.3 45.46 42.76 2.25-3.39 4.5-6.78 6.75-10.18"/><path class="shp6" d="M358.45 393.66c-85.53-10.84-169.41-39.44-247.22-84.29-14.79 34.64-29.59 69.28-44.38 103.91 89.97 51.86 186.95 84.92 285.84 97.45l5.76-117.07z"/><path class="shp7" d="M108.13 331.89c-9.06 21.72-18.13 43.43-27.2 65.14 8.21 4.65 12.44 14.65 9.36 22.58 76.23 40.94 157.13 68.53 239.66 81.7.7-8.73 8.53-14.62 17.52-13.4l4.14-73.01c-8.27-1.12-14.39-9.29-13.69-18.02-72.48-11.57-143.52-35.79-210.47-71.75-3.07 7.92-11.76 11.04-19.32 6.76z"/><path class="shp8" d="M263.08 436.03c3.43-21.75-10.23-43.64-30.21-50.29-19.99-6.6-40.74 3.88-46.66 24.8-5.91 20.88 7.23 45.1 29.72 52.54 22.48 7.48 43.74-5.34 47.15-27.05z"/><path class="shp6" d="M236.21 394.25c-.59 2.48-1.18 4.95-1.77 7.42 7.7 4.29 10.95 11.29 9.51 17.81-1.46 6.56-5.83 9.48-15.22 9.5-6.74.14-9.68.7-10.28 3.1-.52 2.02.51 4.62 5.29 6.33 2.6.93 4.84 1.27 6.69 1.37 2.47.12 4.56 2.3 4.64 4.81.07 2.43-1.8 4.27-4.22 4.09-1.97-.15-4.28-.57-7.02-1.41-.51 2.14-1.03 4.27-1.55 6.39-2.45-.86-4.9-1.74-7.34-2.63l1.74-6.87c-7.56-4.43-10.76-11.17-9.05-17.5 1.89-6.98 8.09-8.53 16.41-8.35 5.76.11 8.47-.85 9.12-3.61.69-2.91-1.69-5.48-5.72-6.93-2.77-1-5.52-1.42-8.01-1.47-2.45-.06-4.52-2.34-4.47-4.91v-.28c.04-2.33 1.78-4.06 3.98-3.98 2.64.1 5.72.61 8.76 1.57.57-2.3 1.14-4.59 1.72-6.88 2.26.82 4.52 1.63 6.79 2.43"/><path class="shp9" d="M319.17 221.17c-2.07-.7-4.11-1.48-6.08-2.43-2.23-1.07-5.12-2.33-6.95-2.6-3.84-.6-10.44-.2-14.08 3.73-4.54 4.91-12.61.89-10.98 26.58 1.84 29.08 18.07 25.88 18.46 25.39.4-.49 14.48-18.6 14.48-18.6s4.93 10.73 4.93 10.33c0-.38 25.14-34.04.22-42.4"/><path class="shp6" d="M336.28 412.85c-67.29 26.57-141.53 38.71-218.82 35.8 5.13 32.86 10.26 65.73 15.38 98.6 89.37 3.37 175.21-10.67 253.02-41.39-16.53-31-33.05-62.01-49.58-93.01z"/><path class="shp7" d="M125.55 467.35c3.36 20.52 6.73 41.04 10.09 61.56 8.12.24 15.79 6.26 17.19 13.65 74.34.54 145.95-11.17 212.14-34.7-3.51-7.05-.51-14.82 6.6-17.55-10.17-19.4-20.34-38.81-30.51-58.21-6.54 2.51-14.76-1.32-18.26-8.36-58.11 20.66-121 30.95-186.28 30.47 1.39 7.39-3.5 13.36-10.97 13.14z"/><path class="shp8" d="M286.26 484.64c-7.49-18.24-27.49-29.6-45.11-26.59-17.6 3.06-27.9 19.66-22.6 38.28 5.28 18.58 25.98 31.97 45.78 28.54 19.81-3.41 29.41-22.02 21.93-40.23z"/><path class="shp6" d="M247.5 463.28c.7 2.16 1.41 4.31 2.11 6.47 7.59.17 13.17 4.26 15.11 9.9 1.95 5.68.11 9.72-6.72 13.58-4.85 2.86-6.73 4.49-6.07 6.6.55 1.77 2.49 3.37 6.76 2.74 2.32-.35 4.11-1 5.5-1.68 1.86-.91 4.38-.08 5.59 1.83 1.17 1.86.65 4.04-1.19 4.89-1.51.69-3.38 1.32-5.76 1.79l1.8 5.58c-2.18.33-4.36.65-6.55.96l-1.89-6.03c-7.54-.34-12.97-4.26-14.63-9.85-1.83-6.18 1.98-9.92 8.12-13.18 4.25-2.27 5.78-4.12 4.99-6.52-.84-2.54-3.75-3.55-7.36-3.03-2.47.36-4.67 1.16-6.51 2.13-1.81.96-4.36.04-5.51-1.96-.04-.08-.08-.15-.13-.22-1.04-1.82-.56-3.88 1.08-4.71 1.96-1 4.45-1.87 7.1-2.37-.64-2.01-1.28-4.02-1.91-6.03 2.02-.29 4.05-.58 6.07-.89"/><path class="shp8" d="M343.28 466.01c-16 5.67-32.34 10.61-48.98 14.8 1.29 3.09 2.57 6.19 3.86 9.29a554.94 554.94 0 0049.67-15.01c-1.52-3.02-3.03-6.05-4.55-9.08z"/><path class="shp10" d="M225.26 521.24v24.08c0 3.89 43.45 7.05 97.05 7.05s97.05-3.16 97.05-7.05v-24.08h-194.1z"/><path class="shp11" d="M295.49 552.1v-30.86h-70.23v24.08c0 3.21 29.68 5.93 70.23 6.78zM298.76 552.16c7.54.13 15.43.21 23.55.21 12.1 0 23.68-.16 34.36-.46v-30.67h-57.91v30.92zM360.56 551.8c34.58-1.08 58.8-3.57 58.8-6.48v-24.08h-58.8v30.56z"/><path class="shp10" d="M419.36 520.99c0 3.89-43.45 7.05-97.05 7.05s-97.05-3.16-97.05-7.05 43.45-7.05 97.05-7.05 97.05 3.16 97.05 7.05z"/><path class="shp12" d="M402.23 520.99c0 2.7-35.78 4.88-79.92 4.88s-79.92-2.18-79.92-4.88 35.78-4.89 79.92-4.89 79.92 2.19 79.92 4.89z"/><path class="shp10" d="M208.65 495.76v24.08c0 3.89 43.46 7.05 97.05 7.05 53.6 0 97.05-3.16 97.05-7.05v-24.08h-194.1z"/><path class="shp11" d="M278.89 526.62v-30.86h-70.24v24.08c0 3.22 29.68 5.93 70.24 6.78zM282.16 526.68c7.54.14 15.42.21 23.54.21 12.1 0 23.69-.16 34.37-.45v-30.68h-57.91v30.92zM343.96 526.32c34.58-1.08 58.79-3.57 58.79-6.48v-24.08h-58.79v30.56z"/><path class="shp10" d="M402.75 495.51c0 3.89-43.45 7.05-97.05 7.05-53.59 0-97.05-3.16-97.05-7.05s43.46-7.05 97.05-7.05c53.6 0 97.05 3.16 97.05 7.05z"/><path class="shp12" d="M385.62 495.51c0 2.7-35.78 4.88-79.92 4.88-44.13 0-79.91-2.18-79.91-4.88s35.78-4.89 79.91-4.89c44.14 0 79.92 2.19 79.92 4.89z"/><path class="shp10" d="M219.72 469.61v24.08c0 3.89 43.45 7.04 97.05 7.04 53.59 0 97.04-3.15 97.04-7.04v-24.08H219.72z"/><path class="shp11" d="M289.95 500.46v-30.85h-70.23v24.08c0 3.21 29.67 5.93 70.23 6.77M293.22 500.53c7.54.13 15.43.2 23.55.2 12.1 0 23.68-.16 34.36-.45v-30.67h-57.91v30.92zM355.02 500.17c34.58-1.08 58.79-3.58 58.79-6.48v-24.08h-58.79v30.56z"/><path class="shp10" d="M413.81 469.35c0 3.9-43.45 7.05-97.04 7.05-53.6 0-97.05-3.15-97.05-7.05 0-3.89 43.45-7.04 97.05-7.04 53.59 0 97.04 3.15 97.04 7.04z"/><path class="shp12" d="M396.68 469.35c0 2.7-35.78 4.89-79.91 4.89-44.14 0-79.92-2.19-79.92-4.89 0-2.69 35.78-4.88 79.92-4.88 44.13 0 79.91 2.19 79.91 4.88z"/><path class="shp10" d="M208.65 443.81v24.08c0 3.89 43.46 7.05 97.05 7.05 53.6 0 97.05-3.16 97.05-7.05v-24.08h-194.1z"/><path class="shp11" d="M278.89 474.67v-30.86h-70.24v24.08c0 3.22 29.68 5.93 70.24 6.78zM282.16 474.73c7.54.13 15.42.21 23.54.21 12.1 0 23.69-.16 34.37-.46v-30.67h-57.91v30.92M343.96 474.37c34.58-1.08 58.79-3.57 58.79-6.48v-24.08h-58.79v30.56z"/><path class="shp10" d="M402.75 443.56c0 3.89-43.45 7.05-97.05 7.05-53.59 0-97.05-3.16-97.05-7.05s43.46-7.05 97.05-7.05c53.6 0 97.05 3.16 97.05 7.05z"/><path class="shp12" d="M385.62 443.56c0 2.7-35.78 4.88-79.92 4.88-44.13 0-79.91-2.18-79.91-4.88s35.78-4.89 79.91-4.89c44.14 0 79.92 2.19 79.92 4.89z"/><path class="shp10" d="M888.14 519.19v23.15c0 3.74-41.78 6.78-93.33 6.78-51.54 0-93.33-3.04-93.33-6.78v-23.15h186.66z"/><path class="shp11" d="M820.6 548.85v-29.66h67.54v23.15c0 3.09-28.54 5.7-67.54 6.51M817.46 548.92c-7.25.13-14.84.2-22.65.2-11.63 0-22.77-.16-33.04-.44v-29.49h55.69v29.73zM758.02 548.57c-33.25-1.04-56.54-3.44-56.54-6.23v-23.15h56.54v29.38"/><path class="shp10" d="M701.48 518.94c0 3.74 41.79 6.78 93.33 6.78 51.55 0 93.33-3.04 93.33-6.78 0-3.75-41.78-6.78-93.33-6.78-51.54 0-93.33 3.03-93.33 6.78z"/><path class="shp12" d="M717.96 518.94c0 2.6 34.41 4.7 76.85 4.7 42.45 0 76.86-2.1 76.86-4.7s-34.41-4.7-76.86-4.7c-42.44 0-76.85 2.1-76.85 4.7z"/><path class="shp10" d="M904.11 494.68v23.16c0 3.74-41.78 6.77-93.33 6.77-51.54 0-93.33-3.03-93.33-6.77v-23.16h186.66"/><path class="shp11" d="M836.57 524.35v-29.67h67.54v23.16c0 3.09-28.54 5.7-67.54 6.51M833.43 524.42c-7.25.13-14.84.19-22.65.19-11.64 0-22.78-.15-33.05-.43v-29.5h55.7v29.74zM773.99 524.07c-33.25-1.04-56.54-3.44-56.54-6.23v-23.16h56.54v29.39"/><path class="shp10" d="M717.45 494.44c0 3.74 41.79 6.78 93.33 6.78 51.55 0 93.33-3.04 93.33-6.78s-41.78-6.78-93.33-6.78c-51.54 0-93.33 3.04-93.33 6.78z"/><path class="shp12" d="M733.93 494.44c0 2.59 34.41 4.7 76.85 4.7 42.45 0 76.85-2.11 76.85-4.7 0-2.6-34.4-4.7-76.85-4.7-42.44 0-76.85 2.1-76.85 4.7z"/><path class="shp10" d="M893.47 469.53v23.16c0 3.74-41.78 6.77-93.33 6.77-51.54 0-93.32-3.03-93.32-6.77v-23.16h186.65z"/><path class="shp11" d="M825.93 499.2v-29.67h67.54v23.16c0 3.09-28.54 5.7-67.54 6.51M822.79 499.26c-7.25.13-14.84.2-22.65.2-11.63 0-22.77-.15-33.05-.43v-29.5h55.7v29.73zM763.35 498.92c-33.25-1.04-56.53-3.44-56.53-6.23v-23.16h56.53v29.39"/><path class="shp10" d="M706.82 469.29c0 3.74 41.78 6.77 93.32 6.77 51.55 0 93.33-3.03 93.33-6.77 0-3.75-41.78-6.78-93.33-6.78-51.54 0-93.32 3.03-93.32 6.78z"/><path class="shp12" d="M723.29 469.29c0 2.59 34.41 4.7 76.85 4.7 42.45 0 76.86-2.11 76.86-4.7 0-2.6-34.41-4.7-76.86-4.7-42.44 0-76.85 2.1-76.85 4.7z"/><path class="shp10" d="M904.11 444.73v23.15c0 3.74-41.78 6.78-93.33 6.78-51.54 0-93.33-3.04-93.33-6.78v-23.15h186.66z"/><path class="shp11" d="M836.57 474.39v-29.66h67.54v23.15c0 3.09-28.54 5.7-67.54 6.51M833.43 474.45c-7.25.14-14.84.21-22.65.21-11.64 0-22.78-.16-33.05-.44v-29.49h55.7v29.72zM773.99 474.11c-33.25-1.04-56.54-3.44-56.54-6.23v-23.15h56.54v29.38z"/><path class="shp10" d="M717.45 444.48c0 3.74 41.79 6.78 93.33 6.78 51.55 0 93.33-3.04 93.33-6.78 0-3.75-41.78-6.78-93.33-6.78-51.54 0-93.33 3.03-93.33 6.78z"/><path class="shp12" d="M733.93 444.48c0 2.59 34.41 4.7 76.85 4.7 42.45 0 76.85-2.11 76.85-4.7 0-2.6-34.4-4.7-76.85-4.7-42.44 0-76.85 2.1-76.85 4.7z"/><path class="shp10" d="M947.53 416.59l-5.6 19.56c-.91 3.16-36.94-4.38-80.49-16.84-43.54-12.47-78.1-25.14-77.2-28.3l5.61-19.56 157.68 45.14"/><path class="shp11" d="M883.29 425.32l7.18-25.06 57.06 16.33-5.6 19.56c-.75 2.61-25.49-2.09-58.64-10.83zM880.62 424.61c-6.16-1.64-12.58-3.42-19.18-5.3-9.83-2.82-19.2-5.64-27.81-8.37l7.14-24.91 47.05 13.47-7.2 25.11zM830.5 409.95c-27.84-8.92-46.94-16.58-46.26-18.94l5.61-19.56 47.76 13.68-7.11 24.82"/><path class="shp10" d="M789.91 371.25c-.91 3.15 33.65 15.82 77.2 28.29 43.54 12.46 79.57 20 80.48 16.84s-33.65-15.83-77.2-28.29c-43.54-12.47-79.58-20.01-80.48-16.84"/><path class="shp12" d="M803.82 375.23c-.62 2.19 27.93 12.29 63.79 22.55 35.86 10.27 65.44 16.81 66.07 14.62.62-2.2-27.93-12.29-63.79-22.56-35.86-10.26-65.44-16.8-66.07-14.61z"/><path class="shp10" d="M896.54 281.97l5.97 19.45c.97 3.15-33.36 16.45-76.66 29.72s-79.19 21.49-80.16 18.34l-5.97-19.45 156.82-48.06"/><path class="shp11" d="M847.45 324.28l-7.65-24.92 56.74-17.39 5.97 19.45c.8 2.6-22.51 12.14-55.06 22.86zM844.82 325.14c-6.06 1.98-12.41 3.99-18.97 6-9.78 3-19.18 5.74-27.88 8.15l-7.6-24.78 46.79-14.34 7.66 24.97M794.8 340.16c-28.2 7.69-48.39 11.67-49.11 9.32l-5.97-19.45 47.5-14.56 7.58 24.69z"/><path class="shp10" d="M739.66 329.82c.97 3.15 36.85-5.06 80.15-18.34 43.31-13.27 77.63-26.57 76.67-29.72-.97-3.14-36.86 5.06-80.16 18.34-43.3 13.27-77.63 26.58-76.66 29.72"/><path class="shp12" d="M753.5 325.58c.67 2.18 30.12-4.91 65.78-15.84s64.02-21.56 63.36-23.74c-.67-2.18-30.12 4.91-65.78 15.84s-64.03 21.56-63.36 23.74z"/><path class="shp13" d="M384.84 523.99l2.31 12.25c.12 1.6.08 5.63.42 7.02 1.3 5.23 23.31-7.49 17.54-8.51-.53-.09-4.32-3.92-5.18-5.54-1.51-2.83-2.9-8.08-2.9-8.08l-12.19 2.86"/><path class="shp14" d="M404.01 533.99s-5.68 1.41-8.57 1.7c-2.9.28-6.61-4.21-8.68-3.36-2.29.94-3.53 15.18-3.53 15.18s36.32 1.66 44.9-.71c3.4-.94-12.82-8.48-24.12-12.81"/><path class="shp13" d="M435.47 523.43l2.31 12.26c.13 1.59.08 5.62.43 7.01 1.29 5.23 22.9-6.65 17.13-7.67-.53-.09-3.91-4.76-4.78-6.38-1.51-2.82-2.89-8.08-2.89-8.08l-12.2 2.86"/><path class="shp14" d="M454.09 533.99s-5.68 1.41-8.57 1.7c-2.9.28-6.61-4.21-8.68-3.36-2.29.94-3.53 15.18-3.53 15.18s36.32 1.66 44.9-.71c3.4-.94-12.82-8.48-24.12-12.81"/><path class="shp9" d="M309.56 400.97l66.06-15.32s29.63-7.82 36.78 1.36c7.16 9.19 37.52 136.01 37.52 136.01s-15.66 1.36-16.68.68l-36.67-65.04a56.894 56.894 0 01-6.77-20.01l-2.6-18.63-26.9 7.83s-30.99 6.81-43.59-1.02c-12.6-7.82-7.15-25.86-7.15-25.86"/><path class="shp11" d="M334.93 287.14c1.04.04 3.9 1 8.08 8.87 5.34 10.05 13.15 40.41 13.15 40.41l-23.3 8.64-2.99-6.34-4.93-48.78s9.7-2.81 9.99-2.8z"/><path class="shp12" d="M304.13 282.77c6.67 0 23.15 1.94 30.8 4.38 0 0 5.62 48.1-5.06 84.66-2.39 8.18 1.98 33.92 1.98 33.92l-69.03-.9s8.18-62.23 5.09-72.28c-3.08-10.05-3.15-45.08-3.15-45.08l15.51-2.66c7.01-1.21 16.75-2.05 23.86-2.04"/><path class="shp13" d="M264.01 292.81c6.45-2.41 9.61 55.51 10.48 79.35 11.43 1.1 31.35.01 36.31-.36 2.34-.17 7.71-2.14 10.03-2.44 2.38-.31 4.54-.47 5.7-.27.44.07 12.35 4.93 13.37 5.99 1.26 1.32 4.68 4.65 4.1 6.09s-6.57-4.01-6.57-4.01l-2.93-1.64c3.65 3.55 10.6 8.22 9.6 9.93-.98 1.66-7.25-3.09-11.72-6.32 3.83 3.45 8.6 9.63 7.5 10.59-.99.86-6.41-6.28-12.2-8.35-2.15-.76-4.29 1.36-5.98 1.61-1.24.19-3.15.59-4.37.24l-5.82-.56c-2.14.2-2.64.24-4.8.7-2.51.53-6.62 1.09-9.81 1.87-18.37 4.47-24.5 6.54-30.12 6.54-17.04-.01-18.02-93.26-2.77-98.96"/><path class="shp11" d="M251.76 347.19c-1.21-24.42-1.03-54.52 12.71-59.65 5.43-2.03 14.99 10.16 13.27 60.15-7.34.6-18.11 1.09-25.98-.5"/><path class="shp14" d="M404.84 332.27l-65.03 4.24a4.258 4.258 0 00-3.75 2.89l-16.84 50.11-35.85 2.34c-1 .07-1.76.94-1.7 1.94.07 1 .93 1.76 1.93 1.69l102.05-6.66c2.81-.18 5.24-2 6.22-4.63l17.23-46.2c1.08-2.89-1.18-5.92-4.26-5.72"/><path d="M372.44 363.24c-.13 2.23-1.83 3.95-3.78 3.84-1.97-.11-3.45-2.01-3.32-4.25s1.82-3.96 3.78-3.85 3.45 2.02 3.32 4.26z" fill="#fff"/><path d="M262.86 403.25l71.99-12.42s31.13-4.74 38.28 4.45 27.92 128.3 27.92 128.3-15.66 1.37-16.68.68c-.79-.52-19.76-40.23-28.28-58.12a68.28 68.28 0 01-5.65-17.91l-2.74-16.21-9.06 3.12c-15.92 5.48-32.88 7.38-49.59 5.3-6.99-.87-13.52-2.36-17.57-4.88-12.6-7.82-8.62-32.31-8.62-32.31" fill="#184655"/><path class="shp13" d="M306.85 273.99l1.4 10.39s3.14 14.96-.9 17.85-17.17-18.28-17.17-18.28l1.39-26.33 15.28 16.37"/><path class="shp14" d="M291.12 266.16c3.33 8.98 11.28 14.5 16.92 16.63l-1.19-8.8-15.28-16.37-.45 8.54"/><path class="shp13" d="M306.02 228.98c8.56-1.38 16.23 5.48 16.02 14.01-.09 3.71-.4 8.34-1.17 13.32-1.86 12-10.08 22.56-15.51 21.61-5.43-.94-19.1-11.29-16.69-28.35 1.48-10.54 8.37-19.15 17.35-20.59"/><path class="shp13" d="M292.43 251.6c-.45 2.64-2.57 4.48-4.73 4.1-2.16-.37-3.54-2.82-3.08-5.45.46-2.64 2.58-4.47 4.74-4.1 2.16.38 3.53 2.82 3.07 5.45z"/><path class="shp9" d="M289.36 246.15s6.57 1.63 9-2.58c2.44-4.21 11.16-13.29 22.24-9.52 11.08 3.76-9.76-9.16-10.64-9.16-.89 0-11.52-.07-11.52-.07s-8.2 6.72-8.5 7.46c-.29.73-2.66 8.78-2.66 8.78l2.08 5.09"/><path class="shp8" d="M611.21 548.06H774.7v-59.47H611.21v59.47z"/><path class="shp7" d="M611.21 504.91H774.7v-7.65H611.21v7.65zM611.21 519.85H774.7v-7.65H611.21v7.65zM611.21 534.8H774.7v-7.65H611.21v7.65zM611.21 548.06H774.7v-7.65H611.21v7.65z"/><path class="shp12" d="M672.07 548.06h34v-59.47h-34v59.47z"/><path class="shp6" d="M772.72 548.06h24.69v-59.47h-24.69v59.47z"/><path class="shp9" d="M956.4 547.22H52.93v5.15H956.4v-5.15z"/><path class="shp17" d="M436.69 100.72h-131.5c-.06-.65-.09-1.3-.09-1.96 0-11.15 9.04-20.19 20.2-20.19 3.57 0 6.92.92 9.83 2.55 4.1-11.31 14.95-19.38 27.68-19.38 10.7 0 20.06 5.7 25.22 14.23 2.24-.7 4.63-1.07 7.11-1.07 9.58 0 17.83 5.63 21.64 13.76 1.31-.34 2.68-.52 4.1-.52 7.71 0 14.16 5.38 15.81 12.58zM495.95 180.86h-99.51c-.05-.49-.08-.98-.08-1.48 0-8.44 6.85-15.28 15.29-15.28 2.7 0 5.24.7 7.44 1.92 3.11-8.55 11.31-14.66 20.95-14.66 8.09 0 15.18 4.32 19.08 10.77 1.7-.53 3.51-.81 5.38-.81 7.25 0 13.5 4.26 16.38 10.42.99-.26 2.03-.4 3.1-.4 5.84 0 10.72 4.07 11.97 9.52zM305.62 169.6h-86.78c1.09-4.76 5.35-8.3 10.44-8.3.93 0 1.84.11 2.7.34 2.51-5.37 7.96-9.09 14.28-9.09 1.64 0 3.21.25 4.69.72 3.41-5.63 9.59-9.4 16.65-9.4 8.4 0 15.55 5.33 18.27 12.79 1.92-1.07 4.12-1.68 6.48-1.68 7.36 0 13.33 5.96 13.33 13.32 0 .44-.02.87-.06 1.3"/><path class="shp8" d="M402.55 237.43l1.16 14.09 8.19-9.22 26.48-21.67-22.58 7.11s-11.12 5.4-11.63 6.11c-.52.71-1.62 3.58-1.62 3.58z"/><path class="shp7" d="M390.55 231.38l47.83-10.75-35.83 16.8-12-6.05zM420.95 247.87l-14.75-7.36 32.18-19.88-17.43 27.24z"/><path class="shp6" d="M396.96 245.26c2.21-.84 3.84-1.01 3.86-1.02l-.11-1.02c-.07.01-1.78.19-4.11 1.07l.36.97M385.37 255.03a18.71 18.71 0 014.47-6.57l.71.75c-1.83 1.72-3.25 3.81-4.23 6.21l-.95-.39zm-1.3 15.56c-.41-2.78-.54-5.41-.39-7.82l1.03.07c-.15 2.34-.02 4.9.38 7.6l.01.06-1.02.14-.01-.05zm1.15 7.76l1.02-.15c.44 3.01.74 5.48.97 7.75l-1.02.11c-.23-2.26-.54-4.71-.97-7.71zm1.47 15.44l1.03-.03c.06 2.8-.02 5.36-.25 7.84l-1.03-.09c.23-2.44.31-4.97.25-7.72zm-4.16 22.52c.5-1.06.97-2.16 1.38-3.28.47-1.27.88-2.59 1.23-3.94l.99.26c-.35 1.38-.78 2.73-1.26 4.03-.42 1.15-.9 2.29-1.41 3.38l-.93-.45zm-9.17 12.23c1.93-1.77 3.68-3.68 5.18-5.67l.83.62a43.808 43.808 0 01-5.32 5.81l-.69-.76"/></svg>