<svg xmlns="http://www.w3.org/2000/svg" xmlns:xlink="http://www.w3.org/1999/xlink" baseProfile="tiny-ps" viewBox="0 0 1000 625"><style>.x{fill:#ffb27d}.y{fill:#233862}.z{fill:#2c3a64}.AA{fill:#2b478b}.AB{fill:#f99746}.AC{fill:#d9935c}.AD{fill:#ed7d2b}.AE{fill:#739af0}.AF{fill:#b64c41}.AG{fill:#b56f40}.AH{fill:#e58638}.AI{fill:#35488b}.AJ{fill:#ed985f}.AK{fill:#ee9849}.AL{fill:#e8945b}.AM{fill:#163560}.AN{fill:#a53d38}.AO{fill:#aa413e}.AP{fill:#4a75cb}.AQ{fill:#cb7d45}.AR{fill:#ef9e67}.AS{fill:#c65447}.AT{fill-rule:evenodd}</style><path d="M934.99 490.86H80.41s-.74-7.06-.96-18.45c-.13-6.64-.08-14.75.4-23.8l.12-2.25a321.8 321.8 0 011.04-12.94l.13-1.19c.49-4.67 1.11-9.53 1.87-14.51.63-4.05 1.34-8.19 2.18-12.4l.18-.89 1.4-6.47.59-2.57 1.26-5.03c1.06-4.12 2.25-8.27 3.56-12.44l.4-1.27 1.88-5.58a203.73 203.73 0 013.17-8.5l2.19-5.31c23.58-55.15 73.51-106.46 177.76-105.43 224 2.22 206.8-119.3 363.6-127.07 63.86-3.17 102.79 54.17 91.31 136.09-19.42 138.58 199.66 38.12 202.5 230.01" fill="#fcecdb"/><g class="y"><use xlink:href="#B"/><use xlink:href="#C"/></g><path d="M713.53 263.05s-.29 8.99-1.44 13.02l-9.11 6.35 34.27 5.12-8.17-11.29s-2.47-12.05-1.17-16.51c1.29-4.45-14.38 3.31-14.38 3.31" class="x"/><path d="M713.48 264.29s2.71 6.53 7.82 6.38c5.1-.14 6.26-5.91 6.26-5.91l-14.08-.47z" class="AJ"/><path d="M710.43 259.01s-1.65-8.23-2.8-10.72-2.1-13.61 10.64-14.18c0 0 4.89.57 7.58-1.06 0 0 0 1.63-.67 2.21 0 0 4.41-1.06 7.86 2.77 3.45 3.84-2.3 17.26-2.02 20.42l-20.59.56z" class="z"/><path d="M720.71 268.15c-3.7-.06-10.51-4.99-10.51-11.09v-9.51c0-2.23 1.55-4.05 3.45-4.05h14.12c1.89 0 3.45 1.82 3.45 4.05v8.98c0 6.39-6.27 11.7-10.51 11.62" class="x"/><path d="M710.2 252.63s.02-5.72 4.55-6.6 14.67 2.79 16.1-1.38c1.44-4.17-19.59-4.1-20.65-1.44-1.05 2.66 0 9.42 0 9.42z" class="z"/><g class="AF"><path d="M695.25 349.8s1.44 44.04-.72 69.17.02 60.1.02 60.1 6.9 3.8 14.37 0c0 0 8.2-48.54 8.15-60.1-.05-12.3 8.93-67.25 8.93-67.25l-30.75-1.92"/><use xlink:href="#D"/></g><path d="M746.37 357.13s-13.62 2.64-26.04 2.64c-5.42 0-11.3-.6-15.99-1.23-5.19-.68-8.9-1.41-8.9-1.41s-2.76.24-1.13-13.37c1.24-10.36.85-19.71.58-29.33-.04-1.07-.02-2.33.05-3.74.53-11.22 3.93-31.42 6.51-32.5 0 0 3.84-1.43 10.64-2.12 0 .13 3.94 5.89 8.62 6.54 2.91-1.15 5.19-2.13 8.37-6.36 4.03.47 8.42 1.27 13.12 2.53 0 0 .49 2.14 2.34 39.26.73 14.7 5.75 39.14 1.83 39.09z" class="AE"/><path d="M723.74 418.97c.02-5.2-1.57-18-3.41-31.06 1.91-7.79 6.57-15.3 6.57-15.3 5.9 16.54-3.16 46.36-3.16 46.36" class="AO"/><g class="AA"><path d="M682.3 322.37c-.32.27.81 3.08 2.47 6.74 3.44 7.51 9.14 18.61 9.14 18.61-.82 3.13-1.73 5.06-1.73 5.06-9.59-7.53-15.78-13.94-19.73-18.86-5.55-6.92-6.69-10.88-6.69-10.88 21.37-43.48 36.4-45.08 36.4-45.08l-1.78 28.73-18.08 15.68m67.89 46.13c-3.18 6.37-15.19 6.13-15.19 6.13-2.21-16.92-2.7-97.94-2.7-97.94 4.07.49 9.47 1.94 9.47 1.94 3.9 7.54 5.28 21.66 5.62 31.61.18 5.58.05 9.84-.16 10.91-.3 1.59.08 9.16.67 17.8l2.29 29.55"/><path d="M708.93 276.47s-.81 81.23-3.01 98.16c0 0-12 .24-15.19-6.13 0 0 4.93-50 4.16-54.07-.55-2.83.86-26.14 6.05-36.15 0 0 4.54-1.41 7.99-1.81"/></g><g class="x"><path d="M692.78 348.27s5.17-4.8 7.28-2.11c2.11 2.68 2.49 6.9.86 6.61s-4.98-1.82-5.46-1.05c-.48.76-2.63 2.23-3.28 1.06-.65-1.16.6-4.51.6-4.51z"/><path d="M693.91 347.72c-.82 3.13-1.73 5.06-1.73 5.06-9.59-7.53-15.78-13.94-19.73-18.86 2.98-.22 7.33-1.29 12.32-4.81 3.44 7.51 9.14 18.61 9.14 18.61"/></g><path d="M776.42 323.04s-1.14 3.96-6.69 10.88c-3.95 4.92-10.13 11.33-19.73 18.86 0 0-.9-1.93-1.73-5.06 0 0 5.7-11.1 9.14-18.61 1.66-3.66 2.8-6.47 2.47-6.74l-15.87-13.75-2.21-1.93-1.07-28.31s14.33 1.18 35.69 44.66z" class="AA"/><g class="x"><path d="M749.4 348.27s-5.17-4.8-7.28-2.11c-2.11 2.68-2.49 6.9-.86 6.61s4.98-1.82 5.46-1.05c.48.76 2.63 2.23 3.28 1.06.65-1.16-.6-4.51-.6-4.51"/><path d="M748.27 347.72c.82 3.13 1.73 5.06 1.73 5.06 9.59-7.53 15.78-13.94 19.73-18.86-2.98-.22-7.33-1.29-12.32-4.81-3.44 7.51-9.14 18.61-9.14 18.61"/></g><path d="M759.88 322.37l-15.87-13.75s4.65-3.49 7.53 1.59c2.87 5.08 8.34 12.16 8.34 12.16m16.54.67s-1.14 3.96-6.69 10.88c-6.43-.09 6.69-10.88 6.69-10.88z" class="y"/><g class="AF"><path d="M715.92 256.64c-1.35 0-4.06-.3-4.53-2.65-.15-.71-.01-1.34.39-1.83.43-.53 1.16-.84 1.97-.84h4.16c.79 0 1.34.23 1.64.68.5.75.12 1.88-.07 2.34-.65 1.54-1.54 2.26-2.8 2.26-.06.01-.35.04-.76.04zm-2.17-5.04c-.73 0-1.38.26-1.76.73-.35.43-.46.98-.33 1.6.24 1.21 1.15 1.98 2.69 2.29 1.17.24 2.29.11 2.3.11h.02c1.14 0 1.95-.67 2.55-2.1.14-.32.54-1.42.1-2.08-.24-.37-.72-.55-1.41-.55h-4.16zm11.75 5.04a5.85 5.85 0 01-.76-.04c-1.26 0-2.15-.72-2.8-2.26-.19-.46-.57-1.59-.07-2.34.3-.45.85-.68 1.64-.68h4.15c.82 0 1.54.31 1.98.84.4.49.53 1.12.39 1.83-.47 2.35-3.18 2.65-4.53 2.65zm-1.99-5.04c-.69 0-1.17.18-1.41.55-.45.66-.04 1.76.09 2.08.6 1.43 1.42 2.1 2.56 2.1h.01c.02 0 1.13.13 2.31-.11 1.54-.31 2.45-1.08 2.69-2.29.13-.62.01-1.17-.33-1.6-.39-.47-1.03-.73-1.77-.73h-4.15z" class="AT"/><path d="M719.22 253.24c-.06 0-.12-.03-.15-.09-.04-.09 0-.18.08-.22.07-.03 1.7-.76 3.15 0 .07.05.1.14.06.23-.04.08-.14.11-.22.06-1.3-.69-2.84 0-2.85.01-.02.01-.04.01-.07.01"/></g><path d="M747.9 338.95c-6.81-19.18-3.89-30.33-3.89-30.33l3.38 1.62c.18 5.58.05 9.84-.16 10.91-.3 1.59.08 9.16.67 17.8" class="y"/><path d="M426.42 257.06s-8.02-14.55-.66-20.97c7.36-6.43 20.32-2.6 22.7 0 2.38 2.59 5.56 9.95-1.02 20.44l-21.02.53" class="z"/><g class="y"><use xlink:href="#B" x="-283.78"/><use xlink:href="#E"/></g><path d="M429.75 263.05s-.29 8.99-1.44 13.02l-9.1 6.35 34.27 5.12-8.18-11.29s-2.46-12.05-1.17-16.51c1.29-4.45-14.38 3.31-14.38 3.31" class="AG"/><path d="M429.7 264.29s2.71 6.53 7.81 6.38c5.11-.14 6.27-5.91 6.27-5.91l-14.08-.47z" fill="#99592e"/><path d="M443.99 243.5h-14.11c-1.9 0-3.46 1.82-3.46 4.05v9.51c0 6.1 6.81 11.03 10.51 11.09 4.24.08 10.51-5.23 10.51-11.62v-8.98c0-2.23-1.56-4.05-3.45-4.05z" class="AG"/><g class="AK"><path d="M411.47 349.8s1.44 44.04-.72 69.17c-2.15 25.13.02 60.1.02 60.1s6.9 3.8 14.37 0c0 0 8.2-48.54 8.15-60.1-.05-12.3 8.93-67.25 8.93-67.25l-30.75-1.92"/><path d="M462.48 479.07s-6.9 3.81-14.37 0c0 0-8.2-48.54-8.15-60.1.02-5.2-1.56-18-3.41-31.06l-5.52-36.19 31.95-1.99s-2.64 44.12-.48 69.24c2.16 25.13-.02 60.1-.02 60.1"/></g><path d="M456.95 278.38v.02a91.05 91.05 0 00-11.65-2.15c-3.18 4.23-5.46 5.21-8.37 6.36-4.68-.65-8.62-6.41-8.62-6.54-5.1.52-8.53 1.45-9.93 1.89-.28.03-15.23 2-36.39 45.08 0 0 1.13 3.96 6.68 10.88 3.95 4.92 10.14 11.33 19.73 18.86 0 0 .91-1.93 1.74-5.06 0 0-5.71-11.1-9.14-18.61-1.67-3.66-2.8-6.47-2.48-6.74.62-.51 7.52-6.5 12.61-10.92-.04 1.1-.05 2.11-.02 2.98.27 9.62.66 18.97-.58 29.33-1.63 13.61 1.13 13.37 1.13 13.37s3.72.73 8.9 1.41c4.69.63 10.57 1.23 15.99 1.23 12.43 0 26.04-2.64 26.04-2.64 3.92.05-1.09-24.39-1.83-39.09l-.48-9.38 15.82 13.71c.33.27-.8 3.08-2.47 6.74-3.44 7.51-9.14 18.61-9.14 18.61.83 3.13 1.73 5.06 1.73 5.06 9.6-7.53 15.78-13.94 19.73-18.86 5.55-6.92 6.69-10.88 6.69-10.88-21.36-43.48-35.69-44.66-35.69-44.66" fill="#74acbe"/><path d="M420.56 358.54l-8.9-1.41s-2.76.24-1.13-13.37c1.24-10.36.85-19.71.58-29.33-.03-1.07-.01-2.33.05-3.74.8 1.27 9.64 15.55 12.02 26.17 1.74 7.74-.87 16.86-2.62 21.68" fill="#578e9b"/><path d="M439.96 418.97c.02-5.2-1.56-18-3.41-31.06 1.92-7.79 6.57-15.3 6.57-15.3 5.9 16.54-3.16 46.36-3.16 46.36z" class="AH"/><g class="AG"><path d="M409 348.27s5.17-4.8 7.28-2.11c2.11 2.68 2.49 6.9.87 6.61-1.64-.29-4.99-1.82-5.47-1.05-.48.76-2.63 2.23-3.28 1.06-.65-1.16.6-4.51.6-4.51z"/><path d="M410.14 347.72c-.83 3.13-1.74 5.06-1.74 5.06-9.59-7.53-15.78-13.94-19.73-18.86 2.98-.22 7.33-1.29 12.33-4.81 3.43 7.51 9.14 18.61 9.14 18.61m55.49.55s-5.18-4.8-7.29-2.11c-2.11 2.68-2.49 6.9-.86 6.61s4.98-1.82 5.47-1.05c.47.76 2.62 2.23 3.27 1.06.65-1.16-.59-4.51-.59-4.51z"/><use xlink:href="#F"/></g><g fill="#578e9b"><path d="M476.1 322.37c-.77-.64-11.21-9.71-15.86-13.75 0 0 4.65-3.49 7.52 1.59 2.88 5.08 8.34 12.16 8.34 12.16"/><use xlink:href="#G"/></g><g class="z"><path d="M426.42 251.41s2.57-7.84 10.98-6.62c8.41 1.23 9.14 3.02 10.04 5.11.89 2.08 2.62-7.62 2.62-7.62l-9.93-2.95s-12 1.36-12.86 3.38l-.87 2.01.02 6.69m9.82-15.16s-8.89-8.08-5.07-9.81c3.81-1.72 5.07 9.81 5.07 9.81z"/><path d="M435.89 236.46s-11.25-4.24-8.34-7.24c2.91-3.01 8.34 7.24 8.34 7.24zm.73.23s-1.84-10.42 2.6-10.34c4.45.08-2.6 10.34-2.6 10.34z"/><path d="M437.24 236.02s4.82-11.21 9.3-10.16-9.3 10.16-9.3 10.16z"/><path d="M437 236.69s7.66-9.49 11.69-7.27-11.69 7.27-11.69 7.27z"/></g><path d="M919.28 489.13h-29.47c-1.58-1.34 1.09-4.38 3.88-4.58 1.21-.1 2.75.16 4.5.53.41-5.39 2.72-29.61 11.45-28.64 9.82 1.09 0 10.67-2.77 16.34-2.06 4.2-4.23 10.22-5.22 13.06.8.18 1.63.35 2.47.5 1.3-3.99 6.14-17.43 12.3-16.65 7.23.92 4.32 6.31-.8 9.5-3.76 2.36-8.38 5.7-10.57 7.31 1.86.3 3.8.51 5.77.47 5.04-.13 7.51 1.36 8.46 2.16m-804.6-1.61c-1.8-2.84-7.23-10.19-14.46-9.22-7.88 1.06 8.7 6.26 13.77 9.24-1.12.01-2.09-.08-2.8-.33-3.4-1.21-9.21 1.11-11.07 1.92h32.31c-.23-.77-.81-2.03-2.31-2.95-.53-.33-1.6-.37-2.98-.27 1.93-2.26 3.26-9.49-2.09-7.63-3.9 1.36-3.89 5.78-3.51 8.39l-2.51.38c-1.6-8.19-7.29-32.21-18.82-32.85-11.69-.65 9.91 24.91 17.1 33.08-.92.11-1.81.2-2.63.24" fill="#82b378"/><path d="M354.37 489.56s0-4.03.57-5.38l2.69-6.8h8.24s1.53 4.98 1.63 6.61 0 5.57 0 5.57h-13.13m52.34 0s0-4.03-.57-5.38l-2.69-6.8h-8.24s-1.54 4.98-1.63 6.61c-.1 1.63 0 5.57 0 5.57h13.13" class="y"/><path d="M373.68 263.05s-.29 8.99-1.44 13.02l-9.1 6.35 34.27 5.12-8.17-11.29s-2.47-12.05-1.18-16.51c1.3-4.45-14.38 3.31-14.38 3.31" class="x"/><path d="M373.64 264.29s2.7 6.53 7.81 6.38c5.1-.14 6.26-5.91 6.26-5.91l-14.07-.47z" class="AJ"/><path d="M370.59 259.01s-1.65-8.23-2.8-10.72-2.11-13.61 10.64-14.18c0 0 4.89.57 7.57-1.06 0 0 0 1.63-.67 2.21 0 0 4.41-1.06 7.86 2.77 3.45 3.84-2.3 17.26-2.01 20.42l-20.59.56z" class="AF"/><path d="M387.92 243.5h-14.11c-1.9 0-3.45 1.82-3.45 4.05v9.51c0 6.1 6.8 11.03 10.5 11.09 4.24.08 10.51-5.23 10.51-11.62v-8.98c0-2.23-1.55-4.05-3.45-4.05z" class="x"/><path d="M370.36 252.63s.02-5.72 4.55-6.6c4.52-.88 14.66 2.79 16.1-1.38s-19.59-4.1-20.65-1.44 0 9.42 0 9.42" class="AF"/><g class="AA"><path d="M355.4 349.8s1.44 44.04-.72 69.17c-2.15 25.13.02 60.1.02 60.1s6.9 3.8 14.38 0c0 0 8.2-48.54 8.15-60.1-.06-12.3 8.92-67.25 8.92-67.25l-30.75-1.92"/><path d="M406.41 479.07s-6.89 3.81-14.37 0c0 0-8.2-48.54-8.15-60.1.02-5.2-1.56-18-3.41-31.06l-5.51-36.19 31.94-1.99s-2.63 44.12-.48 69.24c2.16 25.13-.02 60.1-.02 60.1"/></g><use xlink:href="#H" fill="#27437c"/><path d="M400.88 278.38l.01.02a91.688 91.688 0 00-11.65-2.15c-3.18 4.23-5.47 5.21-8.38 6.36-4.68-.65-8.62-6.41-8.62-6.54-5.1.52-8.53 1.45-9.93 1.89-.28.03-15.23 2.01-36.39 45.08 0 0 1.14 3.96 6.69 10.88 3.95 4.92 10.13 11.33 19.73 18.86 0 0 .9-1.93 1.73-5.06 0 0-5.71-11.1-9.14-18.61-1.67-3.66-2.8-6.47-2.48-6.74.62-.51 7.52-6.5 12.61-10.92-.03 1.1-.05 2.11-.02 2.98.28 9.62.66 18.97-.58 29.33-1.63 13.61 1.13 13.37 1.13 13.37s3.72.73 8.9 1.41c4.69.63 10.58 1.23 15.99 1.23 12.43 0 26.05-2.64 26.05-2.64 3.91.05-1.1-24.39-1.84-39.09l-.47-9.38 15.82 13.71c.32.27-.81 3.08-2.48 6.74-3.43 7.51-9.13 18.61-9.13 18.61.82 3.13 1.73 5.06 1.73 5.06 9.59-7.53 15.78-13.94 19.72-18.86 5.55-6.92 6.69-10.88 6.69-10.88-21.36-43.48-35.69-44.66-35.69-44.66" fill="#2f5196"/><path d="M383.89 418.97c.02-5.2-1.56-18-3.41-31.06 1.92-7.79 6.58-15.3 6.58-15.3 5.89 16.54-3.17 46.36-3.17 46.36z" class="y"/><g class="x"><path d="M352.93 348.27s5.17-4.8 7.28-2.11c2.11 2.68 2.5 6.9.87 6.61s-4.99-1.82-5.47-1.05c-.48.76-2.62 2.23-3.27 1.06-.66-1.16.59-4.51.59-4.51z"/><path d="M354.07 347.72c-.83 3.13-1.73 5.06-1.73 5.06-9.6-7.53-15.78-13.94-19.73-18.86 2.97-.22 7.32-1.29 12.32-4.81 3.43 7.51 9.14 18.61 9.14 18.61m55.49.55s-5.18-4.8-7.29-2.11c-2.11 2.68-2.49 6.9-.86 6.61s4.99-1.82 5.47-1.05c.47.76 2.62 2.23 3.28 1.06.65-1.16-.6-4.51-.6-4.51z"/><path d="M408.42 347.72c.83 3.13 1.73 5.06 1.73 5.06 9.6-7.53 15.78-13.94 19.73-18.86-2.97-.22-7.32-1.29-12.32-4.81-3.43 7.51-9.14 18.61-9.14 18.61"/></g><g class="AA"><use xlink:href="#I"/><use xlink:href="#G" x="-56.07"/></g><g class="AK"><path d="M372.72 273.87s-1.52.64-1.95 2.36c0 0 6.1 6.28 10.09 6.38l-8.14-8.74zM380.86 282.61l7.88-9.05s1.63 1.07 1.61 2.83c0 0-6.1 6.46-9.49 6.22z"/><path d="M379.45 281.94s-6.02 51.91-3.93 58.23c1.08 3.26 2.52 6.08 3.67 8.04.83 1.42 2.87 1.41 3.69-.01 1.6-2.77 3.68-6.78 3.68-8.81 0-3.3-4.56-57.49-4.56-57.49l-2.55.04z"/></g><path d="M377.87 279.4s3.64-.37 5.85-.14c.44.04.68.52.46.91-.61 1.11-1.88 3.05-3.2 3.05-1.86 0-4.76-3.69-3.11-3.82z" class="AH"/><path d="M607.07 256.26s-3.38-9.6-3.56-12.09.94-9.68 9.25-10.45 11.4-1.65 11.4-1.65l-1.58 1.87s2.31-.72 4.71.86c2.41 1.58 3.63 6.26 3.27 10.28-.36 4.03-3.51 8.46-3.55 10.12-.04 1.67-19.94 1.06-19.94 1.06" class="y"/><g class="AC"><path d="M584.42 355.8s-.19 2.19-2.48 6.96c0 0-1.05 3.24 5.81 8.1 6.87 4.86.19-15.06.19-15.06h-3.52z"/><path d="M608.64 271.13l-8.05 42.13c-4.56 23.4-9.54 47.88-10.43 48.18-1.72.57-4.34-1.67-5.49-4.53-.92-2.3-2.49-21.2-1.42-33.42.26-2.98.57-5.43.9-6.94 1.72-7.72 2.24-35.03 7.39-39.32 5.14-4.29 17.1-6.1 17.1-6.1z"/></g><path d="M608.64 271.13l-5.13 27.01-2.92 15.12c-4.11 8.06-7.65 13.55-8.73 12.51-2.23-2.1-6.14-2.36-8.61-2.28.26-2.98.57-5.43.9-6.94.14-.61.27-1.34.39-2.18 1.44-9.71 2.25-33.19 7-37.14 5.14-4.29 17.1-6.1 17.1-6.1" class="AE"/><path d="M603.51 298.14l-2.92 15.12c-4.11 8.06-7.65 13.55-8.73 12.51-2.23-2.1-6.14-2.36-8.61-2.28.26-2.98.57-5.43.9-6.94.14-.61.27-1.34.39-2.18l12.34-29.77 6.63 13.54" class="AP"/><path d="M625.71 270.82c.09-4.15.02-9.11-.54-13.3l-16.59 2.71.07 10.67c-.01.01-.46 5.22 5.95 5.98 6.42.76 11.28-2.03 11.11-6.06z" class="AC"/><path d="M608.53 261.25s3.91 8 8.39 8 8.68-7.53 8.68-7.53l-17.07-.47z" class="AQ"/><path d="M619.59 490.73s.61-4.71 2-7.5c1.4-2.8 10.3-1.02 10.3-1.02s1.78 1.53 2.16 8.64l-14.46-.12zm-30.31-.07c2.09-1.28.9-10.79.9-10.79s-9.74-7.79-11.08-1.83c-1.34 5.97-9.25 8.65-13.76 9.38-3.11.5-4.07 2.22-4.37 3.24h28.31z" class="y"/><path d="M609.07 261.84c1.62 1.27 6.34 2.53 7.71 2.68 0 0 7.01-1.57 8.28-2.34 1.98-1.19 1.85-3.61 1.95-6.98.12-3.98.52-7.11.08-9.41-.53-2.74-2.27-4.31-7.15-4.73-8.96-.78-12.68 1.47-12.84 4.47l-.1 2.3c-.36 9.36.38 12.68 2.07 14.01" class="AC"/><path d="M609.46 419.93l-.72 5.27c-.9 17.66-14.87 58.04-17.36 58.98-3.87 1.46-9.95-1.64-13.14-2.65-1.32-.43-2.21-1.76-1.91-3.1 6.91-31.79 9.46-77.56 10.38-104.66.47-13.64 2.81-23.07 2.81-23.07s34.05-9.09 34.25 2.41c.18 10.17-11.28 50.05-14.31 66.82" class="AA"/><path d="M609.46 419.93l-22.75-46.16c.47-13.64 2.81-23.07 2.81-23.07s34.05-9.09 34.25 2.41c.18 10.17-11.28 50.05-14.31 66.82z" class="y"/><path d="M601.88 353.15l18 130.46s7.91 1.91 14.06.38c0 0 5.27-69.39 4.83-86.16s3.78-44.89-.96-47.99c-4.75-3.1-35.93 3.31-35.93 3.31z" class="AA"/><path d="M640.39 349.84a2.687 2.687 0 01-2.64 2.8l-28.37.43-20.84.32c-.98.01 2.11-7.79 2.17-58.69.01-11.36 17.6-23.58 17.93-23.58v.01c0 1.63 2.58 4.65 6.55 4.91 4.71.31 10.49-2.03 10.49-4.75 0-.03.55.56 1.43 1.85 2.35 3.42 7.09 11.78 10.12 26.33 2.39 11.49 1.47 26.85 3.19 46.67.12 1.43-.06 2.7-.03 3.7" fill="#ffa412"/><path d="M639.35 352.79s-3.77 1.69-10.83 3.16c-5.24 1.08-12.3 2.05-20.97 2.1-13.79.09-19.01-4.66-19.01-4.66-.98.01 2.11-7.79 2.17-58.69.01-11.36 17.6-23.58 17.93-23.58v.01s-.45 15.12 4.12 19.57c0 0 6.42-4.96 14.75-19.06 2.35 3.42 6.69 13.28 9.72 27.83.61 2.96 1.01 6.17 1.28 9.66.81 10.03.63 22.29 1.91 37.01.12 1.43-.06 2.7-.03 3.7.06 1.51.47 2.93-1.04 2.95" class="AE"/><path d="M639.35 352.79s-3.77 1.69-10.83 3.16c-2.22-3.39-5.01-9.5-5.4-19.12-.66-16.28 14.81-37.23 14.81-37.23l.58 9.53c.81 10.03.63 22.29 1.91 37.01.12 1.43-.06 2.7-.03 3.7.06 1.51.47 2.93-1.04 2.95z" class="AP"/><path d="M625.95 297.68L599.6 312.9l20.87 36.15 26.36-15.22-20.88-36.15z" class="AA"/><g class="AC"><path d="M650.95 331.49s-5.39.53-14.62-.42c-6.66-.68-15.31-2.14-25.36-5.11l2.94-5.01s12.01-.53 20.82-1.82c2.19-.32 4.18-.69 5.74-1.11 1.91-.51-7.59-24.58-12.38-38.74-1.15-3.38-2.02-6.19-2.41-7.99 0 0 .84.14 2.16.4 3.72.73 11.31 2.46 14.53 4.9 4.37 3.3 15.27 40.52 8.58 54.9"/><path d="M614.01 320.95s-4.07-3.82-5.64-3.82c-1.58 0-6.11 1.65-6.57 2.93-.47 1.27-.65 3.55.64 4.06 1.3.51 6.67 1.78 8.06 1.91 1.38.13 4.81-.64 3.51-5.08"/></g><path d="M650.95 331.49s-5.39.53-14.62-.42c.51-2.5.98-7.4-1.6-11.94 2.19-.32 4.18-.69 5.74-1.11 1.91-.51-7.59-24.58-12.38-38.74l-.58-7.64.33.05c3.72.73 11.31 2.46 14.53 4.9 4.37 3.3 15.27 40.52 8.58 54.9" class="AE"/><g class="AP"><path d="M612.76 290.7s12.84-5.66 13.03-6.1c.19-.45-.64-3.88-1.53-4.89 0 0 6.17.57 6.55-.19.38-.77.51-7.12.51-7.12s-2.42-2.54-5.59-2.8l-3.82 8.96c-2.73 5.47-9.15 12.14-9.15 12.14z"/><path d="M609.71 279.52s.83 6.6 3.05 11.18c0 0-6.7-4.67-7.28-6.2-.57-1.52 1.63-4.48 1.63-4.48s-4.01-.09-4.1-1.43c-.1-1.33 1.23-6.57 1.23-6.57s3.45-2.52 4.4-2.42l1.07 9.92"/></g><g class="y"><path d="M606.92 250.83s.34-5.97 4.05-6.04c3.7-.07 10.14-.43 12.81-2.94 2.68-2.52-15.9-1.37-15.9-1.37s-2.25 7.19-.96 10.35z"/><path d="M621.79 242.73s4.82 1.97 5.5 5.03c0 0 1.59-11.31-5.5-5.03z"/></g><path d="M310.44 460.36l4 16.84 5.99-.04.22-16.8h-10.21zm50.38.71l11.38 16.13 4.43-5.7-6.84-12.64-8.97 2.21z" class="x"/><path d="M319.92 250.1c-2.26-.75-4.71-.38-6.39.06.35-.54 1.17-.88 1.17-.88-1.08.06-3.22 1.58-3.22 1.58-15.8-2.7-13.75 19.34-12.43 24.3 1.32 4.95-3.58 7.64-10.41 13.12-13.03 10.47-12.28 20.82-12.28 20.82.13.04.26.1.41.16.47-1.37 1.5-3.97 2.68-4.56-.03.12-.84 3.46-1.03 5.31 4.95 2.4 14.44 8.02 21.07 12.02-.23-1-.47-2.43-.26-3.26l1.53 4.03 6.01 3.66c-1.19-3.97 13.19-29.12 21.65-37.48 1.67-3.98 1.27-10.32 1.24-10.82.57 4.98.29 7.89-.15 9.59 6.73-9.26-3.6-35.68-9.59-37.65" class="AM"/><path d="M326.17 290.65c.05.02-4.8 2.54-8.45 1.54-3.44-.94-5.68-5.39-5.63-5.4 1.45-.29 1.87-2.29 1.84-10.87l.66.13 11.05 2.19s-.25 3.47-.26 6.75c0 2.75.16 5.36.79 5.66z" class="x"/><path d="M308.44 256.09s4.2-6.77 12-2.72c0 0-4.04.11-12 2.72z" fill="#5fabb7"/><path d="M325.64 278.24l-.26 6.75c-6.18-.17-9.45-5.81-10.79-8.94l11.05 2.19" class="AR"/><path d="M312.31 276.44s-4.19-4.39-5.81-8.52c-1.17-2.96-1.9-14.63 9.85-15.3 0 0 3.38-.34 6.92 1.14 2.82 1.17 7.13 4.06 5.12 14.78l-.36 3.56-15.72 4.34" class="AM"/><path d="M375.57 467.82l-5.35.69-1.49.07c-1.16 0-3.25-.44-4.66-.77l-.11-.02-1.26-.31-.07-.02s-14.65-16.31-22.87-42.45a49.88 49.88 0 00-.61-1.85c-4.49-13.11-13.82-29.57-18.73-44.47l-2.11-6.72c-.21-.67-.4-1.34-.59-1.99-3.62-12.58-4.67-20.84-5.63-29.67l29.54 7.52s12.4 53.76 33.94 119.99" class="AN"/><path d="M327.58 279.98s-14.3 3.13-16.11-5.8-4.88-14.55 4.17-16.92c9.06-2.38 11.53.67 12.86 3.51 1.33 2.83 2.75 18.17-.92 19.21" class="x"/><g class="AM"><path d="M322.13 255.72s-1.81 11.28-7.53 14.04c-5.71 2.77-8.65 1.68-8.65 1.68s3.88-4.6 3.55-11.21c0 0 8.66-8.9 12.63-4.51"/><path d="M321.33 256.77s3.41 1.75 4.58 3.88 2.44 6.75 3.77 6.32c0 0 1.53-7.73-2.61-11.09-4.39-3.56-5.74.89-5.74.89z"/></g><path d="M314.24 476.26s.48 3.33-.77 6.9c0 0-.98 4.47 3.42 4.55s5.48-.33 4.98-3.07l-1.44-7.48-6.19-.9" class="x"/><path d="M313.47 483.16s-.81 4.22-.31 6.46c0 0 1.33.99 4.52.99 3.03 0 4.61-.99 4.61-.99s.09-4.62-.72-6.57c0 0-3.12 4.67-8.1.11z" fill="#c45446"/><path d="M387.24 485.08s-8.11-9-10.61-13.58l-6.02 3.09 13.48 12.66 3.15-.41v-1.76" class="x"/><path d="M392.39 490.36s-8.72 0-10.21-.16c-1.5-.17-2.7-2.33-4.32-5.56-.66-1.33-2.15-2.06-3.67-2.46v7.5h-2.3l-2.18-7.97c-1.44-2.64-.12-5.03.9-7.12 1.17 0 4.33.8 10.32 7.55 1.97 2.22 4.15 3.01 6.31 2.94.03.03.06.04.09.05 4.97 2.24 5.06 5.23 5.06 5.23" fill="#c45446"/><path d="M370.22 468.51l-1.49.07c-1.16 0-3.25-.44-4.66-.77l-.11-.02-1.26-.31-.07-.02s-14.65-16.31-22.87-42.45a49.88 49.88 0 00-.61-1.85c-4.49-13.11-13.82-29.57-18.73-44.47l-2.11-6.72c-.21-.67-.4-1.34-.59-1.99l5.22-3.97s15.69 25.4 20.55 49.3c4.02 19.81 21.35 45.49 26.73 53.2" fill="#912f2f"/><path d="M323.49 417.54c.09 11.62-.5 38.34-2.01 49.4 0 0-1.44 1.27-5 1.29-3.64.01-5.27-1.33-5.27-1.33-3.8-19.24-6.5-35.15-8.47-48.87l-4.15-29.21c-.98-7.35-1.7-13.66-2.04-19.1l-.12-2.17-.09-2.71-.02-2.58.13-.01 7.34-.72 23.19-2.26c-.39 20.37-3.54 51.51-3.49 58.27z" class="AN"/><path d="M316.48 468.23c-3.1.18-5.27-1.33-5.27-1.33-3.8-19.24-6.5-35.15-8.47-48.87l-4.15-29.21c-.98-7.35-1.7-13.66-2.04-19.1l-.1-7.47-.13-5.5 7.47 4.78 7.86 5.03s-11.15 10.14-8.41 29.31 9.43 69.64 13.24 72.36z" fill="#912f2f"/><g fill="#bc3f3f"><path d="M322.56 286.42s11.91-1.89 15.91 2.09c4.91 4.87 14.11 32.83 13.74 36.02-.14 1.22-4.97.65-6.63-1.09-8.27-8.66-20.12-30.53-23.02-37.02z"/><path d="M345.7 364.48c-8.89 2.31-50.4 6.87-50.76-3.52-.09-2.54 0-5.6.2-8.92.62-10.27 2.31-22.96 3.11-29.94.37-3.2-.86-17.53.09-25.35.14-1.15.32-2.17.57-2.98 1.79-5.9 9.85-7.5 13.99-7.64l12.48-.42s12.88 14.39 14.67 18.81c1.8 4.43 2.38 19.56 3.78 26.89 1.39 7.34 6.2 31.94 1.87 33.07"/></g><path d="M321.19 329.34s-6.94 21.31-26.05 22.7c.62-10.27 2.31-22.96 3.11-29.94.37-3.2-.86-17.53.09-25.35.25.06.47.2.73.25 21.05 4.06 24.03 27.9 22.12 32.34" class="AN"/><path d="M351.61 325.05s-12.53 4.11-27.79-2.48c0 0-4.16-.39-6.22.13 0 0 .44-4.12 2.46-5.24s10.7 1.3 13.29.95c5.67-.78 15.55-1.39 18.26 6.64" class="AR"/><path d="M340.45 315.46s1.17-10.18-2.81-16.31c0 0 1.41-.48 2.41 1.11 1.01 1.6 8.05 16.72 4.7 17.83s-4.3-2.63-4.3-2.63" class="AN"/><path d="M322.16 317.16c-.18 0-5.92.75-6.93 1.47-1.02.71-.12 3.22 1.79 3.46s5.14-4.93 5.14-4.93z" class="AR"/><g class="x"><path d="M306.48 321.02s16.34-.6 31.16-3.47c0 0 2.71.03 2.39 2.39-.32 2.37-25.69 15.61-31.27 13.06l-2.28-11.98"/><path d="M337.64 317.55s1.73-2.09 2.81-2.09c1.07 0 3.88 1.37 4.3 2.63.42 1.25-3.32.36-4.72 1.85-1.4 1.5-2.39-2.39-2.39-2.39z"/></g><path d="M312.9 286.13s-13.73.04-15.74 4.97c-3.67 9 8.42 38.87 11.6 41.9 1.37 1.3 7.72-.75 7.72-9.35 0-4.47-.32-30.53-3.58-37.52" fill="#bc3f3f"/><path d="M305.94 361.64s8.84 3.05 7.59 13.23c0 0-.81 4.13-3.36 2.3-2.54-1.84-1.35-1.5-4.98-4-3.63-2.51-6-6.45-5.59-9.59l6.34-1.94z" class="x"/><path d="M306.35 362.29l-5.24 6.35c-.24.3-.63.43-1 .36-4.91-.9-21.79-11.78-27.33-16.22-.6-.48-1.06-.88-1.36-1.19-2.06-2.1-9.18-12.47-14.22-21.7-2.91-5.32-5.13-10.26-5.31-13.03-.63-9.88 4.57-23.7 4.57-23.7 15.38 5.35 17 17.63 17 17.63l8.53 31.73 24.15 18.05a1.2 1.2 0 01.21 1.72" class="AE"/><path d="M272.78 352.78l-1.36-1.19c-2.06-2.1-9.18-12.47-14.22-21.7-.66-5.58-.21-10.81 2.09-14.47 0 0 13.08 23 13.49 37.36z" fill="#4a82d3"/><path d="M263.92 444.19l-2.61 10.91-1.62 6.74-5.38 22.46s-4.62 1.42-9.41 0c0 0-1.77-7.43-1.82-16.7-.03-4.85.42-10.2 1.83-15.26.58-2.05 1.32-4.06 2.25-5.96 7.6-15.52 16.76-2.19 16.76-2.19z" class="x"/><path d="M268.39 490.87h-25.31s-.4-3.83.71-7.5c.16-.54.36-1.08.6-1.61 0 0 5.65 1.29 10.53 0 0 0 4.58 3.9 7.35 5.1 2.76 1.2 5.83.55 6.12 4.01" class="AA"/><path d="M261.31 455.1l-1.62 6.74c-2.75 1.76-8.69 4.94-16.61 5.76-.03-4.85.42-10.2 1.83-15.26 2.33-1.17 4.7-1.79 6.72-1.44 5.02.88 8.01 2.71 9.68 4.2z" class="AL"/><path d="M255.24 490.87h-12.16s-.4-3.83.71-7.5c3.05.95 9.27 3.34 11.45 7.5z" fill="#1f396d"/><path d="M243.75 444.19l-2.62 10.91-1.62 6.74-5.38 22.46s-4.61 1.42-9.41 0c0 0-1.77-7.43-1.82-16.7-.03-4.85.42-10.2 1.83-15.26.58-2.05 1.32-4.06 2.25-5.96 7.6-15.52 16.77-2.19 16.77-2.19" class="x"/><path d="M224.21 481.76s5.65 1.29 10.53 0c0 0 4.58 3.9 7.35 5.1s5.83.55 6.12 4.01H222.9s-.53-5.05 1.31-9.11" class="AA"/><path d="M241.13 455.1l-1.62 6.74c-2.75 1.76-8.69 4.94-16.61 5.76-.03-4.85.42-10.2 1.83-15.26 2.33-1.17 4.7-1.79 6.72-1.44 5.02.88 8.01 2.71 9.68 4.2" class="AL"/><path d="M269.21 454.37a5.16 5.16 0 01-4.98 3.81h-40.59c-3.06 0-5.46-2.6-5.23-5.64.43-5.53 1.95-14.56 2.61-20.65.28-2.54.4-4.56.24-5.62-4.09-27.11-7.53-59.03-7.11-65.14l.1-1.3s2.95-.25 7.45-.42c13.07-.52 39.16-.43 43.5 8.12 4.41 8.71 7.08 66.51 7.08 66.51.64 5.4-1.64 15.01-3.07 20.33" class="AS"/><path d="M221.02 431.89c.28-2.54.4-4.56.24-5.62-4.09-27.11-7.53-59.03-7.11-65.14l.1-1.3s2.95-.25 7.45-.42c6.76 3.98 11.16 10.77 11.16 10.77s-1.36 50.72-11.84 61.71m20.08-178.96c0-3 1.88-5.56 5.12-4.75 2.92.73 5.77.7 5.77 3.71s-2.44 6.49-5.44 6.49a5.45 5.45 0 01-5.45-5.45" fill="#b2443b"/><path d="M244.55 279.37s-16.89-15.21-1.6-25.98c0 0 4.56-1.21 6.88-.78 0 0 8.31-2.43 13.18 3.21 4.86 5.65 6.97 9.73 2.81 14.77-4.17 5.04-21.27 8.78-21.27 8.78" class="AS"/><path d="M225.17 371.24s4.17 8.36-3.85 14.76c0 0-3.47 2.37-4-.71-.54-3.09.08-2.02-.76-6.35s.23-8.81 2.73-10.76l5.88 3.06m33.22-92.01l-.6 5.36-.69 4.91-.64 3.66-5.23 17.66-12.28-19.87s2.89-2.39 6.8-15.33l.06-.21 12.58 3.82" class="x"/><path d="M265.54 366.35c.16 1.99-.34 2.35-.34 2.35s-7.55 2.74-26.54 1.79l-5.8-.31c-12.24-.73-18.78-1.48-18.78-1.48s-10.02-23.13 8.81-51.64c2.13-3.22 4.62-6.51 7.55-9.84 3.05-3.48 3.72-8.13 4.87-12.56.33-1.26-.62-1.54-.14-2.74 0 0 3.43-.97 3.78-.97 1.95 1.72 4.53 5.06 10.91 5.72 4.32.45 6.01-1.98 6.62-3.44 1.65.59 3.36 1.62 4.75 2.29 11.57 5.56 12.64 16.33 12.64 16.33s-10.64 34.96-11.3 39.32c-.29 1.94 2.15 4.96 2.97 15.18" class="AE"/><path d="M257.79 284.59l-1.09 7.33c-13.01-5.07-11.3-14.95-10.95-16.3.04-.13.06-.21.06-.21s6.88 4.89 11.98 9.18z" class="AL"/><path d="M260.58 286.33s-15.02.49-15.18-8.87c-.15-9.36-2.19-15.6 7.39-16.3s11.5 2.84 12.31 5.95c.82 3.11-.62 18.86-4.52 19.22" class="x"/><g class="AS"><path d="M261.89 259.76s-.94 15.62-19.25 13.94c0 0 .39-21.63 19.25-13.94z"/><path d="M258.39 261.31s5.13 6.35 7.45 8.38c0 0 5.71-8.19-7.45-8.38z"/><path d="M258.39 261.31s4.61 7.79 6.93 9.81c0 0 6.23-9.62-6.93-9.81z"/></g><path d="M232.86 370.18c-12.24-.73-18.78-1.48-18.78-1.48s-10.02-23.13 8.81-51.64c3.81 8.89 12.8 32.64 9.97 53.12z" fill="#4a82d3"/><path d="M238.95 290.95s-14.52 2.98-21 10.48c-4.96 5.74-10.38 33.82-10.38 38.45 0 4.44 5.09 28.01 8.28 32.53.22.31.58.48.97.45l8.18-.88a1.19 1.19 0 001.06-1.37l-4.6-29.8 16.14-28.62s9.52-11.27 1.35-21.24" class="AE"/><path d="M301.28 482.8s1.23 2.4 3.96 2.99c1.72.38 3.19 1.27 4.11 2.53a1.61 1.61 0 01-1.29 2.55h-13.84a1.99 1.99 0 01-1.98-2.19l.25-3.14c.11-2 2.11-3.61 2.11-3.61l6.68.87" class="z"/><path d="M304.42 447.89c.58 10.53-.86 34.45-.86 34.45s-.96 2.67-7.06 3.3c-3.26.34-6.2-.5-6.2-.5l-3.42-16.22c-7.52-36.9-10.45-59.7-10.45-59.7l29.7-6.91-1.69 35.05c-.12 4.44-.15 8.23-.02 10.53z" class="AI"/><path d="M306.13 402.31l-1.69 35.05-17.56 31.56c-7.52-36.9-10.45-59.7-10.45-59.7l29.7-6.91z" class="z"/><path d="M276.27 354.59s-11.5-5.23-20.19-.66c-8.7 4.58-3.38 42.35 9.05 46.01s23.3 7.45 11.14-45.35z" class="AI"/><g class="AL"><path d="M309.51 411.12a1.43 1.43 0 00-.11-.15c-.48-.72-1.51-3.31-1.51-3.31l-1.87 2.44c-.04.05-.78-.52-.82-.46l.18 6.31 1.86-.43c.07-.03.15-.05.23-.09.22-.1.42-.27.56-.49l1.5-2.37c.29-.46.26-1.03-.02-1.45"/><path d="M300.94 348.72s3.66.01 5.85 5.16c4.53 10.66 2.56 33.67 2.29 36.97 0 0 1.55 6.54-.76 17.86l-3.01 1.79s-4.64-44.72-4.08-49.14c.57-4.42-.29-12.64-.29-12.64z"/></g><path d="M277.19 482.8s1.23 2.4 3.96 2.99c1.71.38 3.18 1.27 4.1 2.53a1.61 1.61 0 01-1.29 2.55h-13.84a1.99 1.99 0 01-1.98-2.19l.26-3.14c.1-2 2.1-3.61 2.1-3.61l6.69.87" class="z"/><path d="M286.82 306.54c-2.96 0-6.68 1.27-8.68 3.21-2.12 2.06-4.32 2.17-5.89 4.6-1.64 2.53-2.65 5.17-1.83 8.73.9 3.9.71 7.67 3.16 10.53 1.21 1.41 3.19 1.57 4.56 2.87 2.53 2.39 5.4 3.15 8.68 3.15 6.17 0 10.02-3.66 13.18-8.22 2.53-3.65 2.03-6.11 2.62-9.24 1.87-9.83-6.33-15.63-15.8-15.63" class="AI"/><path d="M295.51 346.18l-11.8 6.03-2.37-8.19s1.5-2.83 2.18-7.48a30.87 30.87 0 00.25-6.74l9.62 4.93s-.23.89-.38 2.2c-.17 1.42-.24 3.33.16 5.15.35 1.56 1.05 3.04 2.34 4.1" class="x"/><path d="M268.16 405.52s-2.24 29.75-1.74 77.15c0 0 2.71 1.43 5.97 1.76 6.1.6 7.58-1.82 7.58-1.82s6.24-23.14 7.8-33.56c1.43-9.61 10.87-44.3 10.87-44.3l-30.48.77" class="AI"/><path d="M303.32 347c-1.05-.49-4.35-1.81-9.3-2.62.05 1.69-.4 3.28-3.38 3.67-3.96.51-7.51-2.19-9.3-4.03s-2.79.3-6.05 1.01c-1.63.36-3.38.82-4.95 1.4-1.9.7-3.54 1.58-4.42 2.65-3.05 3.75-8.07 15.01-8.07 15.01s8.35 3.1 10.46 4.9l.05.41 1.3 10.85-3.89 21.61c-.03.19-.05.38-.05.57a3.19 3.19 0 002.44 3.09l.95.14c4.13.58 20.88 2.58 34.01-.99 2.95-.8 4.9-3.62 4.65-6.67l-2.14-26.86a61.8 61.8 0 013.53-.53c.9-.1 1.61-.13 1.91-.04 0 0-1.48-20.98-7.75-23.57" class="AB"/><path d="M278.53 386.87c-.16 7.54-5.1 16.4-9.42 18.79l-.95-.14a3.19 3.19 0 01-2.44-3.09c0-.19.02-.38.05-.57l3.89-21.61-1.3-10.85.09-.29s10.38 4.44 10.08 17.76m30.63-16.26l-3.53.53-1.24-11.26s4.13 7.93 4.77 10.73" class="AD"/><path d="M266.47 398l1.01-5.61c17.12-24.77 18.41-29.21 10.71-40.33-2.2-3.18-6.21-5.17-7.85-5.63 1.57-.58 3.32-1.04 4.95-1.4 1.62.77 3.12 1.52 4.28 2.52 23.49 20.34-13.1 50.45-13.1 50.45z" class="AI"/><g class="x"><path d="M276.56 374.51c.42-.04 2.27-.96 2.27-.96s.93-6.87 7.63-7.33c0 0 2.79.01 2.22 1.92-.58 1.9-.64 1.08-1.38 3.79-.75 2.7-2.7 4.76-4.77 4.88l-2.12.58s-4.97-2.8-3.85-2.88z"/><path d="M278.83 373.55s-11.25 1.02-12.91 1.76l2.53-6.2c-1.46-1.45-6.28-3.59-9.48-4.57-2.43 6.2-3.37 12.35-2 18.28.14.62.69 1.07 1.34 1.1 3.6.17 15.54.11 24.21-7.18l-3.69-3.19z"/></g><path d="M293.17 342.08c-5.47-.15-9.65-5.54-9.65-5.54l9.49.39c-.17 1.42-.24 3.33.16 5.15" class="AL"/><path d="M293.69 338.77s-12.08 1.48-12.34-7.04c-.26-8.51 4.78-14.03 8.14-13.96 6.7.12 7.81 2.83 8.59 5.65s1.18 14.75-4.39 15.35" class="x"/><path d="M290.46 333.87s.26 1.06 2.91.86c0 0 2.22-.16 2.14-1.33 0 0-2.17-.81-5.05.47" fill="#fff"/><path d="M292.48 317.85s-10.33-.01-7.95 7.08c1.49 4.47-3.48 5.16-3.48 5.16l-2.39-7.16 1.5-5.58 12.32.5" class="AI"/><g class="AC"><path d="M649.19 343.4c-11.38-2.89-23.88-20.54-23.88-20.54l3.2-2.77c3.32 3.91 17.1 10.64 17.1 10.64-.07-3.58.02-6.84.25-9.81 1.53-20.18 9.14-26.91 11.22-28.38.33-.24.52-.34.52-.34a13.28 13.28 0 00.02.42l.14 3.47c.42 12.35.93 49.73-8.57 47.31"/><path d="M628.51 320.09c-.05-.48-.37-7.41-1.75-8.73-1.37-1.32-4.09-3.12-4.87-2.98-.78.15-3.44 4.56-2.19 7.61 1.25 3.04 5.61 6.87 5.61 6.87l3.2-2.77"/></g><path d="M631.34 320.89l-7.49.32a.457.457 0 01-.47-.44l-.6-14.28a.45.45 0 01.43-.47l7.49-.31a.45.45 0 01.47.43l.6 14.28a.45.45 0 01-.43.47" fill="#f1a34f"/><path d="M629.39 320.97l-6.79.29a.797.797 0 01-.83-.77l-.57-13.58c-.02-.44.32-.82.76-.83l6.8-.29c.44-.02.81.33.83.77l.57 13.58c.01.44-.33.82-.77.83z" fill="#d86713"/><path d="M621.32 308.91s2.04-2.28 4.08-.53c2.05 1.74-.13 5.46-1.9 6.47-1.78 1.02-2.35 1.55-2.35 1.55l.17-7.49z" class="AC"/><path d="M673.95 460.74l-2.23 7.82-.5 1.54-.24.74-.49 1.43-.63 1.76-.45 1.24c-2.31 6.19-4.24 10.1-4.24 10.1l-4.6-.31s1.73-8.21 2.07-19.97c.02-.41.03-.84.04-1.27l.02-2.78v-1.18c-.09-10.13-1.34-22.09-5.35-33.52a218.16 218.16 0 01-7.31-25.83c-5.51-25.35-4.21-42-4.21-42l25.85 3.02 1.2.14.69 40.6.13 6.2.31 13.63c4.98 10.7 3.17 25.81-.06 38.64" class="AQ"/><path d="M666.55 269.75s6.12 5.2.51 11.2c0 0 4.67.45 6.25-.84 0 0-.31.63-.59.91 0 0 5.22.19 7.37-1.44 2.16-1.63.78-28.35-13.73-25.37 0 0-12.29-.92-11.14 13.3s-3.49 14.22-3.49 14.22 1.28.63 1.91.63c0 0 .91-.34 1.09-.85 0 0-.18.79-.41 1.04 0 0 5.01.48 7.51-1.41s5.43-8.46 4.72-11.39z" class="y"/><path d="M686.29 355.6c-4.89-10.95-7.22-14.05-7.31-17.5-.06-2.72 1.28-5.67 3.9-12.88a27.18 27.18 0 001.29-5.21c2.07-13.91-5.97-28.94-10.97-29.96-1.39-.37-3.75-5.39-3.72-13.48l-.62.12-10.53 2.08s.24 3.31.25 6.43c.01 2.6-.14 5.25-.73 5.56-.75.07-1.44.21-1.44.21s-8.91 6.25-9.48 14.73c-.77 11.33 7.22 24.77.13 47.41-7.23 23.13 41.93 8.55 39.23 2.49" class="AC"/><path d="M658.33 278.77l.25 6.43c5.89-.16 9-5.53 10.28-8.51l-10.53 2.08z" class="AQ"/><path d="M669.94 275.54s3.09-4.87 3.83-9.04c.53-2.98-.99-14.01-12.08-12.42 0 0-3.22.31-6.24 2.36-2.41 1.62-5.89 5.13-2 14.76l1.01 3.25 15.48 1.09" class="y"/><path d="M656.37 281.73s13.93.23 13.94-8.45 1.81-14.5-7.08-15.01c-8.9-.51-10.63 2.8-11.34 5.69-.71 2.9.85 17.48 4.48 17.77" class="AC"/><g class="y"><path d="M656.88 258.06s3.82 10.18 9.67 11.69c5.86 1.5 8.39-.07 8.39-.07s-4.49-3.56-5.42-9.79c0 0-9.76-6.68-12.64-1.83z"/><path d="M657.83 258.88s-2.85 2.28-3.55 4.49c-.69 2.21-1 6.76-2.33 6.6 0 0-2.88-6.92.35-10.83 3.43-4.16 5.53-.26 5.53-.26"/></g><path d="M704.41 367.24l-4.18 1.26s-13.8-22.9-15.06-28.85c-.41-1.94-1.41-5.82-2.58-10.17l-5.55-20.02-1.03-4.46-3.51-15.21s6.72.68 10.66 2.33c1.3.54 2.3 1.19 2.64 1.95 2.89 6.36 5.78 22.39 7.8 33.83 1.13 6.38 2 11.33 2.45 12.37 1.25 2.93 5.08 19.03 8.36 26.97" class="AC"/><path d="M657.3 259.23s2.71 10.66 10.1 14.07c0 0-7.39-6.55-8.01-13.58-.63-7.04-2.09-.49-2.09-.49" class="y"/><path d="M704.11 366.54s1.28 3 2.6 3.84c1.32.83 2.58 2.84 2.86 4.46.5 2.96-1.77 4.8-3.45 4.8-1.67 0-3.27-2.27-4.25-7.72-.06-.3-1.64-3.42-1.64-3.42l3.88-1.96m-15.33 91.98c-1.48 15.86-8.03 26.12-8.03 26.12l-2.24 2.03s-2.03-11.61-3.5-24.91c-1.4-12.64-3.32-26.01-5.49-30.1-3.25-6.09-5.64-18.57-7.36-31.75-2.85-21.81-3.86-45.55-3.86-45.55l26.21-1.3c2.64 4.43 3.79 11.7 4.06 19.97.29 8.69-.4 18.48-1.35 27.23-1.32 12.25-3.17 22.46-3.6 24.75-.06.32.03.62.17.89 5.22 10.33 5.97 22.13 4.99 32.62" class="AC"/><path d="M658.19 319.18c-.59 14.4-2.74 28.66-9.01 27.74-7.68-1.12-9.69-8.29-10.09-13.63-.26-3.31.11-5.92.11-5.92s3.78-.02 4.39-.58c2.91-2.68 2.04-29 3.48-31.73s10.77-4.48 10.77-4.48.94 14.37.35 28.6" class="AK"/><path d="M658.19 319.18c-.59 14.4-2.74 28.66-9.01 27.74-7.68-1.12-9.69-8.29-10.09-13.63 1.88-.09 5.2-.55 6.52-2.56 1.89-2.88 7.79-21.43 7.79-21.43s2.32 4.16 4.79 9.88" class="AH"/><path d="M673.95 460.74l-2.23 7.82-.5 1.54-.24.74-.49 1.43-.63 1.76-.45 1.24c-2.31 6.19-4.24 10.1-4.24 10.1l-4.6-.31s1.73-8.21 2.07-19.97c.02-.41.03-.84.04-1.27l.02-2.78v-1.18c-.09-10.13-1.34-22.09-5.35-33.52a218.16 218.16 0 01-7.31-25.83c2.73.56 5.13-.01 12.12-.6.73-.06 4.24 4.28 7.7 10.03.18 8.09 4.15 12.16 4.15 12.16 4.98 10.7 3.17 25.81-.06 38.64" class="y"/><path d="M688.78 458.52c-1.48 15.86-8.03 26.12-8.03 26.12l-2.24 2.03s-2.03-11.61-3.5-24.91c-1.4-12.64-3.32-26.01-5.49-30.1-3.25-6.09-5.64-18.57-7.36-31.75 2.41 1.01 10.62 3.61 25.06.35-1.32 12.25-3.17 22.46-3.6 24.75-.06.32.03.62.17.89 5.22 10.33 5.97 22.13 4.99 32.62" class="AA"/><path d="M650.04 338.74s15.42 3.87 28.94-.64c0 0 7.43 15.77 9.47 22.53 2.05 6.75 5.35 20.7 5.35 20.7s-27.46 8.48-50.04 0c0 0-1.03-18.58 1.93-28.27l4.35-14.32z" class="y"/><path d="M705.93 345.96c0 3.62-3.69 5.84-7.65 6.92-3.81 1.04-7.86 1.03-9.13.18-2.19-1.47-5.75-17.77-6.79-22.73l-.3-1.43s-2.84 6.79-2.93 7.42c-.04.28-.07.67-.1 1.02l-.05.76s-15.43 7.79-28.94.64c0 0-5.5-31.74-3.11-37.21 1.18-2.71 7.36-8.31 9.84-10.73.55-.54.5-1.62.28-2.6a1.14 1.14 0 011.39-1.35c1.6.41 4.46.34 7.52-.66 1.53-.5 3.1-1.23 4.6-2.25.43-.3 1.02-.02 1.08.5.24 1.89.81 5.35 1.85 5.35 1.44-.01 11.26 1.19 11.97 2.41.26.42 2.8 6.19 6.03 13.84 6.05 14.36 14.44 35.29 14.44 39.92" class="AK"/><g class="AH"><path d="M682.06 328.9l-2.93 7.42-.1 1.02c-1.38 1.12-3.04 1.97-4.73 2.49-4.81 1.46-6.9-7.77-6.62-12.37.29-4.6 7.1-17.73 9.36-18s5.02 19.44 5.02 19.44M682.36 330.33l-.3-1.43c.15.49.25.96.3 1.43z"/></g><path d="M662.49 341.68c-8.78 0-12.27-2.47-12.53-2.67l-.57-4.14c.08.06 11.87 7.14 30.1.36l-.38 3.14c-7.02 2.6-12.06 3.31-16.62 3.31z" class="AF"/><path d="M705.93 345.96c0 3.62-3.69 5.84-7.65 6.92 5.46-6.5-6.48-45.82-6.79-46.82 6.05 14.34 14.44 35.27 14.44 39.9m-32.44-56.17s-7.34 4.65-12.9 3.55c0 0-1.34-.84.51-1.69 1.72-.8 5.74-3.15 4.86-5.46 1.53-.5 3.1-1.23 4.6-2.25.43-.3 1.02-.02 1.08.5.24 1.89.81 5.35 1.85 5.35" class="AH"/><path d="M667.81 489.23h-2.93l-2.71-.58c-1.53-.2-2.24.43-2.38.58-.02.01-.03.03-.03.03H647.3c-.31-.45-.01-1.49.28-2.25.2-.52.63-.91 1.17-1.07 1.32-.38 3.93-.72 6.31-2.88 1.35-1.21 6.48-4.46 6.48-4.46l.03-.01c.12.01.65.17 2.99 2.15 1.21 1.01 3.27-1.44 3.27-1.44s.38.32.67.91c.23.47.4 1.12.27 1.92-.19 1.12.41 3.2.89 4.62l.54 1.46s.14.7-2.39 1.02" class="y"/><path d="M668.5 480.21c-.7.5-2.18 1.47-3.16 1.6-1.32.17-3.8-3.21-3.8-3.21l.03-.01c.12.01.65.17 2.99 2.15 1.21 1.01 3.27-1.44 3.27-1.44s.38.32.67.91m-.69 9.02h-2.93l-2.71-.58c-1.53-.2-2.24.43-2.38.58-.02.01-.03.03-.03.03H647.3c-.31-.45-.01-1.49.28-2.25.38-.34.49 1.46.7 1.75.21.28 10.16.1 10.74-.32.57-.41 2.3-1.15 4.7-.57 2.1.5 5.18-.78 5.94-1.12.29.85.54 1.46.54 1.46s.14.7-2.39 1.02" fill="#466aa5"/><path d="M683.47 489.23h-2.94l-2.71-.58c-1.53-.2-2.24.43-2.38.58-.01.01-.02.03-.02.03h-12.46c-.32-.45-.02-1.49.28-2.25.2-.52.63-.91 1.17-1.07 1.32-.38 3.92-.72 6.31-2.88 1.34-1.21 6.48-4.46 6.48-4.46l.03-.01c.11.01.65.17 2.98 2.15 1.21 1.01 3.27-1.44 3.27-1.44s.39.32.68.91c.23.47.4 1.12.26 1.92-.18 1.12.42 3.2.9 4.62l.53 1.46s.14.7-2.38 1.02" class="y"/><path d="M684.16 480.21c-.71.5-2.18 1.47-3.16 1.6-1.33.17-3.8-3.21-3.8-3.21l.03-.01c.11.01.65.17 2.98 2.15 1.21 1.01 3.27-1.44 3.27-1.44s.39.32.68.91m-.69 9.02h-2.94l-2.71-.58c-1.53-.2-2.24.43-2.38.58-.01.01-.02.03-.02.03h-12.46c-.32-.45-.02-1.49.28-2.25.38-.34.48 1.46.69 1.75.21.28 10.17.1 10.74-.32.58-.41 2.3-1.15 4.71-.57 2.09.5 5.17-.78 5.94-1.12a37.43 37.43 0 00.53 1.46s.14.7-2.38 1.02z" fill="#466aa5"/><path d="M803.38 428.79c-1.77 4.52-10.82 13.83-20.16 22.62-11.15 10.5-22.69 20.26-22.69 20.26s-5.28 1.61-2.98-6.15c0 0 12.73-23.38 18.2-30.28 1.55-1.97 3.17-3.77 4.68-5.34 3.78-3.92 6.91-6.37 6.91-6.37s-.72-1.15-1.88-3.14c-5.68-9.73-21.98-39.51-16.95-52.73 6.07-15.93 21.13-23.1 21.13-23.1s4.78 20.15 8.82 40.87c3.7 19.07 6.78 38.6 4.92 43.36" class="AB"/><path d="M798.46 385.43c-2.78 12.76-7.59 30.81-13 34.96-5.68-9.73-21.98-39.51-16.95-52.73 6.07-15.93 21.13-23.1 21.13-23.1s4.78 20.15 8.82 40.87m-15.24 65.98c-11.15 10.5-22.69 20.26-22.69 20.26s-5.28 1.61-2.98-6.15c0 0 12.73-23.38 18.2-30.28 1.55-1.97 3.17-3.77 4.68-5.34-.18 5.97-.01 16.09 2.79 21.51" class="AD"/><path d="M796.28 374.63s-13.2-33.14-12.51-34.09c.44-.6 1.27-18.68 1.85-32.27l.59-14.87s5.86 2.09 7.26 16.32a127.81 127.81 0 01.52 7.74c.4 10.1-.34 17.22 1.17 20.58 1.87 4.17 1.2 23.2 1.77 25.12.57 1.91 3.55 6.7-.65 11.47" class="x"/><path d="M785.84 352.55l-1.05-3.88c-7.42 3.2-29.21-1.49-29.21-1.49s-6.5 7.7-3.15 23.31c1.63 7.62 7.4 40.18 9.77 49.72l1.78 6.88c.09.31.03.61-.09.9-1 2.49-1.76 5.03-2.31 7.61-5.39 25.26 9.38 53.16 9.38 53.16l2.52-1.48s.99-33.67 3.61-48.86c.44-2.58.93-4.63 1.47-5.89 1.58-3.67 2.69-9.45 3.47-16.25 1.46-12.84 1.73-29.31 1.64-41.98.25-.02 2.17-21.75 2.17-21.75" class="AB"/><path d="M752.39 356.67c-3.01-4.56 7.33-23.2 6.96-24.95-.72-3.46-2.43-7.3-4.09-10.75-1.67-3.45-3.31-6.51-3.89-8.43l1.55-2.11c.74-1.02 1.39-1.95 1.8-2.82.46-.96.65-1.84.43-2.7a13.79 13.79 0 00-.67-1.93c-.13-.3-.27-.6-.42-.89-1.54-3.08-3.84-5.59-3.84-5.59 3.64-2.33 9.38-3.52 9.43-3.35.43-.14.81-.24 1.11-.32.21-.05.43-.11.64-.15a30.19 30.19 0 012.08-.44c1.3-1.31 2.87-6.17 2.4-13.33l.63.08 10.6 1.43s-.03 3.32.15 6.42c.15 2.43.43 4.73.96 5.24l1.31.11c.01.02.02.03.03.03l1.65.16a.55.55 0 00.12.01 42.29 42.29 0 012.33.34c.05.01.09.02.13.02 1.81.34 2.42.65 2.42.65v.03c-.08 3.34 5.31 9.19 4.93 16.75-.01.28-2.75 20.09-2.74 20.39.22 5.64 2.98 21.53 2.98 21.53 2.53 4.91-37.37 9.26-38.99 4.57" class="x"/><path d="M762.2 253.44c-.19-.55-2.5-6.4-11.71-3.84 0 0 4.64-.87 6.04.85 0 0-3.82-1.47-6.05.09-2.24 1.57-2.33 6.38-1.89 7.81.43 1.44 3.27 5.62 4.96 5.52.65-.04 1.32-.3 1.92-.6-.22.79-.4 1.64-.54 2.57-1.28 8.6 4.76 14.72 7.59 12.94 1.81-1.14 3.43 2.06 3.43 2.06l14.29-21.57s-11.64-12.35-18.04-5.83" class="z"/><path d="M777.12 280.43l.15 6.42c-5.88.19-9.31-4.97-10.76-7.86l10.61 1.44" class="AJ"/><path d="M779.26 283.25s-13.86 1.08-14.4-7.56c-.55-8.64-2.7-14.33 6.13-15.38 8.83-1.06 10.75 2.13 11.64 4.97.88 2.85.22 17.46-3.37 17.97z" class="x"/><path d="M781.92 260.51c-2.3-2.47-3.89-1.8-4.75-.97-7.84-3.7-12.35 2.76-12.35 2.76-.55 6.26-4.8 10.09-4.8 10.09s2.62 1.4 8.36-.45c1.76-.57 3.27-1.93 4.53-3.55-2.12 4.1-5.16 7.15-5.16 7.15 6.77-3.65 8.97-13.51 9.19-14.55.89.71 2.66 2.26 3.27 3.85.83 2.16 1.42 6.67 2.72 6.43 0 0 2.44-7.06-1.01-10.76" class="z"/><path d="M787.52 489.56h-21.51s-.8-3.43.61-5.76c1.25-2.07.48-3.47-.06-5.23.97.4 2.14 1.04 3.53.96 1.07-.06 2.75-.85 3.74-1.43.93 1.06 4.34 5.85 5.58 6.74 1.41 1.01 7.68.65 8.11 4.72zm-31.97-.5l-8.1-19.93s2.88-2.04 5.57-1.61c2.39.39 3.3-.5 4.53-2 0 1.05.14 2.35.73 3.61.47.97 1.34 1.84 2.25 2.54l-3.66 8.1c-.41 1.68 2.29 7.35-1.32 9.29" class="y"/><path d="M788.4 330.57c-.01-.17.84-6.39 1.6-11.92 1.66-.19 3.68-.58 5.42-1.39-.09-2.42-1.7-23.05-10.38-24.22-.41-.11-.84-.2-1.25-.29-.04 0-.08-.01-.13-.02a26.95 26.95 0 00-2.33-.33c-.08-.01-.12-.02-.12-.02s2.58 7.35 2.54 8.21c-.05.86-8.37 1.15-13.83 1.22-5.42.07-8.47-8.99-8.52-9.13l-.64.15c-.3.08-7.55 1.18-10.54 3.67 0 0 2.31 2.51 3.84 5.59.15.29.29.59.42.89a13.79 13.79 0 01.67 1.93c.22.86.03 1.75-.43 2.7-.41.87-1.06 1.81-1.8 2.82l-1.55 2.11c.2.66.52 1.46.93 2.36.78 1.72 1.86 3.81 2.96 6.07 1.66 3.45 3.37 7.29 4.09 10.75.37 1.76-9.97 20.39-6.96 24.95.48 1.39 4.3 1.98 9.39 2.01 12.11.06 31.38-3.12 29.6-6.58 0 0-2.76-15.89-2.98-21.53" class="AA"/><path d="M761.78 358.68c-5.09-.03-8.91-.62-9.39-2.01-3.01-4.56 7.33-23.19 6.96-24.95-.72-3.46-2.43-7.3-4.09-10.75l-2.96-6.07.68-2.67s11 12.79 13.53 18.83c1.98 4.74-2.64 20.87-4.73 27.62" class="y"/><path d="M756.55 350l-2.18 3.78c-14-5.55-22.91-18.04-22.91-18.04-.49-7.09 2.82-15.24 6.8-22.27.66-1.17 1.33-2.3 2.02-3.39 2.81 2.4 6.73 5.54 10.47 7.83l-2.03 3.35-7.63 12.18c-.86.87 15.46 16.56 15.46 16.56z" class="x"/><path d="M749.3 322.79c-6.89-.45-11.97-9.41-11.97-9.41 5.38-9.51 12.89-16.88 12.89-16.88 19.1 7.29 2.19 24.24-.92 26.29z" class="AA"/><path d="M756.54 350s1.18-.17 1.95-.84 3.21-2.56 3.35-1.98c.15.59-1.77 1.5-.76 1.65 1 .14 2.59-.53 4.17-.29s4.01 3.88 3.26 4.31c-.75.44-3.48-1-4.2-.5s-5.85 3.31-9.94 1.43c-4.1-1.88 2.17-3.78 2.17-3.78z" class="x"/><path d="M545.36 268.15s-9.96-.5-10.24-6.25-8.51-9.94-6.13-14.56c2.93-5.66.26-11.1 3.95-14.91 4.07-4.2 9.2-1.92 11.92-4.36 2.71-2.45 7.67-4.7 12.55-1.68 4.89 3.02 8.62 1.39 11.84 4.3 3.55 3.22 2.2 7.26 5.13 9.45 2.69 2.02 1.59 7.52-.67 11.99-1.63 3.22 2.13 6.23-4.32 9.94-2.68 1.54-2.1 5.41-10.25 6.08-3.67.3-11.63-1.41-13.78 0" class="z"/><g class="y"><path d="M526.35 489.56s0-4.03.57-5.38l2.69-6.8h8.24s1.53 4.98 1.63 6.61 0 5.57 0 5.57h-13.13"/><use xlink:href="#E" x="115.91"/></g><path d="M545.66 263.05s-.29 8.99-1.44 13.02l-9.1 6.35 34.27 5.12-8.18-11.29s-2.46-12.05-1.17-16.51c1.3-4.45-14.38 3.31-14.38 3.31" class="AG"/><path d="M545.61 264.29s2.71 6.53 7.82 6.38c5.1-.14 6.26-5.91 6.26-5.91l-14.08-.47z" fill="#99592e"/><path d="M552.84 268.15c-3.69-.06-10.51-4.99-10.51-11.09v-9.51c0-2.23 1.56-4.05 3.46-4.05h14.11c1.9 0 3.45 1.82 3.45 4.05v8.98c0 6.39-6.26 11.7-10.51 11.62" class="AG"/><g class="AK"><path d="M527.38 349.8s1.44 44.04-.71 69.17c-2.16 25.13.01 60.1.01 60.1s6.9 3.8 14.38 0c0 0 8.2-48.54 8.14-60.1-.05-12.3 8.93-67.25 8.93-67.25l-30.75-1.92"/><path d="M578.39 479.07s-6.89 3.81-14.37 0c0 0-8.2-48.54-8.15-60.1.03-5.2-1.56-18-3.41-31.06l-5.52-36.19 31.95-1.99s-2.64 44.12-.48 69.24c2.16 25.13-.02 60.1-.02 60.1"/></g><path d="M572.87 278.38v.02a91.502 91.502 0 00-11.66-2.15c-3.18 4.23-5.46 5.21-8.36 6.36-4.68-.65-8.63-6.41-8.63-6.54-5.09.52-8.53 1.45-9.93 1.89-.28.03-15.23 2-36.39 45.08 0 0 1.14 3.96 6.69 10.88 3.94 4.92 10.13 11.33 19.72 18.86 0 0 .91-1.93 1.74-5.06 0 0-5.71-11.1-9.14-18.61-1.67-3.66-2.8-6.47-2.47-6.74.61-.51 7.51-6.5 12.61-10.92-.05 1.1-.06 2.11-.03 2.98.28 9.62.66 18.97-.58 29.33-1.63 13.61 1.13 13.37 1.13 13.37s3.72.73 8.9 1.41c4.69.63 10.58 1.23 15.99 1.23 12.43 0 26.04-2.64 26.04-2.64 3.93.05-1.09-24.39-1.83-39.09l-.47-9.38 15.82 13.71c.32.27-.81 3.08-2.48 6.74-3.44 7.51-9.14 18.61-9.14 18.61.83 3.13 1.73 5.06 1.73 5.06 9.6-7.53 15.78-13.94 19.73-18.86 5.55-6.92 6.69-10.88 6.69-10.88-21.36-43.48-35.68-44.66-35.68-44.66" class="AF"/><use xlink:href="#H" x="171.98" class="AO"/><path d="M555.87 418.97c.03-5.2-1.56-18-3.41-31.06 1.92-7.79 6.57-15.3 6.57-15.3 5.9 16.54-3.16 46.36-3.16 46.36z" class="AH"/><g class="AG"><path d="M524.91 348.27s5.18-4.8 7.29-2.11c2.1 2.68 2.48 6.9.86 6.61-1.63-.29-4.99-1.82-5.47-1.05-.48.76-2.62 2.23-3.28 1.06-.65-1.16.6-4.51.6-4.51z"/><path d="M526.05 347.72c-.83 3.13-1.74 5.06-1.74 5.06-9.59-7.53-15.78-13.94-19.72-18.86 2.97-.22 7.32-1.29 12.32-4.81 3.43 7.51 9.14 18.61 9.14 18.61m55.49.55s-5.18-4.8-7.29-2.11c-2.1 2.68-2.49 6.9-.86 6.61s4.99-1.82 5.47-1.05c.48.76 2.62 2.23 3.27 1.06.66-1.16-.59-4.51-.59-4.51z"/><use xlink:href="#F" x="115.91"/></g><g class="AO"><use xlink:href="#I" x="171.98"/><use xlink:href="#G" x="115.91"/></g><g class="z"><path d="M542.33 251.41s2.57-7.84 10.99-6.62c8.41 1.23 9.13 3.02 10.03 5.11.89 2.08 2.62-7.62 2.62-7.62l-9.92-2.95s-12.01 1.36-12.87 3.38l-.87 2.01.02 6.69"/><path d="M547.7 257.25c-1.45 0-4.36-.32-4.87-2.84-.15-.77-.01-1.45.42-1.97.47-.57 1.24-.9 2.12-.9h4.47c.85 0 1.44.24 1.76.73.54.8.13 2.02-.08 2.51-.69 1.66-1.65 2.43-3.01 2.44l-.81.03zm-2.33-5.42c-.79 0-1.48.29-1.89.8-.37.45-.5 1.05-.36 1.72.26 1.29 1.23 2.12 2.89 2.46 1.26.25 2.46.12 2.48.11h.01c1.23 0 2.11-.72 2.75-2.25.15-.35.58-1.53.1-2.24-.26-.4-.77-.6-1.51-.6h-4.47zm12.62 5.42c-.44 0-.75-.03-.81-.03-1.36-.01-2.32-.78-3.01-2.44-.2-.49-.62-1.71-.08-2.51.32-.49.91-.73 1.76-.73h4.47c.88 0 1.65.33 2.12.9.43.52.57 1.2.42 1.97-.51 2.52-3.41 2.84-4.87 2.84zm-2.14-5.42c-.74 0-1.25.2-1.52.6-.47.71-.03 1.89.11 2.24.65 1.53 1.52 2.25 2.74 2.25h.02c.02.01 1.22.14 2.48-.11 1.66-.34 2.63-1.17 2.89-2.46.14-.67.01-1.27-.35-1.72-.42-.51-1.11-.8-1.9-.8h-4.47z" class="AT"/><path d="M551.24 253.61c-.06 0-.13-.04-.15-.11-.05-.09-.01-.19.08-.23.08-.03 1.83-.82 3.38 0 .09.05.12.16.07.24-.04.09-.15.12-.24.07-1.4-.74-3.04 0-3.06.01-.03.01-.05.02-.08.02"/></g><g fill="#f4a671"><path d="M522.9 355.13l-4.09.76s-11.18-17.24-11.5-22.49c-.31-5.02-10.38-26.98 1.41-40.69.53-.62 1.11-1.22 1.74-1.81l.06-.06a.37.37 0 00.06.09c.24.4 1.18 2.1 2.28 5.84 1.72 5.85 3.84 16.71 4.35 35.46 0 0 2.74 16.06 5.69 22.9"/><path d="M522.9 355.13s4.37 4.94 4.51 6.94c.13 2-1.6 4.52-3.54 4.95-1.95.43-.74-2.65-1.03-3.9-.29-1.23-1.56-3.12-1.48-2.55.07.56.85 2.76.61 3.12-.24.35-.87.4-1.11-.77-.24-1.18-2.19-2.56-1.81-3.82.38-1.27.07-2.24-.46-3.94-.53-1.69-1.42-3.72-1.42-3.72l3.15-.68 2.58 4.37"/></g><path d="M493.35 265.94s-.1 2.08 1.15 2.49-1.29 4.9-1.09 7.94 1.55 4.26 1.55 4.26-.65-1.67-.29-2.71c0 0-.06 2.15 1.51 3.24 1.57 1.08 1.15 2.02 1.15 2.02s3.55-1.06 3.65-3.72c0 0 .15 1.2.03 1.7 0 0 3.06-2.3 3.21-4.95.14-2.65-2.42-4.89-3.58-4.93-1.17-.04-3.76-2.32-3.69-3.19s-3.6-2.15-3.6-2.15" class="z"/><path d="M503.15 251.05c-2.07-3.14-10.26-1.38-18.31 3.91-8.04 5.3-12.89 12.13-10.82 15.27 2.06 3.13 10.26 1.38 18.3-3.92 8.05-5.29 12.89-12.13 10.83-15.26z" fill="#e2af64"/><path d="M520.84 482.28l-4.34 1.61s-18.84-26.13-21.16-49.12c-.41-4.1-.27-8.08.62-11.75l-.5-2.91-.55-3.11-2.42-13.78-7.32-40.49 1.17-.38 12.65-4.08 2.61-8.3 9.42-2.48s2.11 4.12 3.99 23.56c.34 2.55.66 5.36.9 8.41.73 9.3.78 20.85-.9 34.05-.43 3.37-.98 6.86-1.66 10.45-.49 2.62-.56 6.2-.35 10.32.94 18.79 7.84 48 7.84 48" class="AA"/><path d="M515.91 379.46l-20.45 40.65-.55-3.11-2.42-13.78-7.32-40.49 1.17-.38 12.65-4.08 2.61-8.3 11.25-3.34s.28 4.98 2.16 24.42l.9 8.41" class="y"/><path d="M498.62 251.4l-14.46 21.94s-1.65-3.24-3.49-2.08c-2.86 1.81-9.02-4.38-7.74-13.13.09-.57.19-1.11.3-1.63l8.39-12.04c6.64-4.01 17 6.94 17 6.94z" class="z"/><path d="M504.97 295.72c-2.02 1.85-4.65 3.51-8.05 4.8-12.77 4.84-19.34-5.61-22.28-13 1.66-1.28 3.32-1.73 4.28-1.98a42.7 42.7 0 012.75-.61c1.33-1.33 2.91-6.28 2.42-13.55l.64.09 10.78 1.43s-.03 3.36.16 6.52c.15 2.46.44 4.8.98 5.31l1.34.11c.17.22 3.86 4.77 6.98 10.88" class="x"/><path d="M495.51 272.9l.16 6.52c-5.97.21-9.46-5.02-10.94-7.95l10.78 1.43" class="AJ"/><path d="M497.69 275.76s-14.08 1.13-14.65-7.65-2.77-14.54 6.2-15.63c8.96-1.09 10.92 2.14 11.83 5.02.9 2.89.26 17.74-3.38 18.26" class="x"/><path d="M500.34 252.65c-2.35-2.5-3.96-1.82-4.83-.97-7.97-3.74-12.54 2.84-12.54 2.84-.54 6.35-4.85 10.25-4.85 10.25s2.67 1.43 8.49-.47c1.78-.59 3.31-1.97 4.59-3.62-2.14 4.17-5.22 7.27-5.22 7.27 6.87-3.72 9.08-13.73 9.29-14.79.91.72 2.72 2.28 3.34 3.9.85 2.19 1.45 6.77 2.78 6.53 0 0 2.46-7.19-1.05-10.94" class="z"/><path d="M534.42 489.56h-21.85s-.82-3.49.62-5.85c1.27-2.1.78-3.3-.16-5.03.99.4 2.27.77 3.68.69 1.09-.06 2.24-.56 3.25-1.14l6.23 6.54c1.42 1.02 7.79.66 8.23 4.79z" class="y"/><path d="M472.63 262.45s-6.54-13.03 2.61-18.18c9.14-5.15 15.84-3.13 20.87 3.17l-23.48 15.01" fill="#edbd77"/><path d="M514.3 298.01c-1.75-8.76-7.18-11.27-7.18-11.27s-.9-1.37-5.95-1.58c-.78-.04-1.64-.2-2.6-.28-.18-.01-.38-.02-.58-.04.2.31 5.29 8.13 5 10.23-.29 2.14-18.81 1.41-20.15.33-1.07-.87-2.94-6.68-3.64-8.95l-.28-.91s-6.46 1.12-9.5 3.64c0 0 2.32 2.56 3.87 5.69.15.3.29.6.43.91.27.64.5 1.3.67 1.96.22.87.02 1.77-.45 2.74-.42.88-1.08 1.83-1.84 2.86l-1.58 2.14 1.44 4.54c1.15 3.56 2.51 7.97 3.48 12.7a12.06 12.06 0 01-.12 5.38c-.17.7-.41 1.38-.71 2.04-.46 1.04-.57 2.46-1.09 3.8-2.11 5.48-4.56 12.63-2.11 16.37 1.63 4.77 39.44-6.82 36.9-11.83 0 0 1.51-26.26 2.55-34.39l.08-.88a12.16 12.16 0 00-.01-1.35c3.28-1.49 3.37-3.85 3.37-3.85" class="AB"/><path d="M509.49 246.01c-1.88-3.02-8.47-2.53-16.42.72-3.11 1.28-6.42 2.97-9.75 5.04-4.13 2.58-7.73 5.4-10.55 8.16-5.26 5.15-7.83 10.07-6.13 12.81 1.9 3.03 8.54 2.52 16.55-.78-.64-.71-1.56-1.31-2.52-.7-.99.63-2.36.3-3.69-.75-.98-.16-1.71-.56-2.1-1.19-.3-.48-.39-1.06-.3-1.71.41-3.05 4.72-7.78 10.92-11.65 4.77-2.97 9.5-4.71 12.76-4.92 1.9-.12 3.3.27 3.91 1.26.53.85.41 2.03-.24 3.4.36 1.43.35 2.95.21 4.27 6.08-5.55 9.19-11.02 7.35-13.96" fill="#ffcf83"/><path d="M488.21 330.93c-5.45 1.75-10.75 2.49-14.96 2.8.52-1.34.9-2.55 1.36-3.59.3-.66.54-1.34.71-2.04a12.06 12.06 0 00.12-5.38c-.97-4.73-3.55-12.82-4.69-16.38 3.05-6.82 6.21-3.1 6.21-3.1s9.23 4.14 13.16 11.78c3.93 7.63 2.79 14.4-1.91 15.91" class="AD"/><g class="AA"><path d="M476.42 286.06s8.79 5.62 11.04 17.46l2.66-.84s-1.03-8.46-11.2-17.14l-2.5.52m31.06 17.76l-2.78.19c.55-10.28-4.6-17.29-6.13-19.12a38.24 38.24 0 012.6.27c7.29 10.55 6.31 18.66 6.31 18.66"/><path d="M510.94 348.34l1.97-.85-1.94-29.43s-1.88-13.38-1.91-15.72-1.92-3.48-1.92-3.48l-17.77.95c-3.91.22-3.51 2.44-3.51 2.44l1.87 7.84c2.63 11.18-12.41 18.01-12.41 18.01s-2.44 6.31-4.34 12.36c-3.24 10.37-.34 25.24-.34 25.24.49 7.91 1.39 41.48 2.33 51.42l.76 7.18c.04.32-.07.62-.23.89a47.14 47.14 0 00-3.47 7.29c-9.22 24.57 1.42 54.83 1.42 54.83l2.76-1.12s6.06-33.67 10.98-48.54c.83-2.52 1.63-4.51 2.37-5.69 2.14-3.45 4.12-9.09 5.92-15.8 3.41-12.68 6.15-29.19 7.98-41.92.25.01 2.87-17.85 9.44-25.73.06-.07.07-.12.04-.17"/></g><path d="M487.35 302.49c-.19-.61.15-1.27.76-1.47a1.18 1.18 0 011.47.76c.2.62-.14 1.27-.76 1.47a1.18 1.18 0 01-1.47-.76z" class="AD"/><path d="M487.55 302.43a1.18 1.18 0 01.76-1.47c.62-.2 1.27.15 1.47.76.19.61-.14 1.27-.76 1.47a1.18 1.18 0 01-1.47-.76" class="AB"/><path d="M487.94 302.07c0-.09.08-.17.17-.17.1 0 .17.08.17.17 0 .1-.07.17-.17.17-.09 0-.17-.07-.17-.17zm1.11 0c0-.09.08-.17.17-.17s.17.08.17.17c0 .1-.08.17-.17.17s-.17-.07-.17-.17z" class="AA"/><path d="M504.54 301.01a1.18 1.18 0 01.76-1.47c.62-.2 1.27.15 1.47.76s-.15 1.27-.76 1.47c-.61.19-1.27-.15-1.47-.76" class="AD"/><path d="M504.74 300.94a1.17 1.17 0 01.76-1.46c.62-.2 1.27.14 1.47.76.2.61-.15 1.27-.76 1.46-.61.2-1.27-.14-1.47-.76z" class="AB"/><path d="M505.13 300.59c0-.1.08-.17.17-.17.1 0 .17.08.17.17s-.07.17-.17.17c-.09 0-.17-.08-.17-.17zm1.11 0c0-.09.08-.17.17-.17.1 0 .17.08.17.17s-.08.17-.17.17-.17-.08-.17-.17z" class="AA"/><path d="M474.58 267.61s-.1 2.08 1.15 2.49-1.29 4.91-1.09 7.94c.2 3.04 1.54 4.26 1.54 4.26s-.64-1.67-.28-2.7c0 0-.06 2.15 1.51 3.23s1.15 2.02 1.15 2.02 3.55-1.06 3.65-3.72c0 0 .15 1.2.03 1.7 0 0 3.06-2.3 3.2-4.95.15-2.65-2.41-4.88-3.57-4.93-1.16-.04-3.76-2.32-3.7-3.19.07-.86-3.59-2.15-3.59-2.15" class="z"/><g class="x"><path d="M474.59 337.42s4.22 2.66 4.83 2.64c1.45-.06 4.3-3.21 6.68-1.75 2.37 1.46 4.7 3.89 3.88 4.86s-3.62-.17-4.95.02c-1.34.2-4.64 1.84-6.97 1.06-2.24-.74-7.08-3.79-7.08-3.79l3.61-3.04z"/><path d="M469.42 289.18s-15.69 18.52-20.88 28.96c0 0 6.24 13.59 26.47 24.62 0 0 .9-.19 2.27-1.17 2.14-1.53-.23-2.65-.7-2.96-5.13-3.32-14.1-17.64-14.36-18.88-.26-1.25 11.24-12.39 14.74-16.51 3.49-4.12-2.11-16.18-7.54-14.06"/></g><path d="M493.34 270.85s2.1 1.28 3.6 1.13c1.47-.15 2.28-1.93 2.28-1.93s-2.87-.42-5.88.8z" fill="#fff2e9"/><path d="M469.42 289.18l-7.05 6.88s1.61 10.17 12.27 11.49c0 0 8.75-7 3.52-14.3-5.22-7.3-8.74-4.07-8.74-4.07" class="AB"/><path d="M479.42 340.06s.24-1.03 1.15-1.43c.9-.4 1.75-1.28 1.82-1.02.07.25.13.68-.34 1.2s-1.27 1.39-2.63 1.25z" class="x"/><g class="y"><path d="M487.51 489.56h-21.85s-.53-3.33.61-5.85c1.1-2.43 2.81-3.53 2.4-6.46 1.39 1.43 3.65 3.03 6.81 2.6.39.63 2.5 3.99 3.79 4.92 1.43 1.02 7.8.66 8.24 4.79m332.82-.34l-.42-123.64s-.95-8.91-8.71-8.96c-8.3-.05-8.82 8.85-8.82 8.85s.11.78.96.78c.89.01 1.04-.76 1.04-.76s.41-6.87 6.8-6.83c5.99.04 6.72 6.91 6.72 6.91l-.74 123.63 3.17.02"/><path d="M816.1 489.2l5.15.03-.42-5.4s.05-.75-1-.8c-.96-.04-2.87-.19-3.06.39-.16.52-.67 5.78-.67 5.78"/></g><path d="M811.17 350.07l-.36 1.77s-8.75-.09-10.85 9.27c0 0-.57 3.89 2.24 3.07 2.82-.81 2.39-2.8 6.38-3.87 3.98-1.06 6.58-1.88 7.2-4.77l.67-3.23-5.28-2.24" class="x"/><path d="M842.54 273.6l-4.41 17.39-2.14 9.01-.75 4.4c1.71 2.83-1.56 19.97-4.1 26.19-.23.55-.53 1.2-.9 1.91-3.55 6.85-12.96 20.28-12.96 20.28s-2.63.26-4.35-.4c-1.43-.55-2.4-2.31-2.4-2.31.84-1.34 4.31-17.18 8.7-26.05 1.89-3.79 4.83-39.08 8.46-43.81 3.02-3.94 14.85-6.61 14.85-6.61" class="AB"/><path d="M835.24 304.4c1.71 2.83-1.56 19.97-4.1 26.19-.23.55-.53 1.2-.9 1.91-3.26-14.83 2.41-35.78 2.41-35.78 1.38.56 2.48 1.71 3.34 3.28-.55 2.51-.87 4.21-.75 4.4z" class="AD"/><path d="M858.48 475.83s.81 13.41-1.72 13.58c-.34.02-12.84-.05-12.84-.05l-16.13-.09s.29-3.94 4.96-4.73c4.67-.78 12.51-4.01 15.37-10.16 3.01-6.47 10.36 1.45 10.36 1.45z" fill="#0f2949"/><path d="M882.74 475.97s.81 13.41-1.72 13.59c-.34.02-12.84-.06-12.84-.06l-16.13-.09s.29-3.94 4.96-4.72c4.68-.79 12.5-4.02 15.37-10.17 3.01-6.47 10.36 1.45 10.36 1.45" class="AM"/><path d="M859.44 443.52c.36 5.67 1.13 12.97.8 19.53l-.79 16.94c-6.08 2.02-17.18-.55-17.18-.55l-6.94-41.79-3-18.9c-1.4-10.97 1.96-69.26 1.96-69.26s16.46-10.41 23.2-4.95c6.74 5.45 10.88 10.77-.39 70.03-.86 4.5 1.52 16.25 2.34 28.95" class="AA"/><path d="M859.44 443.52c.36 5.67 1.04 14.75.71 21.32l-24.82-27.19-3-18.9c-1.4-10.97 1.96-69.26 1.96-69.26s16.46-10.41 23.2-4.95c6.74 5.45 10.88 10.77-.39 70.03-.86 4.5 1.52 16.25 2.34 28.95z" class="y"/><path d="M849.1 350.76s1.12 58.37 3.36 69.21 13.95 60.44 13.95 60.44 11.24 1.09 17.14-1.39c0 0-.24-22.94-2.15-36.43-1.79-12.61-5.07-24.14-4.56-28.69 6.68-59.95 2.15-64.93-5-69.86-7.14-4.92-22.74 6.72-22.74 6.72z" class="AA"/><g class="x"><path d="M871.31 356s-3.94 7.81 3.52 13.83c0 0 3.24 2.24 3.75-.65.52-2.88-.07-1.88.75-5.93.8-4.04-.18-8.23-2.5-10.07l-5.52 2.82zm-32.3-95.65s4.47 6.87 3.53 13.25l6.56 16.08 12.13-18.3s-6.31-6.94-8.62-16.37l-13.6 5.34"/><path d="M837.01 266.18s16.38.8 16.74-9.03c.35-9.84 4.82-16.36-7.43-17.29-10.08-.78-13.45 3.41-14.37 6.66-.92 3.26-1.01 19.09 5.06 19.66"/></g><path d="M876.61 353.74l-14.26 1.02-3.64.19c-17.77.89-24.81-2.03-24.81-2.03s-.47-.38-.31-2.47c.84-10.73 3.14-13.89 2.87-15.93-.59-4.59-11.49-42.09-11.49-42.09s-.15-11.82 13.04-17.29c1.35-.57 2.85-1.06 4.51-1.47.57 1.53 2.13 4.1 6.17 3.65 5.97-.66 10.25-4.15 12.08-5.95.33 0 .46.01.46.01.44 1.26.78 2.58 1.08 3.91 1.05 4.66 1.65 9.55 4.48 13.22 2.79 3.63 5.18 7.2 7.22 10.69a90.03 90.03 0 014.38 8.54c11.49 25.8 2.36 45.63-1.78 46" class="AB"/><path d="M876.61 353.74l-14.26 1.02c-1.54-28.92 10.4-56.61 10.4-56.61a12.52 12.52 0 011.26 1.05c2.04 2.01 3.45 4.97 4.38 8.54 3.43 13.13.37 34.4-1.78 46" class="AD"/><path d="M831.78 256.76s-3.27 12.64 2.14 14.45c5.4 1.82 19.78.47 19.87-15.04 0 0-7.57 4.45-11.17 4.32-3.61-.14-5.92-2.23-9.26-.63 0 0-1.22-.09-1.58-3.1" fill="#c8d9e8"/><path d="M861.23 271.38s11.45.33 17.46 8.24c4.6 6.06 9.31 38.47 9.28 43.34-.03 4.88-5.41 31.75-8.35 34.66 0 0-1.89.47-4.42-.03-2.67-.53-4.24-2.09-4.24-2.09l1.65-32.76c.02-4.06-12.55-29.04-12.55-29.04s-6.53-11.89 1.17-22.32z" class="AB"/><path d="M853.06 242.95c-.27-1-1.5-1.54-1.5-1.54-9.21-4.07-15.98.29-15.98.29 5.7-7.56 19.35-5.89 22.18.98 4.63 11.21-3.97 13.49-3.97 13.49s-8.56-3.66-3.56-8.15c1.65-1.48 2.46-2.81 2.73-3.97.09-.38.12-.75.1-1.1" fill="#c8d9e8"/><g class="y"><use xlink:href="#B" x="-549.06"/><use xlink:href="#C" x="-549.06"/></g><path d="M164.47 263.05s-.29 8.99-1.44 13.02l-9.11 6.35 34.27 5.12-8.17-11.29s-2.47-12.05-1.17-16.51c1.29-4.45-14.38 3.31-14.38 3.31z" class="x"/><path d="M164.42 264.29s2.71 6.53 7.81 6.38c5.11-.14 6.27-5.91 6.27-5.91l-14.08-.47z" class="AJ"/><path d="M161.37 259.01s-1.65-8.23-2.8-10.72-2.11-13.61 10.64-14.18c0 0 4.89.57 7.58-1.06 0 0 0 1.63-.67 2.21 0 0 4.41-1.06 7.86 2.77 3.45 3.84-2.3 17.26-2.02 20.42l-20.59.56" class="z"/><path d="M182.15 247.55v8.98c0 1.49-.34 2.94-.92 4.26h-.01c-1 2.29-2.72 4.24-4.59 5.55-1.67 1.17-3.45 1.84-4.98 1.81-1.33-.02-3.06-.67-4.73-1.78-2.26-1.49-4.4-3.81-5.32-6.54l-.01-.05-.03-.11c-.27-.84-.42-1.71-.42-2.6v-9.52c0-2.23 1.56-4.05 3.45-4.05h14.11c1.9 0 3.45 1.82 3.45 4.05" class="x"/><path d="M161.14 252.63s.02-5.72 4.55-6.6 14.67 2.79 16.11-1.38c1.43-4.17-19.6-4.1-20.66-1.44s0 9.42 0 9.42z" class="z"/><g class="AA"><path d="M146.19 349.8s1.44 44.04-.72 69.17.02 60.1.02 60.1 6.89 3.8 14.37 0c0 0 8.2-48.54 8.15-60.1-.05-12.3 8.93-67.25 8.93-67.25l-30.75-1.92"/><use xlink:href="#D" x="-549.06"/></g><path d="M155.28 358.54l-8.9-1.41s-2.76.24-1.13-13.37c1.24-10.36.85-19.71.57-29.33-.03-1.07 0-2.33.06-3.74.8 1.27 9.64 15.55 12.02 26.17 1.74 7.74-.88 16.86-2.62 21.68" class="AD"/><path d="M191.67 278.38v.02a91.05 91.05 0 00-11.65-2.15c-3.18 4.23-5.46 5.21-8.37 6.36-4.68-.65-8.62-6.41-8.62-6.54-5.1.52-8.54 1.45-9.94 1.89-.27.03-15.22 2-36.39 45.08 0 0 1.14 3.96 6.69 10.88 3.95 4.92 10.14 11.33 19.73 18.86 0 0 .91-1.93 1.73-5.06 0 0-5.7-11.1-9.13-18.61-1.67-3.66-2.81-6.47-2.48-6.74.62-.51 7.52-6.5 12.61-10.92-.04 1.1-.05 2.11-.03 2.98.28 9.62.67 18.97-.57 29.33-1.63 13.61 1.13 13.37 1.13 13.37s3.72.73 8.9 1.41c4.69.63 10.57 1.23 15.99 1.23 12.42 0 26.04-2.64 26.04-2.64 3.92.05-1.1-24.39-1.83-39.09l-.48-9.38 15.82 13.71c.33.27-.81 3.08-2.47 6.74-3.44 7.51-9.14 18.61-9.14 18.61.82 3.13 1.73 5.06 1.73 5.06 9.59-7.53 15.78-13.94 19.73-18.86 5.55-6.92 6.69-10.88 6.69-10.88-21.36-43.48-35.69-44.66-35.69-44.66" class="AB"/><path d="M174.68 418.97c.02-5.2-1.57-18-3.41-31.06 1.91-7.79 6.57-15.3 6.57-15.3 5.9 16.54-3.16 46.36-3.16 46.36z" class="y"/><g class="x"><path d="M143.71 348.27s5.18-4.8 7.29-2.11c2.11 2.68 2.49 6.9.86 6.61s-4.98-1.82-5.46-1.05c-.48.76-2.63 2.23-3.28 1.06-.65-1.16.59-4.51.59-4.51"/><path d="M144.85 347.72c-.82 3.13-1.73 5.06-1.73 5.06-9.59-7.53-15.78-13.94-19.73-18.86 2.98-.22 7.33-1.29 12.33-4.81 3.43 7.51 9.13 18.61 9.13 18.61m55.5.55s-5.18-4.8-7.29-2.11c-2.11 2.68-2.49 6.9-.86 6.61s4.98-1.82 5.46-1.05c.48.76 2.63 2.23 3.28 1.06.65-1.16-.59-4.51-.59-4.51z"/><path d="M199.21 347.72c.82 3.13 1.73 5.06 1.73 5.06 9.59-7.53 15.78-13.94 19.73-18.86-2.98-.22-7.32-1.29-12.33-4.81-3.43 7.51-9.13 18.61-9.13 18.61"/></g><path d="M176.63 262.38v3.96c-1.67 1.17-3.45 1.84-4.98 1.81-1.33-.02-3.06-.67-4.73-1.78v-3.99c0-2.2 1.81-4.01 4.02-4.01h1.67c2.21 0 4.02 1.81 4.02 4.01" class="z"/><path d="M210.82 322.37c-.77-.64-11.21-9.71-15.87-13.75 0 0 4.65-3.49 7.53 1.59s8.34 12.16 8.34 12.16" class="AD"/><path d="M181.22 260.79c-1.89 4.33-6.32 7.42-9.57 7.36-3.12-.05-8.46-3.57-10.05-8.32l-.01-.05-.03-.11s3.35 2.86 5.57 1.44h9.31s2.43 1.39 4.78-.32" class="z"/><path d="M227.36 323.04s-1.14 3.96-6.69 10.88c-6.43-.09 6.69-10.88 6.69-10.88z" class="AD"/><path d="M172.78 261.9h-2.01c-.46 0-1.05-.75-1.05-1.21 0 0 .59-.46 1.05-.46h2.01c.46 0 1.13.38 1.24.65 0 0-.28 1.02-1.24 1.02z" class="x"/><path d="M944.51 492.27H48.84c-.65 0-1.18-.53-1.18-1.18v-.84c0-.65.53-1.18 1.18-1.18h895.67c.65 0 1.18.53 1.18 1.18v.84c0 .65-.53 1.18-1.18 1.18z" fill="#2e3552"/><defs><path id="B" d="M694.21 489.56s0-4.03.58-5.38l2.68-6.8h8.25s1.53 4.98 1.63 6.61c.09 1.63 0 5.57 0 5.57h-13.14"/><path id="C" d="M746.56 489.56s0-4.03-.58-5.38l-2.68-6.8h-8.25s-1.53 4.98-1.63 6.61c-.09 1.63 0 5.57 0 5.57h13.14"/><path id="D" d="M746.26 479.07s-6.9 3.81-14.37 0c0 0-8.2-48.54-8.15-60.1.02-5.2-1.57-18-3.41-31.06l-5.52-36.19 31.94-1.99s-2.63 44.12-.47 69.24c2.15 25.13-.02 60.1-.02 60.1"/><path id="E" d="M462.78 489.56s0-4.03-.58-5.38l-2.68-6.8h-8.24s-1.54 4.98-1.63 6.61c-.1 1.63 0 5.57 0 5.57h13.13"/><path id="F" d="M464.49 347.72c.83 3.13 1.73 5.06 1.73 5.06 9.6-7.53 15.78-13.94 19.73-18.86-2.98-.22-7.32-1.29-12.32-4.81-3.44 7.51-9.14 18.61-9.14 18.61"/><path id="G" d="M492.64 323.04s-1.14 3.96-6.69 10.88c-6.42-.09 6.69-10.88 6.69-10.88z"/><path id="H" d="M364.49 358.54l-8.9-1.41s-2.76.24-1.13-13.37c1.24-10.36.86-19.71.58-29.33-.03-1.07-.01-2.33.06-3.74.79 1.27 9.64 15.55 12.02 26.17 1.73 7.74-.88 16.86-2.63 21.68"/><path id="I" d="M420.04 322.37c-.77-.64-11.21-9.71-15.87-13.75 0 0 4.65-3.49 7.52 1.59 2.88 5.08 8.35 12.16 8.35 12.16"/></defs></svg>
