<svg version="1.2" baseProfile="tiny-ps" xmlns="http://www.w3.org/2000/svg" viewBox="0 0 1000 712"><style>.shp2{fill:#f7a491}.shp3{fill:#f47458}.shp4{fill:#184655}.shp5{opacity:.502;fill:#e25a44}.shp7{fill:#07345a}.shp10{fill:#50bfa5}.shp13{fill:#f7cc7f}.shp14{fill:#355389}.shp17{fill:#f48c7f}</style><g id="Layer 1"><g id="&lt;Group&gt;"><path id="&lt;Path&gt;" d="M796.36 647.22c74.82-23.07 163.13-116.26 80.44-210.7-127.55-145.65 48.06-253.26-182.33-328.63C425.25 19.8 130.53 119.07 93.1 352.39 65.11 526.9 227.21 629.46 273.99 647.22h522.37z" fill="#fde9e4"/><g id="&lt;Group&gt;"><path id="&lt;Path&gt;" d="M892.23 644.95H141.19c-2.68 0-4.86 1.55-4.86 3.46s2.18 3.46 4.86 3.46h751.04c2.68 0 4.86-1.55 4.86-3.46s-2.18-3.46-4.86-3.46z" fill="#9bc1f9"/></g><g id="&lt;Group&gt;"><path id="&lt;Path&gt;" class="shp2" d="M751.27 246c.03 11.05-.29 17.48-.97 19.29-.44 1.19-2.7 3.05-4.34 6.34-1.77 3.57-2.86 7.91-3.27 13l-5.2 18.92-8.15-11.55c1.83-7.64 2.94-12.76 3.31-15.34.7-4.79 1.19-8.55 1.46-11.29 2.76-3.15 4.31-5.2 4.63-6.16 1.38-4.03 4.87-10.38 6.4-11.92 1.37-1.36 1.04 2.77-.98 12.39 1.69-10.6 3.16-15.9 4.39-15.9 1.22 0 1.2 3.36-.06 10.08-.06-5.92.87-8.54 2.78-7.86zM620.89 233.8c.97-.11 1.42.72 1.57 1.89.34-1.97.85-3.6 1.58-3.43 1.02.24 1.11 5.52.99 10.04.26-3.61.73-7.15 1.54-5.85 1.14 1.84 2.14 10.45 2.58 14.69.15 1.51.86 2.14 2.12 2.98 1.05-7.12 2.1-9.83 3.16-8.12 1.07 1.7.58 8.71-1.46 21.04l-1.1 16.53-9.93 1.38-.46-9.72c.93-2.74 1.12-5.92.56-9.54-.8-5.18-3.82-11.68-4.56-12.88-1.03-1.64.11-7.97 3.41-19.01z"/><g id="&lt;Group&gt;"><g id="&lt;Group&gt;"><path id="&lt;Compound Path&gt;" fill-rule="evenodd" class="shp3" d="M571.79 176.48c4.78-34.41 3.88-34.99 8.13-37.04 11.86-5.72 12.67-5.64 13.64-8.03 30.91-75.99 150.19-79.51 186.07-4.66 2.32.37 5.88-2.08 7.7-3.57 1.13-.93.25.33-3.05-4.58-9.37-13.83 2.91-18.66 7.94-14.14 5.5 5.38 5.21 13.92 1.76 19.64 6.95 1.48 11.83-3.7 14.88-10.09-5.65 14.63-15.71 11.32-15.97 11.58-2.79 2.93-6.31 6.13-10.47 7.29-.61.17 5.32 10.85 5.32 29.31 0 23.08-9.71 44.12-25.65 60.02-17.81 17.77-12.85 41.39-21.65 41.39-37.83 0-37.91 1.04-39.72-2.9-2.65-5.77-3.3-9.07-7.01-8.87-16.62.89-13.38-2.98-18.59 8.35-2.14 4.66-4.45 3.42-38.9 3.42-5.79 0-5.66-4.32-11.91-25.33-4.6-15.46-17.3-15.83-29.27-41.87-4.94-10.74-24.84-8.49-23.25-19.92zm217.53-55.12c2.48-3.32 3.85-9.67.1-14.04-1.4-1.36-4.08-.89-5.04.81-1.87 3.35 2.19 10.39 4.94 13.23z"/><path id="&lt;Path&gt;" class="shp4" d="M603.86 137.06c-.52 3.08-.03 5.72 1.09 5.91 1.12.19 2.45-2.15 2.97-5.23.51-3.07.02-5.72-1.1-5.91-1.12-.18-2.44 2.16-2.96 5.23z"/><path id="&lt;Path&gt;" class="shp3" d="M648.96 85.7c-2.69-2.8-19.04-18.5-48.91-19.48-1.09-.04-1.82 1.1-1.35 2.08 3.52 7.33 14.98 32.05 18.32 49.59.13.71.76 1.21 1.49 1.18 5.99-.26 31.08-3.11 30.85-32.39 0-.36-.15-.72-.4-.98z"/><path id="&lt;Path&gt;" class="shp5" d="M630.47 96.32c0-.63-.03-1.26-.08-1.88-.49-6.04-3.25-11.66-7.56-15.92-5.04-4.98-12.73-10.2-23.69-12.02.25-.18.56-.29.91-.28 29.87.98 46.23 16.68 48.91 19.48.25.26.4.62.4.98.23 29.28-24.86 32.13-30.85 32.39-.73.03-1.36-.47-1.49-1.18-.1-.48-.19-.96-.29-1.45 8.07-2.57 12.75-6.16 13.74-20.12z"/><path id="&lt;Path&gt;" d="M731.44 95.8c-2.95 4.59 1.34 12.61 9.58 17.91 8.24 5.3 17.31 5.87 20.26 1.28 2.95-4.59-1.34-12.61-9.58-17.9-8.24-5.3-17.31-5.88-20.26-1.29z" opacity=".2" fill="#fff"/><path id="&lt;Path&gt;" class="shp4" d="M663.22 85.63c29.04-9.5 54.6-.13 54.86-.04l1.89-3.68c-.28-.1-7.01-2.6-17.59-3.86-9.74-1.16-24.73-1.44-40.83 3.83l1.67 3.75z"/><path id="&lt;Compound Path&gt;" fill-rule="evenodd" class="shp5" d="M762.09 222.21c-17.81 17.77-12.85 41.39-21.65 41.39-37.83 0-37.91 1.04-39.72-2.9-2.65-5.77-3.3-9.07-7.01-8.87-16.62.89-13.38-2.98-18.59 8.35-2.14 4.66-4.45 3.42-38.9 3.42-5.79 0-5.66-4.32-11.91-25.33-4.6-15.46-17.3-15.83-29.27-41.87-.73-1.59-1.78-2.89-3.05-4-.11-.17-.25-.34-.44-.5 1.34.12 7.58 2.01 45.85 6.96 49.72 6.43 88.9-25.27 82.12-69.91-3.81-25.06-18.09-44.72-33.31-56.46 37.69-.53 75.71 17.32 93.42 54.26 2.32.37 5.88-2.08 7.7-3.57 1.13-.93.25.33-3.05-4.58-9.37-13.83 2.91-18.66 7.94-14.14 5.5 5.38 5.21 13.92 1.76 19.64 6.95 1.48 11.83-3.7 14.88-10.09-5.65 14.63-15.71 11.32-15.97 11.58-2.79 2.93-6.31 6.13-10.47 7.29-.61.17 5.32 10.85 5.32 29.31 0 23.08-9.71 44.12-25.65 60.02zm27.23-100.85c2.48-3.32 3.85-9.67.1-14.04-1.4-1.36-4.08-.89-5.04.81-1.87 3.35 2.19 10.39 4.94 13.23z"/></g></g><path id="&lt;Path&gt;" class="shp2" d="M633.22 244.79c2.26 1.72 2.18 9.14-.25 22.25l-4.44-12.84c1.03.06 1.81-.44 2.35-1.51 1.64-3.25.12-9.6 2.34-7.9z"/><path id="&lt;Path&gt;" class="shp2" d="M620.34 241.03c-.31 2.98.11 5.49 1.28 7.52 1.16 2.03 4.23 4.35 9.18 6.95l.54-1.62-11-12.85z"/><g id="&lt;Group&gt;"><g id="&lt;Group&gt;"><path id="&lt;Path&gt;" class="shp7" d="M669.1 308.41c4.39-4.63 8.35-4.13 11.89 1.51 2.72-1.53 5.04-.93 6.95 1.79 4.92-1.48 7.97 1.46 9.17 8.82 2.53-.48 3.96.78 4.3 3.79.33 3.01-.27 5.52-1.8 7.53 1.43 1.07 1.81 2.98 1.17 5.75-.55 2.35-1.8 3.71-3.74 4.07-.53 3.96-1.65 6.54-3.37 7.74-1.72 1.19-3.75 1.5-6.09.93-.62 2.15-1.94 3.13-3.94 2.94-3.01-.29-6.74-3.16-10.1-1.87-2.25.86-6.28.84-12.11-.07-6.54-2.91-8.84-7.71-6.88-14.4-3.44-3.11-3.65-6.52-.64-10.25-2.2-5.83-1.12-10.46 3.22-13.9 4.35-3.44 8.34-4.9 11.97-4.38z"/><path id="&lt;Path&gt;" class="shp2" d="M742.34 553.93c7.58-.86 11.99-1.6 13.25-2.22 1.88-.93 11.42 8.19 9.53 12.76-.71 1.72-2.19 2.47-4.44 2.25l-2.72-2.66-14.42 3-1.2-13.13zM677.49 601.83c3.99 6.5 6.53 10.19 7.62 11.07 1.64 1.31-2.58 13.82-7.52 14.04-1.86.08-3.16-.95-3.92-3.07l1.26-3.6-8.82-11.8 11.38-6.64z"/><path id="&lt;Path&gt;" class="shp7" d="M684.75 612.52c-2.29 2.92-4.06 4.96-5.31 6.13-1.62 1.5-3.46 2.98-5.52 4.45-2.34 4.25-3.84 7.12-4.47 8.6-2.14 4.96-4.54 10.47-4.2 13.25.12.89 2.11 1.83 3.78 1.32 6.94-2.14 24.67-18.36 26.91-22.72 1.72-3.35-2.01-7.03-11.19-11.03z"/><path id="&lt;Path&gt;" d="M634.13 464.01c.65-1.8 1.26-3.47 1.86-5.04 7.38 1.61 15.71 3.38 24.28 5.21l1.06 34.67c-.01-1.62-2.16 14.01-6.46 46.88 11.67 23.2 21.31 41.96 28.9 56.29-4.67 5.84-8.27 8.39-15.04 12.37-17.68-21.2-40.28-58.58-41.24-65.03-.55-3.72-1.05-63.71 6.64-85.35z" fill="#b75742"/><path id="&lt;Path&gt;" class="shp3" d="M699.97 473.1c-2 21.79-5.32 54.77-5.92 65.86 14.08 2.03 47.34 12.04 53.54 12.03 2.35 5.26 3.65 11.65 2.02 16.89-.32 1.04-65.62 3.12-82.48-7.64-4.39-2.81-5.74-29.66-5.8-61.39l-2.57-32.4c14.28 3.05 28.92 3.76 41.21 6.65z"/><path id="&lt;Path&gt;" d="M653.08 361.47l16.02 2.42c8.05.13 13.15.2 15.3.22.28 0 12.85 61.34 15.91 84.43 2.04 15.39 2.27 24.45.69 27.17-14.21 3.2-26.57 4.33-37.08 3.4-10.93-.97-22.55-4.41-34.85-10.31 10.59-29.37 16.81-48.68 18.66-57.91 1.85-9.23 3.63-25.71 5.35-49.42z" fill="#fff"/><path id="&lt;Path&gt;" class="shp10" d="M620.13 275.88c.94 37.88 1.98 57.99 3.13 60.32 1.67 3.4 8.49 17.18 20.44 41.37-8.99 37.63-15.38 62.95-19.16 75.94-.57 1.96-3.09 14.65-3.09 15.88 0 2.74 11.92 6.22 13.34 6.02 1.27-.19 11.67-53.88 18.32-80.16 2.25-8.9 6.11-17.31 11.4-24.83l4.62-6.56-27.39-33.16c-3.95-34.98-5.93-53.56-5.93-55.75 0-.86-13.96-2.3-15.68.93zM684.4 364.11l27.44-41.4c11.88-28.99 17.96-44.02 18.25-45.09.43-1.58 14.43.23 18.86-.21 1.42-.13-15.74 45.81-17.86 53.44-1.67 6.01-7.93 20.73-18.8 44.15-6.17 14.08-8.77 26.56-7.81 37.45 2.4 27.11 7.15 66.17 5.99 67.34-7.18 4.53-29.8 4.37-31.54 1.56-12.85-20.71-11.03-59.79 5.47-117.24z"/><path id="&lt;Path&gt;" class="shp2" d="M670.21 355.61l-1.19 8.85c-1.79 8.51-1.53 13.58.76 15.22 2.29 1.64 7.17-3.55 14.62-15.58l-1.18-22.44-13.01 13.95z"/><path id="&lt;Path&gt;" class="shp3" d="M683.6 348.93c-2.84 7.66-9.6 12.36-14.4 14.19l1.01-7.51 13.01-13.95.38 7.27z"/><path id="&lt;Path&gt;" class="shp7" d="M701.52 326.41c0 3.42-1.94 6.19-4.34 6.19-2.39 0-4.34-2.77-4.34-6.19 0-3.41 1.95-6.18 4.34-6.18 2.4 0 4.34 2.77 4.34 6.18zM688.51 313.11c0 1.97-2.37 3.56-5.28 3.56-2.92 0-5.28-1.59-5.28-3.56 0-1.96 2.36-3.55 5.28-3.55 2.91 0 5.28 1.59 5.28 3.55z"/><path id="&lt;Path&gt;" class="shp2" d="M675.28 318.09c-6.98-2.4-14.42 2.24-15.48 9.43-.47 3.13-.88 7.06-.96 11.36-.19 10.34 5.16 20.41 9.86 20.41 4.69 0 17.66-6.7 18.13-21.38.29-9.06-4.23-17.3-11.55-19.82z"/><path id="&lt;Path&gt;" class="shp2" d="M683.37 339.07c0 2.28 1.52 4.13 3.38 4.13 1.87 0 3.38-1.85 3.38-4.13s-1.51-4.13-3.38-4.13c-1.86 0-3.38 1.85-3.38 4.13z"/><path id="&lt;Path&gt;" class="shp7" d="M654.94 312.95c-4.85 3.84-6.55 9.68-3.8 13.04 2.76 3.36 8.92 2.97 13.77-.88 4.85-3.84 6.55-9.68 3.79-13.04-2.75-3.36-8.91-2.97-13.76.88z"/><path id="&lt;Path&gt;" class="shp7" d="M667.62 316.1c0 1.67 2.01 3.02 4.5 3.02s4.5-1.35 4.5-3.02-2.01-3.03-4.5-3.03-4.5 1.36-4.5 3.03zM654.22 328.95c0 2.15 1.72 3.89 3.84 3.89 2.13 0 3.85-1.74 3.85-3.89 0-2.15-1.72-3.89-3.85-3.89-2.12 0-3.84 1.74-3.84 3.89zM755.09 551.87c1.68 3.32 2.78 5.79 3.31 7.41.67 2.1 1.24 4.4 1.69 6.89 2.86 3.92 4.83 6.49 5.9 7.7 3.58 4.03 7.97 8.8 10.63 9.66.85.27 3.27-.45 3.25-2.33-.09-7.26-7.05-30.93-10.05-34.8-2.31-2.98-7.22-1.15-14.73 5.47z"/></g></g><path id="&lt;Path&gt;" class="shp2" d="M617.75 246.38c1.27-9.14 2.42-13.85 3.45-14.13 1.55-.42 2.09 2.09 1.43 4.24-.65 2.15-1.19 10.28-.71 13.39.32 2.07-1.07.91-4.17-3.5zM750.97 259.74c.21-7.22-.21-11.96-1.29-14.22-.22-.46-.69-.98-1.16.18-.45 1.1-.51 4.54-.18 10.34-.05-9.34-.7-14.01-1.95-14.01-1.88 0-.97 4.82-.97 6.74 0 1.29.05 4.13.15 8.52-.51-9.89-.83-15.13-.97-15.72-.21-.92-1.68-1.12-2.13.3-.3.95-.51 6.19-.63 15.73.59-9.83.18-14.74-1.21-14.74-2.15 0-.9 18.33-2.84 20.27-1.29 1.29-2.53 2.16-3.71 2.6 6 2.15 11.34 5.44 16.89-5.99z"/></g><g id="&lt;Group&gt;"><path id="&lt;Compound Path&gt;" class="shp7" d="M205.97 390.11c14.38 22.1 33.27 8.53 32.43 8.66.67-.14 4.6.63 7.18 1.01 10.75 1.62 21.93-4.18 28.1-13.52 16.38.94 29.63-11.84 27.39-25.51 8.73-7.45 9.22-21.91 4.25-32.17 1.25-15.03-17.52-21.19-31.75-18.55-7.21 1.34-14.01 5.91-18.26 12.21-12.71-2.74-25.39 4.58-30.73 17.12-20.91 1.76-33.27 28.2-18.61 50.75z"/><path id="&lt;Path&gt;" class="shp2" d="M198.81 501.6c1.28 1.24 9.73 17.7 12.94 26.51 4.7-2.96 7.55-6.49 12.81-8.49-4.15-6-12.24-20.45-12.9-23.89-1.06-5.44-2.2-8.56-3.43-9.36-18.23 6.17-27.95 10.12-29.16 11.85-1.82 2.59 14.63-1.61 19.74 3.38z"/><path id="&lt;Path&gt;" class="shp3" d="M211.98 497.54c2.12.01-.19-9.58-.67-11.79-.55-2.48-1.99-3.23-2.35-3.32-.97-.24-31.35 10.05-36.49 13.74-.34.25-.97 1.04-1.06 1.22-2.81 5.25 22.23 6.24 25.84 3.95 3.21-2.04 5.18-3.82 14.73-3.8z"/><path id="&lt;Path&gt;" d="M359.74 613.19c5.46 13.02 6.7 19.07 7.26 19.95.27.42-.17 1.76.1 2.2 8.9-1.21 19.85 2.81 27.84-.47-4.05-1.98-12.75-3.97-14.18-5-1.74-1.24-4.97-3.45-7.84-24.79-3.87 4.58-7.61 6-13.18 8.11z" fill="#f8a492"/><path id="&lt;Path&gt;" class="shp3" d="M369.87 632.14c-2.1-.4-4.67 1.06-4.68 3.26-.01 2.22-.25 5.02-.17 7.28.09 2.55 1.39 3.55 1.73 3.71.98.44 38.67-4.83 40.73-7.28 2.06-2.44-21.71-10.68-25.7-9.1-3.55 1.4-2.44 3.95-11.91 2.13z"/><path id="&lt;Path&gt;" d="M280.54 436.09c-1.06 6.75-3.29 14.66-6.69 23.73-5.11 13.62-3.92 16.94 17.48 36.67 13.88 12.8 28.08 24.28 42.6 34.44l25.14 86.79c4.89 1.04 10.43 1.06 17-.52-9.11-48.46-13.35-78.29-12.72-89.51.24-4.29-16.31-31.28-49.64-80.96l-33.17-10.64z" fill="#3c8f7c"/><path id="&lt;Path&gt;" class="shp10" d="M316.29 451.34c-25.02-10.54-37.69-15.3-38.01-14.27-3.8 12.23-16.38 9.65-23.39 31.2-2.94 9.02-3.63 32.85-5.61 50.51-.9 8.1-1.99 15.39-3.26 21.87-5.66-6.66-13.82-16-24.47-28.01-.83-.93-5.54 1.84-14.14 8.32 25.45 50.49 44.18 58.04 48.07 56.25 26.31-12.07 47.83-102.48 47.79-102.47 1.99-3.89 6.33-11.69 13.02-23.4z"/><path id="&lt;Path&gt;" class="shp2" d="M259.69 365.8c-29.19-.04-46.9-.24-53.15-.6-8.49-.49-42.13.37-43.45.22-1.32-.15-10.01-14.89-11.46-13.31-1.44 1.58 4.84 7.31 2.9 8.79-1.95 1.49-22.83-1.84-22.55-.29.52 2.89 12.7 2.52 12.69 3.91-.01 1.4-12.75-.78-13.62 1.54-.86 2.31 12.26.94 12.78 1.98.52 1.03-12.17 2.92-10.87 5.08.71 1.17 11.25-1.96 11.2-.36-.06 1.59-7.74 5.22-6.8 6.49.94 1.27 6.03-3.9 10.49-3.96 4.46-.07 7.66-2.4 14.78-.44 3.52.96 30.36 4.25 53.04 6.18 15.51 1.33 29.61 2.2 42.32 2.62l1.7-17.85zM313.07 360.77c27.22-10.54 43.68-17.1 49.38-19.68 7.74-3.51 39.45-14.82 40.62-15.43 1.17-.62 3.99-17.5 5.91-16.54 1.92.95-1.89 8.56.46 9.24 2.35.69 20.63-9.93 20.93-8.39.56 2.89-10.94 6.93-10.43 8.22.51 1.3 11.61-5.32 13.25-3.47 1.64 1.85-11.09 5.29-11.21 6.45-.11 1.15 12.41-1.65 11.97.83-.24 1.34-11.19 2.22-10.57 3.69.62 1.47 9.1 2.09 8.67 3.61-.42 1.53-7.03-1.47-11.21.08-4.19 1.55-8.01.52-13.95 4.91-2.93 2.16-26.8 14.89-47.27 24.86-13.99 6.81-26.83 12.7-38.54 17.67l-8.01-16.05z"/><path id="&lt;Path&gt;" class="shp13" d="M324.61 404.73c.58-7.03-.81-20.42-1.12-22.75 2.13-7.3 15.09-8.05 16.72-11.11-3.81-12.32-8.32-18.45-13.52-18.38-12.21 4.64-20.37 8.03-24.48 10.17-.09-.02-2.18.93-3.1.93-5.95-.04-26.74-.67-30.62.48l2.2 32.14c1.12 1.84 2.94 40.76 5.24 43.8 2.3 3.04 35.3 14.91 40.84 11.34.22-.14 6.66-32.4 7.84-46.62z"/><path id="&lt;Path&gt;" class="shp13" d="M279.32 364.82c-2.55-1.22-13.17-1.81-31.84-1.77-2.59 12.88-2.84 20.87-.75 23.97 16.54 2.46 24.58 4.37 24.1 5.73l8.49-27.93z"/><path id="&lt;Path&gt;" class="shp2" d="M283.89 350.44c3 6.95 4.68 11.89 5.02 14.81.53 4.39 5.6 17.78 14.69 15.83 9.1-1.95-2.14-17.98-3.92-22-1.19-2.68-2.81-8.34-4.85-17l-10.94 8.36z"/><path id="&lt;Path&gt;" class="shp3" d="M297.49 352.4c-2.57 2.96-6.47 4.55-11.49 3.24-.74-1.93-1.44-3.66-2.11-5.2l1.21-.92 10.75-3.3c.46 1.83 1.04 4.05 1.64 6.18z"/><path id="&lt;Path&gt;" class="shp2" d="M278.86 321.78c-2.97 2.15-4.81 5.21-5.52 9.17-1.06 5.95 2.69 20.53 15.45 22.64 12.76 2.11 16.7-10.26 13.07-19.14-3.63-8.87-10.54-19.82-23-12.67z"/><path id="&lt;Path&gt;" class="shp2" d="M302.98 330.72c.05 2.49-1.08 4.53-2.53 4.56-1.46.03-2.67-1.96-2.73-4.45-.05-2.5 1.09-4.54 2.54-4.57 1.45-.03 2.67 1.96 2.72 4.46z"/><path id="&lt;Path&gt;" class="shp7" d="M280.22 320.86c-.18 11.2-1.93 18.01-5.25 20.42-3.33 2.41-3.95 5.97-1.88 10.68-4.58-10.96-5.68-18.44-3.3-22.42 2.38-3.98 5.86-6.87 10.43-8.68z"/><path id="&lt;Path&gt;" class="shp2" d="M278.41 343.27c1.71 1.99 2 4.53.67 5.68-1.34 1.15-3.81.48-5.52-1.5-1.7-1.98-2-4.52-.66-5.68 1.34-1.15 3.81-.48 5.51 1.5z"/></g><path id="&lt;Path&gt;" class="shp3" d="M163.37 299.13l2.36-4.34-2.22-4.4c-.25-.5.18-1.08.73-.97l4.84.91 3.49-3.48a.668.668 0 011.14.39l.63 4.9 4.38 2.25c.5.26.49.98-.02 1.22l-4.45 2.11-.78 4.88c-.09.55-.78.76-1.16.35l-3.38-3.59-4.86.76c-.55.09-.97-.5-.7-.99z"/><g id="&lt;Group&gt;"><path id="&lt;Path&gt;" class="shp13" d="M301.53 176.01c-.31-4.4 3-8.21 7.38-8.51 4.38-.31 8.18 3.01 8.49 7.41.3 4.39-3.01 8.2-7.39 8.51-4.38.3-8.18-3.01-8.48-7.41z"/><g id="&lt;Group&gt;"><path id="&lt;Path&gt;" class="shp13" d="M315.01 198.54c-.47-2.31-.76-4.79-1.54-7.02-.68-1.92-3.66-1.34-3.51.72.18 2.53.97 5.09 1.49 7.56.22 1 1.54 1.46 2.41 1.15 1.07-.37 1.36-1.4 1.15-2.41z"/></g><g id="&lt;Group&gt;"><path id="&lt;Path&gt;" class="shp13" d="M328.64 188.66c-2.63-1.56-4.93-3.5-7.36-5.34-1.9-1.44-3.95 1.04-2.39 2.75 2.25 2.46 5.19 4.38 8.04 6.06.9.54 2.15.02 2.59-.87.49-1 .03-2.07-.88-2.6z"/></g><g id="&lt;Group&gt;"><path id="&lt;Path&gt;" class="shp13" d="M323.65 174.37c-.59.48-.71 1.17-.35 1.84.9 1.63 3.16 1.55 4.77 1.49 1.67-.06 3.35-.4 4.93-.94 2.35-.8 1.08-4.45-1.27-3.65-4.6 1.58-6.35-.13-8.08 1.26z"/></g><g id="&lt;Group&gt;"><path id="&lt;Path&gt;" class="shp13" d="M321.12 158.86c-2.31 3.4-4.21 4.54-3.91 6.41.17 1.1 1.03 1.62 2.08 1.38 1.25-.28 1.92-1.61 2.67-2.53.71-.89 1.42-1.79 2.05-2.73.58-.86.66-1.98-.18-2.72-.72-.62-2.12-.67-2.71.19z"/></g><g id="&lt;Group&gt;"><path id="&lt;Path&gt;" class="shp13" d="M312.1 158.27c-.74-2.06-.9-2.81-1.86-3.76-.83-.84-2.6-.3-2.71.92-.14 1.43.16 1.96.94 4.12.35.99 1.47 1.53 2.45 1.19.98-.35 1.54-1.48 1.18-2.47z"/></g><g id="&lt;Group&gt;"><path id="&lt;Path&gt;" class="shp13" d="M302.36 163.25c-3.33-2.54-4.01-3.26-5.32-3.12-.77.08-1.63.82-1.47 1.69.31 1.61 1.25 2.04 4.31 4.29.83.6 1.96.63 2.67-.19.63-.73.63-2.04-.19-2.67z"/></g><g id="&lt;Group&gt;"><path id="&lt;Path&gt;" class="shp13" d="M288.96 174.91c-1.32.7-.79 2.98.64 3.17 1.36.18 1.89-.04 8.51-1.26 1.03-.18 1.87-.93 1.79-2.06-.07-.95-1.02-1.98-2.05-1.79-6.88 1.24-7.57 1.24-8.89 1.94z"/></g><g id="&lt;Group&gt;"><path id="&lt;Path&gt;" class="shp13" d="M299.34 185.78c-3.63 3.53-4.16 2.9-5.6 5.06-.65.99.43 2.56 1.57 2.35 1.46-.27 1.86-.52 3.77-2.04 1.11-.88 2.17-1.83 3.19-2.81.75-.73.55-2.1-.19-2.75-.85-.74-1.99-.54-2.74.19z"/></g></g><path id="&lt;Path&gt;" class="shp14" d="M479.02 249.62l14.5 5.15-3.76-13-10.74 7.85z"/><path id="&lt;Path&gt;" class="shp10" d="M208.41 217.04l-11.46-3.59-1.12-12.22 3.19-.29.92 10.08 11.85 3.71-.99 13.9 8.18 1.48-.84 3.12-10.74-1.96 1.01-14.23z"/><path id="&lt;Path&gt;" d="M413.33 187.86l4.54.9c4.43-2.07 6.81-3.6 7.15-4.6.51-1.5.27-4.95 1.25-5.16.97-.22 2.91-.13 3.66 2.15.54 1.66-1.34 6.89-.89 7.36.29.3 2.88.89 4.79 1.29 1.25.27 2.25 1.22 2.59 2.47.23.85-.15 1.75-.92 2.16l-1.2.64.57 1.25a1.9 1.9 0 01-.9 2.47l-.93.44.41.76c.52.96.1 2.19-.9 2.62l-.82.35.06.23c.27.92-.21 1.91-1.1 2.26l-.81.33-12.11-2.4c-1.13-.22-2.2-.68-3.15-1.34l-4.12-1.56a.969.969 0 01-.59-1.11l2.3-10.76a.96.96 0 011.12-.75z" fill="#96d9c9"/><g id="&lt;Group&gt;"><path id="&lt;Path&gt;" class="shp4" d="M460.48 434.38c-3.75 6.69-2.12 19.92 1.01 24.18 2.08 2.84 5.59 4.7 10.54 5.59l10.9 3.35c5.23-7.22 8.56-13.1 10.01-17.66.83-2.64.98-4.36 0-9.97-1.27-7.25-3.14-11-11.05-11.87-7.67-.85-16.87-1.72-21.41 6.38z"/><path id="&lt;Path&gt;" class="shp2" d="M495.25 452.22c-.38 2.43-2.06 4.2-3.75 3.96-1.7-.25-2.76-2.43-2.38-4.86.37-2.43 2.05-4.2 3.75-3.96 1.69.25 2.75 2.43 2.38 4.86zM450.26 618.34c-.72 1.41-2.8 3.34-6.25 5.78 2.94 3.51 9.15 8.99 18.6 16.44 1.2-1.24 1.53-2.43.99-3.57-.81-1.71-4.74-12.26-2.96-15.73.47-.91 3.88-7.64 6.86-11.38-3.98-1.34-7.84-3.27-11.54-5-2.33 4.8-5.34 12.76-5.7 13.46z"/><path id="&lt;Path&gt;" class="shp7" d="M449.35 619.59c6.94 7.4 11.08 11.49 12.43 12.28 1.64.96 3.79 12.73 1.44 13.08-2.36.35-19.94-17.6-20.45-20.04-.35-1.63 1.85-3.4 6.58-5.32z"/><path id="&lt;Path&gt;" class="shp2" d="M500.76 593.18c-.84 1.36-3.1 3.15-6.75 5.37 2.63 3.68 8.32 9.54 17.09 17.56 1.3-1.16 1.74-2.32 1.3-3.49-.65-1.76-3.63-12.53-1.55-15.88.54-.87 4.55-7.37 7.85-10.92-3.85-1.59-7.52-3.74-11.06-5.7-2.75 4.64-6.46 12.38-6.88 13.06z"/><path id="&lt;Path&gt;" class="shp7" d="M498.71 595.27c6.87 7.34 10.97 11.41 12.31 12.2 1.64.97 3.74 12.75 1.38 13.09-2.36.34-20.74-16.4-21.24-18.84-.34-1.63 2.18-3.78 7.55-6.45z"/><path id="&lt;Path&gt;" class="shp14" d="M493.7 526.74c24.46 10.51 37.6 19.75 39.42 27.71.98 4.31-4.75 17.86-17.19 40.64l-14.56-6.07c2.03-8.37 4.31-15.32 6.87-20.84 1.18-2.56 2.17-4.59 2.96-6.09-1.99-1.68-14.49-5.99-37.49-12.93l6.17-20.43 13.82-1.99z"/><path id="&lt;Path&gt;" d="M450.56 526.74c-1.97 3.12-1.15 8.84 2.46 17.17 3.55 8.19 14.78 32.14 14.49 32.62-5.29 8.96-11.43 20.11-18.41 33.44l17.25 8.41c.25.44 21.9-29.12 22.74-38.06.43-4.56-1.28-21.91-5.12-52.04l-33.41-1.54z" fill="#466eb6"/><g id="&lt;Group&gt;"><path id="&lt;Path&gt;" class="shp2" d="M433.73 442.8c-3.34-3.84-10.19-16.92-12.51-21.37.07-.43.36-2.92-1.45-6.71-1.28-2.67-1.44-7.99-2.97-6.93-1.53 1.06.45 5.81-.9 5.45-1.36-.35-6.15-10.01-7.53-9.05-1.39.96 3.72 9.79 2.51 9.47-1.21-.32-5.02-8.87-6.98-7.51-1.96 1.35 5.37 9.64 4.32 10.37-1.05.73-5.54-4.61-7.12-3.52-1.57 1.09 6.46 7.01 5.75 6.82-.71-.19-5.79-1.78-6.08-.78-.32 1.14 12.23 6.62 13.33 9.06 2.03 6.54 5.57 18.44 10.6 24.64 4.09 5.06 10.65 13.2 19.68 24.41l12.32-9.32c-12.67-13.65-20.33-21.99-22.97-25.03zM506.6 435.47c2.22-4.58 5.43-19 6.5-23.89-.17-.4-1.1-2.73-.34-6.86.54-2.92-.69-8.09 1.06-7.47 1.76.63 1.08 5.73 2.29 5.03 1.22-.69 3.32-11.27 4.91-10.7 1.59.57-1.04 10.42.05 9.79 1.08-.62 2.53-9.87 4.77-9.07 2.25.8-2.66 10.72-1.46 11.15 1.21.43 4.15-5.9 5.95-5.26 1.81.64-4.41 8.45-3.77 8.08.64-.36 5.13-3.23 5.67-2.33.61 1.01-10.08 9.57-10.51 12.22-.25 6.84-.57 19.25-3.81 26.55-2.63 5.96-7.01 15.46-13.14 28.49l-13.82-5.57c8.68-16.48 13.89-26.54 15.65-30.16z"/><path id="&lt;Path&gt;" class="shp17" d="M415.29 415.71c-.5.58-.82 1.27-1.05 2 0 .13-.9 2.43.63 4.82-.41-1.7-.85-3.59.42-6.82z"/></g><path id="&lt;Path&gt;" class="shp13" d="M450.57 458.89c-8.78 7.69-13.14 11.63-13.07 11.81.7 2.05 14.24 11.07 14.24 16.54 0 4.13-1.44 20.23-4.3 48.29 7.91 2.61 16.71 3.18 26.39 1.73 9.67-1.46 17.84-4.45 24.5-8.96-.59-7.63-.89-14.98-.89-22.03 0-7.05.54-13.61 1.61-19.69l11.07-24.84-13.77-7.6c-6.36 12.22-10.37 18.32-12.06 18.32-4.77 0-9.87-.41-15.3-1.24l-18.42-12.33z"/><path id="&lt;Path&gt;" class="shp2" d="M483.29 463.23c-1.09 7.69-.48 12.57 1.83 14.65 3.64 3.29-13.21 2.38-14.39-3.06-.43-1.96.12-7.26 1.65-15.91l10.91 4.32z"/><path id="&lt;Path&gt;" class="shp17" d="M472.38 458.91l10.91 4.32c-.27 1.88-.39 3.9-.38 6.06-2.67.38-5.7-.18-8.98-2.05-.94-.53-1.8-1.13-2.58-1.76.33-2.33.67-4.52 1.03-6.57z"/><path id="&lt;Path&gt;" class="shp2" d="M476.53 434.54c-3.44.88-6.16 2.94-8.18 6.19-3.03 4.87-4.7 18.95 6.11 25.11 10.81 6.15 18.68-3.38 18.47-12.4-.2-9.03-4.33-20.56-16.4-18.9z"/><path id="&lt;Path&gt;" class="shp2" d="M476.53 434.54c-3.44.88-6.16 2.94-8.18 6.19-3.03 4.87-4.7 18.95 6.11 25.11 10.81 6.15 18.68-3.38 18.47-12.4-.2-9.03-4.33-20.56-16.4-18.9z"/><path id="&lt;Path&gt;" class="shp2" d="M468.65 453.27c.86 2.31.25 4.65-1.37 5.21-1.61.56-3.61-.86-4.46-3.18-.86-2.32-.24-4.65 1.37-5.21 1.61-.56 3.61.86 4.46 3.18z"/></g></g></g></svg>