<svg version="1" xmlns="http://www.w3.org/2000/svg" width="1146.667" height="1146.667" viewBox="0 0 860.000000 860.000000"><path d="M286.9 1.5c-23.6 4-42.8 14.2-59.7 32-13.4 14.1-22.6 31.3-26.7 49.6l-1.7 7.7-12.6 8.4C116.6 145.7 64.7 213.1 37.8 292 1.6 398.4 15.9 518.7 76.2 612.8c5.5 8.5 6.2 10.3 6.2 14.7 0 4.4-.6 6-5.6 13.5-7.6 11.6-11.3 19.2-15.8 32.9-5.1 15.5-7 27.4-7 44.6 0 38.9 13.9 72.5 41.4 100.1 21.4 21.3 47.4 34.8 76.5 39.8 12.3 2.1 34.8 2.1 47.2 0 11.2-1.9 30-7.9 39.6-12.7 24.7-12.5 50.6-37.7 62.2-60.5 1.2-2.3 2.5-4.1 3-3.8 1.3.8 28.8 4.5 41.6 5.6 15.4 1.3 41.7 1.3 57 0 11.9-1.1 38.2-4.6 40.7-5.5.8-.3 3.2 2.7 6.1 7.9 19.8 34.1 54.6 58.6 95.7 67.3 11.9 2.5 41.1 2.5 53 0 56.5-12 98.5-52.4 111.7-107.7 3.4-14.5 4.3-39.3 1.9-54.2-3.2-19-11-39.1-21.7-55.9-6.7-10.5-6.6-12.3 1.5-25.2 14.1-22.7 24.2-42.7 33.1-65.5l4.7-12.2h23.2c17.1 0 24.8-.4 29.5-1.5 18.7-4.4 34.2-19.9 38.6-38.6 2.2-9.6 2.2-158.2 0-167.8-4.4-18.7-19.9-34.2-38.6-38.6-4.7-1.1-12.4-1.5-29.5-1.5h-23.2l-3.7-9.8c-11.6-30.1-30.3-64.3-48.5-89l-2.1-2.8 19.6-78.2C725.2 65.1 734 28.7 734 27.1c0-10.3-7.8-21.4-17.9-25.2-5.2-2-6.8-2.1-20.6-1.5-68.7 2.9-131 16.9-176.6 39.6-6.3 3.1-13.4 6.9-15.8 8.4-3.7 2.4-4.6 2.6-7.5 1.6-5.8-1.9-23.4-5.9-34.9-8-17.8-3.2-35.7-5-57.2-5.7l-20-.6-7-6.7C352.8 6.4 319.2-4 286.9 1.5zM324 35c30 8.5 51.2 34.6 53.7 66.2.7 8.9 2.4 7.7-14.7 10.3-41.5 6.4-59.8 12.3-98.4 31.7l-18 9.1-2.3-2.9c-4-5-9.1-15.7-11.5-23.9-2.8-10.2-3.1-27.6-.5-37.5 7.5-28.6 30.5-49.6 60.5-55 7.3-1.4 22.8-.4 31.2 2zm375.6-.3c-.3 1-9.4 37.2-20.2 80.5l-19.6 78.6 7.4 9.9c24.4 32.2 42 65.8 54 103l4.3 13.3h33c21.1 0 34.4.4 37 1.1 5.2 1.5 11.9 8.2 13.4 13.4 1.5 5.6 1.5 149.4 0 155-1.5 5.2-8.2 11.9-13.4 13.4-2.6.7-15.9 1.1-37 1.1h-33.1l-4.8 14.7c-8.6 26.5-19.8 50.8-34.3 74.1-9.8 15.7-12 20.3-13.3 28-2 11.9.7 22 9.4 35 21.3 32.4 24.5 73.4 8.2 107.8-16 33.6-46.5 56.4-83.3 61.9-12.4 1.9-19.2 1.9-31.8 0-40-6-72.2-32.1-87-70.5-2-5.2-4-9.8-4.3-10.2-.4-.3-5.6.5-11.7 1.8-53.3 11.9-105.4 12-156.4.3-4.7-1.1-9.6-2.2-10.7-2.4-1.9-.4-2.7.8-6.8 11.4-2.5 6.5-6.3 14.6-8.4 18-15.9 26.3-38.9 43.2-69.6 51.4-6.8 1.8-10.9 2.1-25.1 2.2-15.5 0-17.9-.3-26.8-2.8-13.8-3.8-23.1-7.9-33.5-14.7-45.1-29.8-61.7-87.9-39.2-137.7 1.6-3.4 5.6-10.5 9-15.7 7.4-11.4 10-19 10-29.1 0-10.1-2.5-17.3-10.2-29.6-29.4-47-45.6-92.5-52.5-147.4-3.5-28.9-2-71.2 3.8-101.5 16.3-85.4 62.7-159.5 133.3-212.7 5.4-4.1 10.2-7.1 10.5-6.6.4.4 1.5 3.5 2.5 6.8 2.5 8.4 6.3 16.8 11.4 25.3 2.4 4.1 4 7.8 3.6 8.2-.5.5-4.6 3.6-9.2 6.9-9.5 7.1-12.2 10.8-12.2 16.9 0 9.6 6.7 16.4 16.1 16.4 4.2 0 6-.6 9.8-3.3 26.9-19.1 54.1-34.3 78.6-43.9 38.1-15 72.1-22.1 114.2-23.9 17.2-.7 18.4-.9 22.1-3.3 9.7-6.5 9.6-20-.1-27.2-2.4-1.8-4.5-2.1-14.6-2.4l-11.8-.4-.6-8.6c-.4-4.8-1.6-12.3-2.8-16.7-1.2-4.4-2.3-8.9-2.6-10-.4-1.9 0-2 7.4-1.7 25 1 56.8 6.6 85.4 15.2l7.5 2.3 8.5-5.8c19.2-13.2 51.6-26.4 85.2-34.5 23.7-5.8 42.2-8.6 79.7-12.3 1.9-.2 7.7-.5 12.8-.5 8.5-.2 9.3 0 8.8 1.5z"/><path d="M528.8 261.3c-7.6 2.9-13.6 7.3-23.9 17.6-10.1 10.1-28.2 33-31.4 39.8-3.6 7.5-.9 16 6.5 21.1 2.9 2 4.4 2.3 8.8 2 3.2-.3 6.4-1.3 8-2.5 1.5-1.1 6.7-7.6 11.7-14.4 9.1-12.6 26.9-31.9 29.4-31.9.7 0 4.6 3.2 8.7 7.1 7.4 7.2 13.3 14.4 24.4 29.7 6.9 9.5 10.7 12.2 16.9 12.2 12.7 0 20.1-13.4 13.6-24.9-5.4-9.5-20.4-28.2-30.9-38.6-13.8-13.7-20.5-17.7-31-18.2-4.4-.2-8.5.2-10.8 1z"/></svg>